STARTFONT 2.1
FONT -mplus-gothic-medium-R-normal--12-120-75-75-C-120-jisx0208.1990-0
SIZE 13 75 75
FONTBOUNDINGBOX 12 13 0 -2
STARTPROPERTIES 23
FONTNAME_REGISTRY ""
FOUNDRY "mplus"
FAMILY_NAME "gothic"
WEIGHT_NAME "medium"
SLANT "R"
SETWIDTH_NAME "normal"
ADD_STYLE_NAME ""
PIXEL_SIZE 12
POINT_SIZE 120
RESOLUTION_X 75
RESOLUTION_Y 75
SPACING "C"
AVERAGE_WIDTH 120
CHARSET_REGISTRY "jisx0208.1990"
CHARSET_ENCODING "0"
COPYRIGHT "Copyright (C) 2002-2004 COZ"
WEIGHT 10
X_HEIGHT 11
QUAD_WIDTH 12
_XMBDFED_INFO "Edited with xmbdfed 4.5."
DEFAULT_CHAR 8481
FONT_DESCENT 2
FONT_ASCENT 11
ENDPROPERTIES
CHARS 6963
STARTCHAR 0x2121
ENCODING 8481
SWIDTH 886 0
DWIDTH 12 0
BBX 12 13 0 -2
BITMAP
0000
0000
0000
0000
0000
0000
0000
0000
0000
0000
0000
0000
0000
ENDCHAR
STARTCHAR 0x2122
ENCODING 8482
SWIDTH 886 0
DWIDTH 12 0
BBX 12 13 0 -2
BITMAP
0000
0000
0000
0000
0000
0000
0000
0000
0000
0000
c000
6000
0000
ENDCHAR
STARTCHAR 0x2123
ENCODING 8483
SWIDTH 886 0
DWIDTH 12 0
BBX 12 13 0 -2
BITMAP
0000
0000
0000
0000
0000
0000
0000
0000
7000
d800
d800
7000
0000
ENDCHAR
STARTCHAR 0x2124
ENCODING 8484
SWIDTH 886 0
DWIDTH 12 0
BBX 12 13 0 -2
BITMAP
0000
0000
0000
0000
0000
0000
0000
0000
0000
7000
7000
e000
0000
ENDCHAR
STARTCHAR 0x2125
ENCODING 8485
SWIDTH 886 0
DWIDTH 12 0
BBX 12 13 0 -2
BITMAP
0000
0000
0000
0000
0000
0000
0000
0000
0000
7000
7000
0000
0000
ENDCHAR
STARTCHAR 0x2126
ENCODING 8486
SWIDTH 886 0
DWIDTH 12 0
BBX 12 13 0 -2
BITMAP
0000
0000
0000
0000
0000
0000
1c00
1c00
0000
0000
0000
0000
0000
ENDCHAR
STARTCHAR 0x2127
ENCODING 8487
SWIDTH 886 0
DWIDTH 12 0
BBX 12 13 0 -2
BITMAP
0000
0000
0000
0000
1c00
1c00
0000
0000
1c00
1c00
0000
0000
0000
ENDCHAR
STARTCHAR 0x2128
ENCODING 8488
SWIDTH 886 0
DWIDTH 12 0
BBX 12 13 0 -2
BITMAP
0000
0000
0000
0000
1c00
1c00
0000
0000
1c00
1c00
3800
0000
0000
ENDCHAR
STARTCHAR 0x2129
ENCODING 8489
SWIDTH 886 0
DWIDTH 12 0
BBX 12 13 0 -2
BITMAP
0000
1e00
3300
6180
0180
0300
0600
0c00
0c00
0000
0c00
0000
0000
ENDCHAR
STARTCHAR 0x212A
ENCODING 8490
SWIDTH 886 0
DWIDTH 12 0
BBX 12 13 0 -2
BITMAP
0000
0c00
0c00
0c00
0c00
0c00
0c00
0c00
0000
0000
0c00
0000
0000
ENDCHAR
STARTCHAR 0x212B
ENCODING 8491
SWIDTH 886 0
DWIDTH 12 0
BBX 12 13 0 -2
BITMAP
3000
d800
6000
0000
0000
0000
0000
0000
0000
0000
0000
0000
0000
ENDCHAR
STARTCHAR 0x212C
ENCODING 8492
SWIDTH 886 0
DWIDTH 12 0
BBX 12 13 0 -2
BITMAP
7000
d800
d800
7000
0000
0000
0000
0000
0000
0000
0000
0000
0000
ENDCHAR
STARTCHAR 0x212D
ENCODING 8493
SWIDTH 886 0
DWIDTH 12 0
BBX 12 13 0 -2
BITMAP
0c00
1800
0000
0000
0000
0000
0000
0000
0000
0000
0000
0000
0000
ENDCHAR
STARTCHAR 0x212E
ENCODING 8494
SWIDTH 886 0
DWIDTH 12 0
BBX 12 13 0 -2
BITMAP
1800
0c00
0000
0000
0000
0000
0000
0000
0000
0000
0000
0000
0000
ENDCHAR
STARTCHAR 0x212F
ENCODING 8495
SWIDTH 886 0
DWIDTH 12 0
BBX 12 13 0 -2
BITMAP
3b80
3b80
0000
0000
0000
0000
0000
0000
0000
0000
0000
0000
0000
ENDCHAR
STARTCHAR 0x2130
ENCODING 8496
SWIDTH 886 0
DWIDTH 12 0
BBX 12 13 0 -2
BITMAP
0c00
1a00
3300
0000
0000
0000
0000
0000
0000
0000
0000
0000
0000
ENDCHAR
STARTCHAR 0x2131
ENCODING 8497
SWIDTH 886 0
DWIDTH 12 0
BBX 12 13 0 -2
BITMAP
fff0
0000
0000
0000
0000
0000
0000
0000
0000
0000
0000
0000
0000
ENDCHAR
STARTCHAR 0x2132
ENCODING 8498
SWIDTH 886 0
DWIDTH 12 0
BBX 12 13 0 -2
BITMAP
0000
0000
0000
0000
0000
0000
0000
0000
0000
0000
0000
fff0
0000
ENDCHAR
STARTCHAR 0x2133
ENCODING 8499
SWIDTH 886 0
DWIDTH 12 0
BBX 12 13 0 -2
BITMAP
0000
0000
0000
3000
1800
0c00
0c00
0600
0600
0000
0000
0000
0000
ENDCHAR
STARTCHAR 0x2134
ENCODING 8500
SWIDTH 886 0
DWIDTH 12 0
BBX 12 13 0 -2
BITMAP
0000
0180
06c0
6300
3000
1800
1800
0c00
0c00
0000
0000
0000
0000
ENDCHAR
STARTCHAR 0x2135
ENCODING 8501
SWIDTH 886 0
DWIDTH 12 0
BBX 12 13 0 -2
BITMAP
0000
0000
0000
1800
0c00
0600
0600
0300
1f00
0000
0000
0000
0000
ENDCHAR
STARTCHAR 0x2136
ENCODING 8502
SWIDTH 886 0
DWIDTH 12 0
BBX 12 13 0 -2
BITMAP
0000
0180
06c0
3300
1800
0c00
0c00
0600
3e00
0000
0000
0000
0000
ENDCHAR
STARTCHAR 0x2137
ENCODING 8503
SWIDTH 886 0
DWIDTH 12 0
BBX 12 13 0 -2
BITMAP
0000
0000
0000
1b00
1b00
1b00
3600
3600
3600
0000
0000
0000
0000
ENDCHAR
STARTCHAR 0x2138
ENCODING 8504
SWIDTH 886 0
DWIDTH 12 0
BBX 12 13 0 -2
BITMAP
0000
1e00
3300
6180
c0c0
8060
7f80
0c00
0c00
0c00
0c00
ffc0
0000
ENDCHAR
STARTCHAR 0x2139
ENCODING 8505
SWIDTH 886 0
DWIDTH 12 0
BBX 12 13 0 -2
BITMAP
0000
0000
3000
3000
3f80
6180
6180
0300
1a00
0c00
0600
0000
0000
ENDCHAR
STARTCHAR 0x213A
ENCODING 8506
SWIDTH 886 0
DWIDTH 12 0
BBX 12 13 0 -2
BITMAP
0000
0000
00c0
0180
3d00
6600
cd00
d980
d0c0
e000
c000
0000
0000
ENDCHAR
STARTCHAR 0x213B
ENCODING 8507
SWIDTH 886 0
DWIDTH 12 0
BBX 12 13 0 -2
BITMAP
0000
0000
1e00
7380
c0c0
8060
8060
8060
c0c0
7380
1e00
0000
0000
ENDCHAR
STARTCHAR 0x213C
ENCODING 8508
SWIDTH 886 0
DWIDTH 12 0
BBX 12 13 0 -2
BITMAP
0000
0000
0000
0000
0000
c000
7fc0
0000
0000
0000
0000
0000
0000
ENDCHAR
STARTCHAR 0x213D
ENCODING 8509
SWIDTH 886 0
DWIDTH 12 0
BBX 12 13 0 -2
BITMAP
0000
0000
0000
0000
0000
0000
fff0
0000
0000
0000
0000
0000
0000
ENDCHAR
STARTCHAR 0x213E
ENCODING 8510
SWIDTH 886 0
DWIDTH 12 0
BBX 12 13 0 -2
BITMAP
0000
0000
0000
0000
0000
0000
1e00
0000
0000
0000
0000
0000
0000
ENDCHAR
STARTCHAR 0x213F
ENCODING 8511
SWIDTH 886 0
DWIDTH 12 0
BBX 12 13 0 -2
BITMAP
0000
0060
00c0
0180
0300
0600
0c00
1800
3000
6000
c000
8000
0000
ENDCHAR
STARTCHAR 0x2140
ENCODING 8512
SWIDTH 886 0
DWIDTH 12 0
BBX 12 13 0 -2
BITMAP
0000
8000
c000
6000
3000
1800
0c00
0600
0300
0180
00c0
0060
0000
ENDCHAR
STARTCHAR 0x2141
ENCODING 8513
SWIDTH 886 0
DWIDTH 12 0
BBX 12 13 0 -2
BITMAP
0000
0000
0000
0000
0000
7800
ccc0
0780
0000
0000
0000
0000
0000
ENDCHAR
STARTCHAR 0x2142
ENCODING 8514
SWIDTH 886 0
DWIDTH 12 0
BBX 12 13 0 -2
BITMAP
1a00
1a00
1a00
1a00
1a00
1a00
1a00
1a00
1a00
1a00
1a00
1a00
1a00
ENDCHAR
STARTCHAR 0x2143
ENCODING 8515
SWIDTH 886 0
DWIDTH 12 0
BBX 12 13 0 -2
BITMAP
0c00
0c00
0c00
0c00
0c00
0c00
0c00
0c00
0c00
0c00
0c00
0c00
0c00
ENDCHAR
STARTCHAR 0x2144
ENCODING 8516
SWIDTH 886 0
DWIDTH 12 0
BBX 12 13 0 -2
BITMAP
0000
0000
0000
0000
0000
0000
eee0
eee0
0000
0000
0000
0000
0000
ENDCHAR
STARTCHAR 0x2145
ENCODING 8517
SWIDTH 886 0
DWIDTH 12 0
BBX 12 13 0 -2
BITMAP
0000
0000
0000
0000
0000
0000
7380
7380
0000
0000
0000
0000
0000
ENDCHAR
STARTCHAR 0x2146
ENCODING 8518
SWIDTH 886 0
DWIDTH 12 0
BBX 12 13 0 -2
BITMAP
01c0
0380
0380
0000
0000
0000
0000
0000
0000
0000
0000
0000
0000
ENDCHAR
STARTCHAR 0x2147
ENCODING 8519
SWIDTH 886 0
DWIDTH 12 0
BBX 12 13 0 -2
BITMAP
7000
7000
e000
0000
0000
0000
0000
0000
0000
0000
0000
0000
0000
ENDCHAR
STARTCHAR 0x2148
ENCODING 8520
SWIDTH 886 0
DWIDTH 12 0
BBX 12 13 0 -2
BITMAP
0ec0
1d80
1d80
0000
0000
0000
0000
0000
0000
0000
0000
0000
0000
ENDCHAR
STARTCHAR 0x2149
ENCODING 8521
SWIDTH 886 0
DWIDTH 12 0
BBX 12 13 0 -2
BITMAP
7600
7600
ec00
0000
0000
0000
0000
0000
0000
0000
0000
0000
0000
ENDCHAR
STARTCHAR 0x214A
ENCODING 8522
SWIDTH 886 0
DWIDTH 12 0
BBX 12 13 0 -2
BITMAP
00c0
0180
0300
0300
0600
0600
0600
0600
0600
0300
0300
0180
00c0
ENDCHAR
STARTCHAR 0x214B
ENCODING 8523
SWIDTH 886 0
DWIDTH 12 0
BBX 12 13 0 -2
BITMAP
c000
6000
3000
3000
1800
1800
1800
1800
1800
3000
3000
6000
c000
ENDCHAR
STARTCHAR 0x214C
ENCODING 8524
SWIDTH 886 0
DWIDTH 12 0
BBX 12 13 0 -2
BITMAP
00c0
0180
0300
0300
0300
0300
0300
0300
0300
0300
0300
0180
00c0
ENDCHAR
STARTCHAR 0x214D
ENCODING 8525
SWIDTH 886 0
DWIDTH 12 0
BBX 12 13 0 -2
BITMAP
c000
6000
3000
3000
3000
3000
3000
3000
3000
3000
3000
6000
c000
ENDCHAR
STARTCHAR 0x214E
ENCODING 8526
SWIDTH 886 0
DWIDTH 12 0
BBX 12 13 0 -2
BITMAP
07c0
0600
0600
0600
0600
0600
0600
0600
0600
0600
0600
0600
07c0
ENDCHAR
STARTCHAR 0x214F
ENCODING 8527
SWIDTH 886 0
DWIDTH 12 0
BBX 12 13 0 -2
BITMAP
f800
1800
1800
1800
1800
1800
1800
1800
1800
1800
1800
1800
f800
ENDCHAR
STARTCHAR 0x2150
ENCODING 8528
SWIDTH 886 0
DWIDTH 12 0
BBX 12 13 0 -2
BITMAP
01c0
0300
0300
0300
0300
0300
0e00
0300
0300
0300
0300
0300
01c0
ENDCHAR
STARTCHAR 0x2151
ENCODING 8529
SWIDTH 886 0
DWIDTH 12 0
BBX 12 13 0 -2
BITMAP
e000
3000
3000
3000
3000
3000
1c00
3000
3000
3000
3000
3000
e000
ENDCHAR
STARTCHAR 0x2152
ENCODING 8530
SWIDTH 886 0
DWIDTH 12 0
BBX 12 13 0 -2
BITMAP
0000
00c0
00c0
0180
0180
0300
0300
0300
0180
0180
00c0
00c0
0000
ENDCHAR
STARTCHAR 0x2153
ENCODING 8531
SWIDTH 886 0
DWIDTH 12 0
BBX 12 13 0 -2
BITMAP
0000
c000
c000
6000
6000
3000
3000
3000
6000
6000
c000
c000
0000
ENDCHAR
STARTCHAR 0x2154
ENCODING 8532
SWIDTH 886 0
DWIDTH 12 0
BBX 12 13 0 -2
BITMAP
0000
0360
0360
06c0
06c0
0d80
0d80
0d80
06c0
06c0
0360
0360
0000
ENDCHAR
STARTCHAR 0x2155
ENCODING 8533
SWIDTH 886 0
DWIDTH 12 0
BBX 12 13 0 -2
BITMAP
0000
b000
b000
d800
d800
6c00
6c00
6c00
d800
d800
b000
b000
0000
ENDCHAR
STARTCHAR 0x2156
ENCODING 8534
SWIDTH 886 0
DWIDTH 12 0
BBX 12 13 0 -2
BITMAP
07c0
0600
0600
0600
0600
0600
0600
0600
0000
0000
0000
0000
0000
ENDCHAR
STARTCHAR 0x2157
ENCODING 8535
SWIDTH 886 0
DWIDTH 12 0
BBX 12 13 0 -2
BITMAP
0000
0000
0000
0000
0000
1800
1800
1800
1800
1800
1800
1800
f800
ENDCHAR
STARTCHAR 0x2158
ENCODING 8536
SWIDTH 886 0
DWIDTH 12 0
BBX 12 13 0 -2
BITMAP
1fc0
18c0
1bc0
1a00
1a00
1a00
1a00
1a00
1e00
0000
0000
0000
0000
ENDCHAR
STARTCHAR 0x2159
ENCODING 8537
SWIDTH 886 0
DWIDTH 12 0
BBX 12 13 0 -2
BITMAP
0000
0000
0000
0000
1e00
1a00
1a00
1a00
1a00
1a00
fa00
c600
fe00
ENDCHAR
STARTCHAR 0x215A
ENCODING 8538
SWIDTH 886 0
DWIDTH 12 0
BBX 12 13 0 -2
BITMAP
07c0
0780
0700
0700
0600
0600
0600
0600
0600
0700
0700
0780
07c0
ENDCHAR
STARTCHAR 0x215B
ENCODING 8539
SWIDTH 886 0
DWIDTH 12 0
BBX 12 13 0 -2
BITMAP
f800
7800
3800
3800
1800
1800
1800
1800
1800
3800
3800
7800
f800
ENDCHAR
STARTCHAR 0x215C
ENCODING 8540
SWIDTH 886 0
DWIDTH 12 0
BBX 12 13 0 -2
BITMAP
0000
0000
0c00
0c00
0c00
0c00
ffc0
0c00
0c00
0c00
0c00
0000
0000
ENDCHAR
STARTCHAR 0x215D
ENCODING 8541
SWIDTH 886 0
DWIDTH 12 0
BBX 12 13 0 -2
BITMAP
0000
0000
0000
0000
0000
0000
ffc0
0000
0000
0000
0000
0000
0000
ENDCHAR
STARTCHAR 0x215E
ENCODING 8542
SWIDTH 886 0
DWIDTH 12 0
BBX 12 13 0 -2
BITMAP
0000
0000
0c00
0c00
0c00
7f80
0c00
0c00
0c00
0000
7f80
0000
0000
ENDCHAR
STARTCHAR 0x215F
ENCODING 8543
SWIDTH 886 0
DWIDTH 12 0
BBX 12 13 0 -2
BITMAP
0000
0000
0000
6180
3300
1a00
0c00
1a00
3300
6180
0000
0000
0000
ENDCHAR
STARTCHAR 0x2160
ENCODING 8544
SWIDTH 886 0
DWIDTH 12 0
BBX 12 13 0 -2
BITMAP
0000
0000
0c00
1e00
0c00
0000
ffc0
0000
0c00
1e00
0c00
0000
0000
ENDCHAR
STARTCHAR 0x2161
ENCODING 8545
SWIDTH 886 0
DWIDTH 12 0
BBX 12 13 0 -2
BITMAP
0000
0000
0000
0000
0000
ffc0
0000
0000
ffc0
0000
0000
0000
0000
ENDCHAR
STARTCHAR 0x2162
ENCODING 8546
SWIDTH 886 0
DWIDTH 12 0
BBX 12 13 0 -2
BITMAP
0000
0000
0000
0180
0300
ffc0
0c00
1800
ffc0
6000
c000
0000
0000
ENDCHAR
STARTCHAR 0x2163
ENCODING 8547
SWIDTH 886 0
DWIDTH 12 0
BBX 12 13 0 -2
BITMAP
0000
0000
01c0
0700
1c00
7000
c000
7000
1c00
0700
01c0
0000
0000
ENDCHAR
STARTCHAR 0x2164
ENCODING 8548
SWIDTH 886 0
DWIDTH 12 0
BBX 12 13 0 -2
BITMAP
0000
0000
e000
3800
0e00
0380
00e0
0380
0e00
3800
e000
0000
0000
ENDCHAR
STARTCHAR 0x2165
ENCODING 8549
SWIDTH 886 0
DWIDTH 12 0
BBX 12 13 0 -2
BITMAP
0000
0000
03c0
1e00
f000
1e00
03c0
0000
ffc0
0000
ffc0
0000
0000
ENDCHAR
STARTCHAR 0x2166
ENCODING 8550
SWIDTH 886 0
DWIDTH 12 0
BBX 12 13 0 -2
BITMAP
0000
0000
f000
1e00
03c0
1e00
f000
0000
ffc0
0000
ffc0
0000
0000
ENDCHAR
STARTCHAR 0x2167
ENCODING 8551
SWIDTH 886 0
DWIDTH 12 0
BBX 12 13 0 -2
BITMAP
0000
0000
0000
0000
7380
dac0
8c60
8c60
dac0
7380
0000
0000
0000
ENDCHAR
STARTCHAR 0x2168
ENCODING 8552
SWIDTH 886 0
DWIDTH 12 0
BBX 12 13 0 -2
BITMAP
0000
0000
0c00
1e00
0c00
0000
0000
6180
f3c0
6180
0000
0000
0000
ENDCHAR
STARTCHAR 0x2169
ENCODING 8553
SWIDTH 886 0
DWIDTH 12 0
BBX 12 13 0 -2
BITMAP
0000
0000
0fc0
01c0
0340
06c0
7cc0
cc00
cc00
cc00
7800
0000
0000
ENDCHAR
STARTCHAR 0x216A
ENCODING 8554
SWIDTH 886 0
DWIDTH 12 0
BBX 12 13 0 -2
BITMAP
0000
1e00
3300
3300
3300
1e00
0c00
0c00
7f80
0c00
0c00
0000
0000
ENDCHAR
STARTCHAR 0x216B
ENCODING 8555
SWIDTH 886 0
DWIDTH 12 0
BBX 12 13 0 -2
BITMAP
0000
7000
d800
d800
7000
0000
0000
0000
0000
0000
0000
0000
0000
ENDCHAR
STARTCHAR 0x216C
ENCODING 8556
SWIDTH 886 0
DWIDTH 12 0
BBX 12 13 0 -2
BITMAP
0000
3000
6000
c000
0000
0000
0000
0000
0000
0000
0000
0000
0000
ENDCHAR
STARTCHAR 0x216D
ENCODING 8557
SWIDTH 886 0
DWIDTH 12 0
BBX 12 13 0 -2
BITMAP
0000
3600
6c00
d800
0000
0000
0000
0000
0000
0000
0000
0000
0000
ENDCHAR
STARTCHAR 0x216E
ENCODING 8558
SWIDTH 886 0
DWIDTH 12 0
BBX 12 13 0 -2
BITMAP
7000
d800
d800
7780
0cc0
1800
1800
1800
1800
0cc0
0780
0000
0000
ENDCHAR
STARTCHAR 0x216F
ENCODING 8559
SWIDTH 886 0
DWIDTH 12 0
BBX 12 13 0 -2
BITMAP
0000
6180
6180
3300
3300
7f80
0c00
0c00
7f80
0c00
0c00
0000
0000
ENDCHAR
STARTCHAR 0x2170
ENCODING 8560
SWIDTH 886 0
DWIDTH 12 0
BBX 12 13 0 -2
BITMAP
0000
0c00
3f00
6d80
6c00
3f00
0d80
0d80
6d80
3f00
0c00
0000
0000
ENDCHAR
STARTCHAR 0x2171
ENCODING 8561
SWIDTH 886 0
DWIDTH 12 0
BBX 12 13 0 -2
BITMAP
0000
0180
0180
0f00
1b80
3600
3600
3600
1d80
0f00
1800
1800
0000
ENDCHAR
STARTCHAR 0x2172
ENCODING 8562
SWIDTH 886 0
DWIDTH 12 0
BBX 12 13 0 -2
BITMAP
0000
0f00
1980
1800
1800
ff00
1800
7800
d800
dcc0
7780
0000
0000
ENDCHAR
STARTCHAR 0x2173
ENCODING 8563
SWIDTH 886 0
DWIDTH 12 0
BBX 12 13 0 -2
BITMAP
0000
7300
db00
da00
da00
7400
0d80
1ac0
1ac0
36c0
3380
0000
0000
ENDCHAR
STARTCHAR 0x2174
ENCODING 8564
SWIDTH 886 0
DWIDTH 12 0
BBX 12 13 0 -2
BITMAP
0000
1b00
1b00
1b00
7fc0
1b00
1b00
7fc0
1b00
1b00
1b00
0000
0000
ENDCHAR
STARTCHAR 0x2175
ENCODING 8565
SWIDTH 886 0
DWIDTH 12 0
BBX 12 13 0 -2
BITMAP
0000
1e00
3300
3300
3600
1d80
3680
6300
6300
6680
3cc0
0000
0000
ENDCHAR
STARTCHAR 0x2176
ENCODING 8566
SWIDTH 886 0
DWIDTH 12 0
BBX 12 13 0 -2
BITMAP
0000
0c00
6d80
3500
1e00
3500
6d80
0c00
0000
0000
0000
0000
0000
ENDCHAR
STARTCHAR 0x2177
ENCODING 8567
SWIDTH 886 0
DWIDTH 12 0
BBX 12 13 0 -2
BITMAP
0000
1f00
7180
6ec0
db40
db40
db40
db40
6f80
7000
1e00
0000
0000
ENDCHAR
STARTCHAR 0x2178
ENCODING 8568
SWIDTH 886 0
DWIDTH 12 0
BBX 12 13 0 -2
BITMAP
1e00
3300
3300
1800
1e00
3300
3300
1e00
0600
3300
3300
1e00
0000
ENDCHAR
STARTCHAR 0x2179
ENCODING 8569
SWIDTH 886 0
DWIDTH 12 0
BBX 12 13 0 -2
BITMAP
0c00
0c00
1a00
1a00
fbe0
6180
3300
3500
6a80
7380
c0c0
0000
0000
ENDCHAR
STARTCHAR 0x217A
ENCODING 8570
SWIDTH 886 0
DWIDTH 12 0
BBX 12 13 0 -2
BITMAP
0c00
0c00
1e00
1e00
ffe0
7f80
3f00
3f00
7b80
7380
c0c0
0000
0000
ENDCHAR
STARTCHAR 0x217B
ENCODING 8571
SWIDTH 886 0
DWIDTH 12 0
BBX 12 13 0 -2
BITMAP
0000
0e00
3b80
60c0
60c0
c060
c060
60c0
60c0
3b80
0e00
0000
0000
ENDCHAR
STARTCHAR 0x217C
ENCODING 8572
SWIDTH 886 0
DWIDTH 12 0
BBX 12 13 0 -2
BITMAP
0000
0e00
3f80
7fc0
7fc0
ffe0
ffe0
7fc0
7fc0
3f80
0e00
0000
0000
ENDCHAR
STARTCHAR 0x217D
ENCODING 8573
SWIDTH 886 0
DWIDTH 12 0
BBX 12 13 0 -2
BITMAP
0000
0e00
3b80
60c0
6ec0
db60
db60
6ec0
60c0
3b80
0e00
0000
0000
ENDCHAR
STARTCHAR 0x217E
ENCODING 8574
SWIDTH 886 0
DWIDTH 12 0
BBX 12 13 0 -2
BITMAP
0000
0c00
1a00
3300
6180
c0c0
8060
c0c0
6180
3300
1a00
0c00
0000
ENDCHAR
STARTCHAR 0x2221
ENCODING 8737
SWIDTH 886 0
DWIDTH 12 0
BBX 12 13 0 -2
BITMAP
0000
0c00
1e00
3f00
7f80
ffc0
ffe0
ffc0
7f80
3f00
1e00
0c00
0000
ENDCHAR
STARTCHAR 0x2222
ENCODING 8738
SWIDTH 886 0
DWIDTH 12 0
BBX 12 13 0 -2
BITMAP
0000
0000
ffc0
c0c0
c0c0
c0c0
c0c0
c0c0
c0c0
c0c0
ffc0
0000
0000
ENDCHAR
STARTCHAR 0x2223
ENCODING 8739
SWIDTH 886 0
DWIDTH 12 0
BBX 12 13 0 -2
BITMAP
0000
0000
ffc0
ffc0
ffc0
ffc0
ffc0
ffc0
ffc0
ffc0
ffc0
0000
0000
ENDCHAR
STARTCHAR 0x2224
ENCODING 8740
SWIDTH 886 0
DWIDTH 12 0
BBX 12 13 0 -2
BITMAP
0000
0000
0c00
1a00
1a00
3300
3300
6180
6180
c0c0
ffc0
0000
0000
ENDCHAR
STARTCHAR 0x2225
ENCODING 8741
SWIDTH 886 0
DWIDTH 12 0
BBX 12 13 0 -2
BITMAP
0000
0000
0c00
1e00
1e00
3f00
3f00
7f80
7f80
ffc0
ffc0
0000
0000
ENDCHAR
STARTCHAR 0x2226
ENCODING 8742
SWIDTH 886 0
DWIDTH 12 0
BBX 12 13 0 -2
BITMAP
0000
0000
ffc0
c0c0
6180
6180
3300
3300
1a00
1a00
0c00
0000
0000
ENDCHAR
STARTCHAR 0x2227
ENCODING 8743
SWIDTH 886 0
DWIDTH 12 0
BBX 12 13 0 -2
BITMAP
0000
0000
ffc0
ffc0
7f80
7f80
3f00
3f00
1e00
1e00
0c00
0000
0000
ENDCHAR
STARTCHAR 0x2228
ENCODING 8744
SWIDTH 886 0
DWIDTH 12 0
BBX 12 13 0 -2
BITMAP
0000
0c00
dec0
6d80
3300
dac0
ede0
dac0
3300
6d80
dec0
0c00
0000
ENDCHAR
STARTCHAR 0x2229
ENCODING 8745
SWIDTH 886 0
DWIDTH 12 0
BBX 12 13 0 -2
BITMAP
0000
ffc0
0000
0000
0000
ffc0
0c00
0c00
0c00
0c00
0c00
0000
0000
ENDCHAR
STARTCHAR 0x222A
ENCODING 8746
SWIDTH 886 0
DWIDTH 12 0
BBX 12 13 0 -2
BITMAP
0000
0000
0600
0300
0180
00c0
ffe0
00c0
0180
0300
0600
0000
0000
ENDCHAR
STARTCHAR 0x222B
ENCODING 8747
SWIDTH 886 0
DWIDTH 12 0
BBX 12 13 0 -2
BITMAP
0000
0000
1800
3000
6000
c000
ffe0
c000
6000
3000
1800
0000
0000
ENDCHAR
STARTCHAR 0x222C
ENCODING 8748
SWIDTH 886 0
DWIDTH 12 0
BBX 12 13 0 -2
BITMAP
0000
0c00
1e00
3500
6d80
ccc0
0c00
0c00
0c00
0c00
0c00
0c00
0000
ENDCHAR
STARTCHAR 0x222D
ENCODING 8749
SWIDTH 886 0
DWIDTH 12 0
BBX 12 13 0 -2
BITMAP
0000
0c00
0c00
0c00
0c00
0c00
0c00
ccc0
6d80
3500
1e00
0c00
0000
ENDCHAR
STARTCHAR 0x222E
ENCODING 8750
SWIDTH 886 0
DWIDTH 12 0
BBX 12 13 0 -2
BITMAP
0000
0000
0000
ffc0
ffc0
ffc0
0000
ffc0
ffc0
ffc0
0000
0000
0000
ENDCHAR
STARTCHAR 0x223A
ENCODING 8762
SWIDTH 886 0
DWIDTH 12 0
BBX 12 13 0 -2
BITMAP
0000
0000
0000
3fc0
6000
c000
ffc0
c000
6000
3fc0
0000
0000
0000
ENDCHAR
STARTCHAR 0x223B
ENCODING 8763
SWIDTH 886 0
DWIDTH 12 0
BBX 12 13 0 -2
BITMAP
0000
0000
0000
ff00
0180
00c0
ffc0
00c0
0180
ff00
0000
0000
0000
ENDCHAR
STARTCHAR 0x223C
ENCODING 8764
SWIDTH 886 0
DWIDTH 12 0
BBX 12 13 0 -2
BITMAP
0000
0000
3fc0
6000
c000
c000
6000
3fc0
0000
0000
ffc0
0000
0000
ENDCHAR
STARTCHAR 0x223D
ENCODING 8765
SWIDTH 886 0
DWIDTH 12 0
BBX 12 13 0 -2
BITMAP
0000
0000
ff00
0180
00c0
00c0
0180
ff00
0000
0000
ffc0
0000
0000
ENDCHAR
STARTCHAR 0x223E
ENCODING 8766
SWIDTH 886 0
DWIDTH 12 0
BBX 12 13 0 -2
BITMAP
0000
0000
0000
3fc0
6000
c000
c000
c000
6000
3fc0
0000
0000
0000
ENDCHAR
STARTCHAR 0x223F
ENCODING 8767
SWIDTH 886 0
DWIDTH 12 0
BBX 12 13 0 -2
BITMAP
0000
0000
0000
ff00
0180
00c0
00c0
00c0
0180
ff00
0000
0000
0000
ENDCHAR
STARTCHAR 0x2240
ENCODING 8768
SWIDTH 886 0
DWIDTH 12 0
BBX 12 13 0 -2
BITMAP
0000
0000
6180
6180
6180
6180
6180
6180
6180
3300
1e00
0000
0000
ENDCHAR
STARTCHAR 0x2241
ENCODING 8769
SWIDTH 886 0
DWIDTH 12 0
BBX 12 13 0 -2
BITMAP
0000
0000
1e00
3300
6180
6180
6180
6180
6180
6180
6180
0000
0000
ENDCHAR
STARTCHAR 0x224A
ENCODING 8778
SWIDTH 886 0
DWIDTH 12 0
BBX 12 13 0 -2
BITMAP
0000
0c00
0c00
1a00
1a00
3300
3300
6180
6180
c0c0
c0c0
0000
0000
ENDCHAR
STARTCHAR 0x224B
ENCODING 8779
SWIDTH 886 0
DWIDTH 12 0
BBX 12 13 0 -2
BITMAP
0000
c0c0
c0c0
6180
6180
3300
3300
1a00
1a00
0c00
0c00
0000
0000
ENDCHAR
STARTCHAR 0x224C
ENCODING 8780
SWIDTH 886 0
DWIDTH 12 0
BBX 12 13 0 -2
BITMAP
0000
0000
0000
0000
0000
0000
ffc0
00c0
00c0
0000
0000
0000
0000
ENDCHAR
STARTCHAR 0x224D
ENCODING 8781
SWIDTH 886 0
DWIDTH 12 0
BBX 12 13 0 -2
BITMAP
0000
0000
0000
0300
0180
ffc0
0060
ffc0
0180
0300
0000
0000
0000
ENDCHAR
STARTCHAR 0x224E
ENCODING 8782
SWIDTH 886 0
DWIDTH 12 0
BBX 12 13 0 -2
BITMAP
0000
0000
0000
3300
6180
ffc0
8060
ffc0
6180
3300
0000
0000
0000
ENDCHAR
STARTCHAR 0x224F
ENCODING 8783
SWIDTH 886 0
DWIDTH 12 0
BBX 12 13 0 -2
BITMAP
0000
c0c0
c0c0
6180
7f80
3300
3300
1a00
1a00
0c00
0c00
0000
0000
ENDCHAR
STARTCHAR 0x2250
ENCODING 8784
SWIDTH 886 0
DWIDTH 12 0
BBX 12 13 0 -2
BITMAP
0000
7f80
0180
0180
0180
7f80
0180
0180
0180
0180
7f80
0000
0000
ENDCHAR
STARTCHAR 0x225C
ENCODING 8796
SWIDTH 886 0
DWIDTH 12 0
BBX 12 13 0 -2
BITMAP
0000
0000
0180
0300
0600
0c00
1800
3000
6000
ffc0
0000
0000
0000
ENDCHAR
STARTCHAR 0x225D
ENCODING 8797
SWIDTH 886 0
DWIDTH 12 0
BBX 12 13 0 -2
BITMAP
0000
0000
0c00
0c00
0c00
0c00
0c00
0c00
0c00
ffc0
0000
0000
0000
ENDCHAR
STARTCHAR 0x225E
ENCODING 8798
SWIDTH 886 0
DWIDTH 12 0
BBX 12 13 0 -2
BITMAP
3f00
e1c0
8060
0000
0000
0000
0000
0000
0000
0000
0000
0000
0000
ENDCHAR
STARTCHAR 0x225F
ENCODING 8799
SWIDTH 886 0
DWIDTH 12 0
BBX 12 13 0 -2
BITMAP
0000
0000
0f00
1980
0180
0180
1e80
3300
6300
6600
3c00
0000
0000
ENDCHAR
STARTCHAR 0x2260
ENCODING 8800
SWIDTH 886 0
DWIDTH 12 0
BBX 12 13 0 -2
BITMAP
0000
0000
ffc0
ffc0
7180
7180
3b00
3b00
1a00
1e00
0c00
0000
0000
ENDCHAR
STARTCHAR 0x2261
ENCODING 8801
SWIDTH 886 0
DWIDTH 12 0
BBX 12 13 0 -2
BITMAP
0000
0000
0000
ffc0
0000
0000
ffc0
0000
0000
ffc0
0000
0000
0000
ENDCHAR
STARTCHAR 0x2262
ENCODING 8802
SWIDTH 886 0
DWIDTH 12 0
BBX 12 13 0 -2
BITMAP
0000
0000
7000
7000
0000
ffc0
0000
ffc0
0000
0380
0380
0000
0000
ENDCHAR
STARTCHAR 0x2263
ENCODING 8803
SWIDTH 886 0
DWIDTH 12 0
BBX 12 13 0 -2
BITMAP
0000
0000
0cc0
1980
3300
6600
cc00
6600
3300
1980
0cc0
0000
0000
ENDCHAR
STARTCHAR 0x2264
ENCODING 8804
SWIDTH 886 0
DWIDTH 12 0
BBX 12 13 0 -2
BITMAP
0000
0000
9800
cc00
6600
3300
1980
3300
6600
cc00
9800
0000
0000
ENDCHAR
STARTCHAR 0x2265
ENCODING 8805
SWIDTH 886 0
DWIDTH 12 0
BBX 12 13 0 -2
BITMAP
07e0
0600
0600
0c00
0c00
cc00
d800
a800
a800
3000
3000
0000
0000
ENDCHAR
STARTCHAR 0x2266
ENCODING 8806
SWIDTH 886 0
DWIDTH 12 0
BBX 12 13 0 -2
BITMAP
0000
0000
0000
6380
c6c0
8c60
8c60
d8c0
7180
0000
0000
0000
0000
ENDCHAR
STARTCHAR 0x2267
ENCODING 8807
SWIDTH 886 0
DWIDTH 12 0
BBX 12 13 0 -2
BITMAP
0000
0000
0000
7380
dac0
8c00
8c00
dac0
7380
0000
0000
0000
0000
ENDCHAR
STARTCHAR 0x2268
ENCODING 8808
SWIDTH 886 0
DWIDTH 12 0
BBX 12 13 0 -2
BITMAP
0000
0000
6180
f3c0
6180
0000
0000
0c00
1e00
0c00
0000
0000
0000
ENDCHAR
STARTCHAR 0x2269
ENCODING 8809
SWIDTH 886 0
DWIDTH 12 0
BBX 12 13 0 -2
BITMAP
0e00
1a00
1800
1800
1800
0c00
0c00
0600
0600
0600
1a00
1c00
0000
ENDCHAR
STARTCHAR 0x226A
ENCODING 8810
SWIDTH 886 0
DWIDTH 12 0
BBX 12 13 0 -2
BITMAP
3b80
6a80
6600
6600
6600
3300
3300
1980
1980
1980
6a80
7700
0000
ENDCHAR
STARTCHAR 0x2272
ENCODING 8818
SWIDTH 886 0
DWIDTH 12 0
BBX 12 13 0 -2
BITMAP
0e00
1b00
1b00
0e00
0c00
1a00
1a00
3300
3f00
6180
6180
0000
0000
ENDCHAR
STARTCHAR 0x2273
ENCODING 8819
SWIDTH 886 0
DWIDTH 12 0
BBX 12 13 0 -2
BITMAP
0000
e600
b600
b400
b400
e800
1ec0
3b60
3b60
6b60
6ec0
0000
0000
ENDCHAR
STARTCHAR 0x2274
ENCODING 8820
SWIDTH 886 0
DWIDTH 12 0
BBX 12 13 0 -2
BITMAP
0000
1b00
1b00
1bc0
1f00
7b00
1bc0
1f00
7b00
1b00
1b00
0000
0000
ENDCHAR
STARTCHAR 0x2275
ENCODING 8821
SWIDTH 886 0
DWIDTH 12 0
BBX 12 13 0 -2
BITMAP
0000
3000
3000
3000
3600
3b00
3300
3300
3600
3400
3800
0000
0000
ENDCHAR
STARTCHAR 0x2276
ENCODING 8822
SWIDTH 886 0
DWIDTH 12 0
BBX 12 13 0 -2
BITMAP
0000
0c00
0e00
0d00
0d80
0d80
0d00
0c00
3c00
7c00
7800
0000
0000
ENDCHAR
STARTCHAR 0x2277
ENCODING 8823
SWIDTH 886 0
DWIDTH 12 0
BBX 12 13 0 -2
BITMAP
0c00
0c00
3f00
0c00
0c00
1e00
1e00
1e00
0c00
0c00
0c00
0c00
0000
ENDCHAR
STARTCHAR 0x2278
ENCODING 8824
SWIDTH 886 0
DWIDTH 12 0
BBX 12 13 0 -2
BITMAP
0c00
0c00
3f00
0c00
1e00
0c00
0c00
1e00
0c00
3f00
0c00
0c00
0000
ENDCHAR
STARTCHAR 0x2279
ENCODING 8825
SWIDTH 886 0
DWIDTH 12 0
BBX 12 13 0 -2
BITMAP
0000
1f00
3d00
7d00
7d00
3d00
1d00
0d00
0d00
0d00
0d00
0000
0000
ENDCHAR
STARTCHAR 0x227E
ENCODING 8830
SWIDTH 886 0
DWIDTH 12 0
BBX 12 13 0 -2
BITMAP
0000
1e00
7380
c0c0
c0c0
8060
8060
8060
c0c0
c0c0
7380
1e00
0000
ENDCHAR
STARTCHAR 0x2330
ENCODING 9008
SWIDTH 886 0
DWIDTH 12 0
BBX 12 13 0 -2
BITMAP
0000
1e00
3300
6180
6180
6180
6180
6180
6180
3300
1e00
0000
0000
ENDCHAR
STARTCHAR 0x2331
ENCODING 9009
SWIDTH 886 0
DWIDTH 12 0
BBX 12 13 0 -2
BITMAP
0000
0c00
1c00
3400
6c00
0c00
0c00
0c00
0c00
0c00
0c00
0000
0000
ENDCHAR
STARTCHAR 0x2332
ENCODING 9010
SWIDTH 886 0
DWIDTH 12 0
BBX 12 13 0 -2
BITMAP
0000
1e00
3300
6180
0180
0300
0600
0c00
1800
3000
7f80
0000
0000
ENDCHAR
STARTCHAR 0x2333
ENCODING 9011
SWIDTH 886 0
DWIDTH 12 0
BBX 12 13 0 -2
BITMAP
0000
7f80
0300
0600
0c00
1e00
0300
0180
6180
3300
1e00
0000
0000
ENDCHAR
STARTCHAR 0x2334
ENCODING 9012
SWIDTH 886 0
DWIDTH 12 0
BBX 12 13 0 -2
BITMAP
0000
0e00
1a00
1a00
3600
3600
6600
6600
ff80
0600
0600
0000
0000
ENDCHAR
STARTCHAR 0x2335
ENCODING 9013
SWIDTH 886 0
DWIDTH 12 0
BBX 12 13 0 -2
BITMAP
0000
7f80
6000
6000
6e00
7300
0180
0180
0180
6300
3e00
0000
0000
ENDCHAR
STARTCHAR 0x2336
ENCODING 9014
SWIDTH 886 0
DWIDTH 12 0
BBX 12 13 0 -2
BITMAP
0000
1f00
3000
6000
6e00
7300
6180
6180
6180
3300
1e00
0000
0000
ENDCHAR
STARTCHAR 0x2337
ENCODING 9015
SWIDTH 886 0
DWIDTH 12 0
BBX 12 13 0 -2
BITMAP
0000
7f80
0180
0300
0300
0600
0600
0c00
0c00
1800
1800
0000
0000
ENDCHAR
STARTCHAR 0x2338
ENCODING 9016
SWIDTH 886 0
DWIDTH 12 0
BBX 12 13 0 -2
BITMAP
0000
1e00
3300
6180
3300
1e00
3300
6180
6180
3300
1e00
0000
0000
ENDCHAR
STARTCHAR 0x2339
ENCODING 9017
SWIDTH 886 0
DWIDTH 12 0
BBX 12 13 0 -2
BITMAP
0000
1e00
3300
6180
6180
6180
3380
1e80
0180
0300
3e00
0000
0000
ENDCHAR
STARTCHAR 0x2341
ENCODING 9025
SWIDTH 886 0
DWIDTH 12 0
BBX 12 13 0 -2
BITMAP
0000
0c00
0c00
1a00
1a00
3300
3300
7f80
6180
c0c0
c0c0
0000
0000
ENDCHAR
STARTCHAR 0x2342
ENCODING 9026
SWIDTH 886 0
DWIDTH 12 0
BBX 12 13 0 -2
BITMAP
0000
7f00
6180
6180
6180
7f00
6180
60c0
60c0
6180
7f00
0000
0000
ENDCHAR
STARTCHAR 0x2343
ENCODING 9027
SWIDTH 886 0
DWIDTH 12 0
BBX 12 13 0 -2
BITMAP
0000
1f80
30c0
6000
6000
6000
6000
6000
6000
30c0
1f80
0000
0000
ENDCHAR
STARTCHAR 0x2344
ENCODING 9028
SWIDTH 886 0
DWIDTH 12 0
BBX 12 13 0 -2
BITMAP
0000
7e00
6380
6180
60c0
60c0
60c0
60c0
6180
6380
7e00
0000
0000
ENDCHAR
STARTCHAR 0x2345
ENCODING 9029
SWIDTH 886 0
DWIDTH 12 0
BBX 12 13 0 -2
BITMAP
0000
7f80
6000
6000
6000
7f00
6000
6000
6000
6000
7f80
0000
0000
ENDCHAR
STARTCHAR 0x2346
ENCODING 9030
SWIDTH 886 0
DWIDTH 12 0
BBX 12 13 0 -2
BITMAP
0000
7f80
6000
6000
6000
7f00
6000
6000
6000
6000
6000
0000
0000
ENDCHAR
STARTCHAR 0x2347
ENCODING 9031
SWIDTH 886 0
DWIDTH 12 0
BBX 12 13 0 -2
BITMAP
0000
1f80
30c0
6000
6000
67c0
60c0
60c0
60c0
31c0
1f40
0000
0000
ENDCHAR
STARTCHAR 0x2348
ENCODING 9032
SWIDTH 886 0
DWIDTH 12 0
BBX 12 13 0 -2
BITMAP
0000
60c0
60c0
60c0
60c0
7fc0
60c0
60c0
60c0
60c0
60c0
0000
0000
ENDCHAR
STARTCHAR 0x2349
ENCODING 9033
SWIDTH 886 0
DWIDTH 12 0
BBX 12 13 0 -2
BITMAP
0000
0c00
0c00
0c00
0c00
0c00
0c00
0c00
0c00
0c00
0c00
0000
0000
ENDCHAR
STARTCHAR 0x234A
ENCODING 9034
SWIDTH 886 0
DWIDTH 12 0
BBX 12 13 0 -2
BITMAP
0000
0300
0300
0300
0300
0300
c300
c300
c300
6600
3c00
0000
0000
ENDCHAR
STARTCHAR 0x234B
ENCODING 9035
SWIDTH 886 0
DWIDTH 12 0
BBX 12 13 0 -2
BITMAP
0000
6180
6300
6600
6c00
6800
7400
6600
6300
6180
60c0
0000
0000
ENDCHAR
STARTCHAR 0x234C
ENCODING 9036
SWIDTH 886 0
DWIDTH 12 0
BBX 12 13 0 -2
BITMAP
0000
6000
6000
6000
6000
6000
6000
6000
6000
6000
7f80
0000
0000
ENDCHAR
STARTCHAR 0x234D
ENCODING 9037
SWIDTH 886 0
DWIDTH 12 0
BBX 12 13 0 -2
BITMAP
0000
c0c0
e1c0
d340
dac0
ccc0
c0c0
c0c0
c0c0
c0c0
c0c0
0000
0000
ENDCHAR
STARTCHAR 0x234E
ENCODING 9038
SWIDTH 886 0
DWIDTH 12 0
BBX 12 13 0 -2
BITMAP
0000
6180
7180
6980
6d80
6680
6380
6180
6180
6180
6180
0000
0000
ENDCHAR
STARTCHAR 0x234F
ENCODING 9039
SWIDTH 886 0
DWIDTH 12 0
BBX 12 13 0 -2
BITMAP
0000
1f00
3180
60c0
60c0
60c0
60c0
60c0
60c0
3180
1f00
0000
0000
ENDCHAR
STARTCHAR 0x2350
ENCODING 9040
SWIDTH 886 0
DWIDTH 12 0
BBX 12 13 0 -2
BITMAP
0000
7e00
6300
6180
6180
6300
7e00
6000
6000
6000
6000
0000
0000
ENDCHAR
STARTCHAR 0x2351
ENCODING 9041
SWIDTH 886 0
DWIDTH 12 0
BBX 12 13 0 -2
BITMAP
0000
1f00
3180
60c0
60c0
60c0
60c0
60c0
60c0
3180
1f00
0600
03c0
ENDCHAR
STARTCHAR 0x2352
ENCODING 9042
SWIDTH 886 0
DWIDTH 12 0
BBX 12 13 0 -2
BITMAP
0000
7e00
6300
6180
6180
6300
7e00
6300
6300
6180
6180
0000
0000
ENDCHAR
STARTCHAR 0x2353
ENCODING 9043
SWIDTH 886 0
DWIDTH 12 0
BBX 12 13 0 -2
BITMAP
0000
1f00
3180
60c0
3000
1f00
0180
00c0
60c0
3180
1f00
0000
0000
ENDCHAR
STARTCHAR 0x2354
ENCODING 9044
SWIDTH 886 0
DWIDTH 12 0
BBX 12 13 0 -2
BITMAP
0000
ffc0
0c00
0c00
0c00
0c00
0c00
0c00
0c00
0c00
0c00
0000
0000
ENDCHAR
STARTCHAR 0x2355
ENCODING 9045
SWIDTH 886 0
DWIDTH 12 0
BBX 12 13 0 -2
BITMAP
0000
6180
6180
6180
6180
6180
6180
6180
6180
3300
1e00
0000
0000
ENDCHAR
STARTCHAR 0x2356
ENCODING 9046
SWIDTH 886 0
DWIDTH 12 0
BBX 12 13 0 -2
BITMAP
0000
6180
6180
6180
3300
3300
3300
1a00
1a00
0c00
0c00
0000
0000
ENDCHAR
STARTCHAR 0x2357
ENCODING 9047
SWIDTH 886 0
DWIDTH 12 0
BBX 12 13 0 -2
BITMAP
0000
ccc0
ccc0
ccc0
ccc0
6a80
6a80
6a80
3300
3300
3300
0000
0000
ENDCHAR
STARTCHAR 0x2358
ENCODING 9048
SWIDTH 886 0
DWIDTH 12 0
BBX 12 13 0 -2
BITMAP
0000
6180
6180
3300
1a00
0c00
0c00
1a00
3300
6180
6180
0000
0000
ENDCHAR
STARTCHAR 0x2359
ENCODING 9049
SWIDTH 886 0
DWIDTH 12 0
BBX 12 13 0 -2
BITMAP
0000
6180
6180
3300
3300
1a00
1a00
0c00
0c00
0c00
0c00
0000
0000
ENDCHAR
STARTCHAR 0x235A
ENCODING 9050
SWIDTH 886 0
DWIDTH 12 0
BBX 12 13 0 -2
BITMAP
0000
7f80
0180
0300
0600
0c00
1800
3000
6000
6000
7f80
0000
0000
ENDCHAR
STARTCHAR 0x2361
ENCODING 9057
SWIDTH 886 0
DWIDTH 12 0
BBX 12 13 0 -2
BITMAP
0000
0000
0000
0000
1f00
0180
0f80
3980
3180
3380
1e80
0000
0000
ENDCHAR
STARTCHAR 0x2362
ENCODING 9058
SWIDTH 886 0
DWIDTH 12 0
BBX 12 13 0 -2
BITMAP
0000
3000
3000
3000
3600
3b00
3180
3180
3180
3b00
3600
0000
0000
ENDCHAR
STARTCHAR 0x2363
ENCODING 9059
SWIDTH 886 0
DWIDTH 12 0
BBX 12 13 0 -2
BITMAP
0000
0000
0000
0000
0f00
1980
3000
3000
3000
1980
0f00
0000
0000
ENDCHAR
STARTCHAR 0x2364
ENCODING 9060
SWIDTH 886 0
DWIDTH 12 0
BBX 12 13 0 -2
BITMAP
0000
0180
0180
0180
0e80
1b80
3180
3180
3180
1b80
0e80
0000
0000
ENDCHAR
STARTCHAR 0x2365
ENCODING 9061
SWIDTH 886 0
DWIDTH 12 0
BBX 12 13 0 -2
BITMAP
0000
0000
0000
0000
0e00
1b00
3180
3f80
3000
1980
0f00
0000
0000
ENDCHAR
STARTCHAR 0x2366
ENCODING 9062
SWIDTH 886 0
DWIDTH 12 0
BBX 12 13 0 -2
BITMAP
0000
0780
0c00
0c00
0c00
3f80
0c00
0c00
0c00
0c00
0c00
0000
0000
ENDCHAR
STARTCHAR 0x2367
ENCODING 9063
SWIDTH 886 0
DWIDTH 12 0
BBX 12 13 0 -2
BITMAP
0000
0000
0000
0000
0e80
1b80
3180
3180
1b80
0e80
0180
0300
1e00
ENDCHAR
STARTCHAR 0x2368
ENCODING 9064
SWIDTH 886 0
DWIDTH 12 0
BBX 12 13 0 -2
BITMAP
0000
3000
3000
3000
3600
3b00
3180
3180
3180
3180
3180
0000
0000
ENDCHAR
STARTCHAR 0x2369
ENCODING 9065
SWIDTH 886 0
DWIDTH 12 0
BBX 12 13 0 -2
BITMAP
0000
0c00
0c00
0000
0000
0c00
0c00
0c00
0c00
0c00
0c00
0000
0000
ENDCHAR
STARTCHAR 0x236A
ENCODING 9066
SWIDTH 886 0
DWIDTH 12 0
BBX 12 13 0 -2
BITMAP
0000
0600
0600
0000
0000
0600
0600
0600
0600
0600
0600
0c00
7800
ENDCHAR
STARTCHAR 0x236B
ENCODING 9067
SWIDTH 886 0
DWIDTH 12 0
BBX 12 13 0 -2
BITMAP
0000
3000
3000
3000
3180
3300
3600
3400
3600
3300
3180
0000
0000
ENDCHAR
STARTCHAR 0x236C
ENCODING 9068
SWIDTH 886 0
DWIDTH 12 0
BBX 12 13 0 -2
BITMAP
0000
0c00
0c00
0c00
0c00
0c00
0c00
0c00
0c00
0c00
0c00
0000
0000
ENDCHAR
STARTCHAR 0x236D
ENCODING 9069
SWIDTH 886 0
DWIDTH 12 0
BBX 12 13 0 -2
BITMAP
0000
0000
0000
0000
db80
eec0
ccc0
ccc0
ccc0
ccc0
ccc0
0000
0000
ENDCHAR
STARTCHAR 0x236E
ENCODING 9070
SWIDTH 886 0
DWIDTH 12 0
BBX 12 13 0 -2
BITMAP
0000
0000
0000
0000
3700
3980
3180
3180
3180
3180
3180
0000
0000
ENDCHAR
STARTCHAR 0x236F
ENCODING 9071
SWIDTH 886 0
DWIDTH 12 0
BBX 12 13 0 -2
BITMAP
0000
0000
0000
0000
1e00
3300
6180
6180
6180
3300
1e00
0000
0000
ENDCHAR
STARTCHAR 0x2370
ENCODING 9072
SWIDTH 886 0
DWIDTH 12 0
BBX 12 13 0 -2
BITMAP
0000
0000
0000
0000
3600
3b00
3180
3180
3180
3b00
3600
3000
3000
ENDCHAR
STARTCHAR 0x2371
ENCODING 9073
SWIDTH 886 0
DWIDTH 12 0
BBX 12 13 0 -2
BITMAP
0000
0000
0000
0000
0e80
1b80
3180
3180
3180
1b80
0e80
0180
0180
ENDCHAR
STARTCHAR 0x2372
ENCODING 9074
SWIDTH 886 0
DWIDTH 12 0
BBX 12 13 0 -2
BITMAP
0000
0000
0000
0000
3600
3b00
3000
3000
3000
3000
3000
0000
0000
ENDCHAR
STARTCHAR 0x2373
ENCODING 9075
SWIDTH 886 0
DWIDTH 12 0
BBX 12 13 0 -2
BITMAP
0000
0000
0000
0000
1f00
3180
3000
1f00
0180
3180
1f00
0000
0000
ENDCHAR
STARTCHAR 0x2374
ENCODING 9076
SWIDTH 886 0
DWIDTH 12 0
BBX 12 13 0 -2
BITMAP
0000
1800
1800
1800
7f00
1800
1800
1800
1800
1980
0f00
0000
0000
ENDCHAR
STARTCHAR 0x2375
ENCODING 9077
SWIDTH 886 0
DWIDTH 12 0
BBX 12 13 0 -2
BITMAP
0000
0000
0000
0000
3180
3180
3180
3180
3180
3380
1e80
0000
0000
ENDCHAR
STARTCHAR 0x2376
ENCODING 9078
SWIDTH 886 0
DWIDTH 12 0
BBX 12 13 0 -2
BITMAP
0000
0000
0000
0000
6180
6180
3300
3300
1a00
1a00
0c00
0000
0000
ENDCHAR
STARTCHAR 0x2377
ENCODING 9079
SWIDTH 886 0
DWIDTH 12 0
BBX 12 13 0 -2
BITMAP
0000
0000
0000
0000
ccc0
ccc0
ccc0
6a80
6a80
3300
3300
0000
0000
ENDCHAR
STARTCHAR 0x2378
ENCODING 9080
SWIDTH 886 0
DWIDTH 12 0
BBX 12 13 0 -2
BITMAP
0000
0000
0000
0000
6180
3300
1a00
0c00
1a00
3300
6180
0000
0000
ENDCHAR
STARTCHAR 0x2379
ENCODING 9081
SWIDTH 886 0
DWIDTH 12 0
BBX 12 13 0 -2
BITMAP
0000
0000
0000
0000
3180
3180
1980
1b00
0d00
0600
0600
0c00
3800
ENDCHAR
STARTCHAR 0x237A
ENCODING 9082
SWIDTH 886 0
DWIDTH 12 0
BBX 12 13 0 -2
BITMAP
0000
0000
0000
0000
3f80
0300
0600
0c00
1800
3000
3f80
0000
0000
ENDCHAR
STARTCHAR 0x2421
ENCODING 9249
SWIDTH 886 0
DWIDTH 12 0
BBX 12 13 0 -2
BITMAP
0000
0000
0000
0000
0c00
7f80
1800
1f00
3a80
6a80
6d80
3b00
0000
ENDCHAR
STARTCHAR 0x2422
ENCODING 9250
SWIDTH 886 0
DWIDTH 12 0
BBX 12 13 0 -2
BITMAP
0000
0c00
0dc0
ff00
1800
1f80
3b40
6b60
da60
dc60
74c0
0380
0000
ENDCHAR
STARTCHAR 0x2423
ENCODING 9251
SWIDTH 886 0
DWIDTH 12 0
BBX 12 13 0 -2
BITMAP
0000
0000
0000
0000
0000
3300
6300
6180
6180
6d80
3800
0000
0000
ENDCHAR
STARTCHAR 0x2424
ENCODING 9252
SWIDTH 886 0
DWIDTH 12 0
BBX 12 13 0 -2
BITMAP
0000
0000
0000
6000
6180
c0c0
c0c0
c060
c660
6c00
3800
0000
0000
ENDCHAR
STARTCHAR 0x2425
ENCODING 9253
SWIDTH 886 0
DWIDTH 12 0
BBX 12 13 0 -2
BITMAP
0000
0000
0000
0000
1c00
0700
0000
0f00
3980
0180
0300
0e00
0000
ENDCHAR
STARTCHAR 0x2426
ENCODING 9254
SWIDTH 886 0
DWIDTH 12 0
BBX 12 13 0 -2
BITMAP
0000
3c00
0700
0000
1e00
7300
0180
0180
0180
0300
0e00
3800
0000
ENDCHAR
STARTCHAR 0x2427
ENCODING 9255
SWIDTH 886 0
DWIDTH 12 0
BBX 12 13 0 -2
BITMAP
0000
0000
0000
0000
1c00
0700
0000
3f00
0600
0c00
1a00
3380
0000
ENDCHAR
STARTCHAR 0x2428
ENCODING 9256
SWIDTH 886 0
DWIDTH 12 0
BBX 12 13 0 -2
BITMAP
0000
1c00
0700
0000
7f00
0300
0600
0c00
1c00
3600
6600
c3c0
0000
ENDCHAR
STARTCHAR 0x2429
ENCODING 9257
SWIDTH 886 0
DWIDTH 12 0
BBX 12 13 0 -2
BITMAP
0000
0000
0000
0000
1800
1980
7ec0
1800
3f00
6980
6980
7700
0000
ENDCHAR
STARTCHAR 0x242A
ENCODING 9258
SWIDTH 886 0
DWIDTH 12 0
BBX 12 13 0 -2
BITMAP
0000
1800
19c0
fe60
1800
1800
1f80
38c0
6860
d860
d8c0
7380
0000
ENDCHAR
STARTCHAR 0x242B
ENCODING 9259
SWIDTH 886 0
DWIDTH 12 0
BBX 12 13 0 -2
BITMAP
0000
3000
3180
3180
fcc0
36c0
3660
6660
6600
c600
c600
3c00
0000
ENDCHAR
STARTCHAR 0x242C
ENCODING 9260
SWIDTH 886 0
DWIDTH 12 0
BBX 12 13 0 -2
BITMAP
0000
31a0
31a0
3000
fcc0
36c0
3660
6660
6600
c600
c600
3c00
0000
ENDCHAR
STARTCHAR 0x242D
ENCODING 9261
SWIDTH 886 0
DWIDTH 12 0
BBX 12 13 0 -2
BITMAP
0000
0c00
0d80
fe00
07c0
fe00
0300
3e80
6380
6000
3000
1f00
0000
ENDCHAR
STARTCHAR 0x242E
ENCODING 9262
SWIDTH 886 0
DWIDTH 12 0
BBX 12 13 0 -2
BITMAP
0000
0da0
0da0
fe00
07c0
fe00
0300
3e80
6380
6000
3000
1f00
0000
ENDCHAR
STARTCHAR 0x242F
ENCODING 9263
SWIDTH 886 0
DWIDTH 12 0
BBX 12 13 0 -2
BITMAP
0000
0000
0300
0600
0c00
1800
3000
3000
1c00
0600
0300
0180
0000
ENDCHAR
STARTCHAR 0x2430
ENCODING 9264
SWIDTH 886 0
DWIDTH 12 0
BBX 12 13 0 -2
BITMAP
0000
0000
0600
0da0
19a0
3000
6000
6000
3800
0c00
0600
0300
0000
ENDCHAR
STARTCHAR 0x2431
ENCODING 9265
SWIDTH 886 0
DWIDTH 12 0
BBX 12 13 0 -2
BITMAP
0000
0180
6180
6180
dfe0
c180
c180
c180
c180
c180
6300
6e00
0000
ENDCHAR
STARTCHAR 0x2432
ENCODING 9266
SWIDTH 886 0
DWIDTH 12 0
BBX 12 13 0 -2
BITMAP
0000
01a0
61a0
6180
dfe0
c180
c180
c180
c180
c180
6300
6e00
0000
ENDCHAR
STARTCHAR 0x2433
ENCODING 9267
SWIDTH 886 0
DWIDTH 12 0
BBX 12 13 0 -2
BITMAP
0000
0000
3f80
0000
0000
0000
0000
3000
6000
60c0
3f80
0000
0000
ENDCHAR
STARTCHAR 0x2434
ENCODING 9268
SWIDTH 886 0
DWIDTH 12 0
BBX 12 13 0 -2
BITMAP
0000
01a0
01a0
3f00
0000
0000
0000
3000
6000
60c0
3f80
0000
0000
ENDCHAR
STARTCHAR 0x2435
ENCODING 9269
SWIDTH 886 0
DWIDTH 12 0
BBX 12 13 0 -2
BITMAP
0000
0600
0600
06c0
ff00
0300
0300
3e80
6380
6000
3000
1f00
0000
ENDCHAR
STARTCHAR 0x2436
ENCODING 9270
SWIDTH 886 0
DWIDTH 12 0
BBX 12 13 0 -2
BITMAP
0000
0da0
0da0
0d80
fe00
0300
0300
3e80
6380
6000
3000
1f00
0000
ENDCHAR
STARTCHAR 0x2437
ENCODING 9271
SWIDTH 886 0
DWIDTH 12 0
BBX 12 13 0 -2
BITMAP
0000
0000
1800
1800
1800
3000
3000
3000
30c0
30c0
1980
0f00
0000
ENDCHAR
STARTCHAR 0x2438
ENCODING 9272
SWIDTH 886 0
DWIDTH 12 0
BBX 12 13 0 -2
BITMAP
0000
0000
3000
3340
3340
6000
6000
6000
6180
6180
3300
1e00
0000
ENDCHAR
STARTCHAR 0x2439
ENCODING 9273
SWIDTH 886 0
DWIDTH 12 0
BBX 12 13 0 -2
BITMAP
0000
0600
0600
ffe0
0600
1e00
3600
3600
1e00
0600
0c00
3800
0000
ENDCHAR
STARTCHAR 0x243A
ENCODING 9274
SWIDTH 886 0
DWIDTH 12 0
BBX 12 13 0 -2
BITMAP
0000
06a0
06a0
ff80
0600
1e00
3600
3600
1e00
0600
0c00
3800
0000
ENDCHAR
STARTCHAR 0x243B
ENCODING 9275
SWIDTH 886 0
DWIDTH 12 0
BBX 12 13 0 -2
BITMAP
0000
0180
3180
3180
37e0
fd80
3180
3180
3700
3000
3000
1fc0
0000
ENDCHAR
STARTCHAR 0x243C
ENCODING 9276
SWIDTH 886 0
DWIDTH 12 0
BBX 12 13 0 -2
BITMAP
0000
01a0
61a0
6300
6fc0
fb00
6300
6300
6e00
6000
6000
3f80
0000
ENDCHAR
STARTCHAR 0x243D
ENCODING 9277
SWIDTH 886 0
DWIDTH 12 0
BBX 12 13 0 -2
BITMAP
0000
0000
3f80
0300
0600
0c00
ffc0
0c00
1800
1800
0c00
0780
0000
ENDCHAR
STARTCHAR 0x243E
ENCODING 9278
SWIDTH 886 0
DWIDTH 12 0
BBX 12 13 0 -2
BITMAP
0000
01a0
3fa0
0300
0600
0c00
ffc0
0c00
1800
1800
0c00
0780
0000
ENDCHAR
STARTCHAR 0x243F
ENCODING 9279
SWIDTH 886 0
DWIDTH 12 0
BBX 12 13 0 -2
BITMAP
0000
3000
3000
ff80
3000
37c0
3000
6600
6c00
6c00
c7e0
c000
0000
ENDCHAR
STARTCHAR 0x2440
ENCODING 9280
SWIDTH 886 0
DWIDTH 12 0
BBX 12 13 0 -2
BITMAP
0000
31a0
31a0
ff00
3000
37c0
3000
6600
6c00
6c00
c7e0
c000
0000
ENDCHAR
STARTCHAR 0x2441
ENCODING 9281
SWIDTH 886 0
DWIDTH 12 0
BBX 12 13 0 -2
BITMAP
0000
0c00
0c00
ffc0
1800
1800
3700
3980
00c0
00c0
0180
1f00
0000
ENDCHAR
STARTCHAR 0x2442
ENCODING 9282
SWIDTH 886 0
DWIDTH 12 0
BBX 12 13 0 -2
BITMAP
0000
0da0
0da0
ff80
1800
1800
3700
3980
00c0
00c0
0180
1f00
0000
ENDCHAR
STARTCHAR 0x2443
ENCODING 9283
SWIDTH 886 0
DWIDTH 12 0
BBX 12 13 0 -2
BITMAP
0000
0000
0000
0000
0000
0000
1e00
7300
0180
0180
0300
1e00
0000
ENDCHAR
STARTCHAR 0x2444
ENCODING 9284
SWIDTH 886 0
DWIDTH 12 0
BBX 12 13 0 -2
BITMAP
0000
0000
0000
1f00
f180
00c0
00c0
00c0
0180
0700
3c00
0000
0000
ENDCHAR
STARTCHAR 0x2445
ENCODING 9285
SWIDTH 886 0
DWIDTH 12 0
BBX 12 13 0 -2
BITMAP
01a0
01a0
0000
1f00
f180
00c0
00c0
00c0
0180
0700
3c00
0000
0000
ENDCHAR
STARTCHAR 0x2446
ENCODING 9286
SWIDTH 886 0
DWIDTH 12 0
BBX 12 13 0 -2
BITMAP
0000
0000
0000
1fc0
f600
0c00
1800
1800
1800
1800
0c00
0780
0000
ENDCHAR
STARTCHAR 0x2447
ENCODING 9287
SWIDTH 886 0
DWIDTH 12 0
BBX 12 13 0 -2
BITMAP
0000
0000
0000
1fc0
f600
0da0
19a0
1800
1800
1800
0c00
0780
0000
ENDCHAR
STARTCHAR 0x2448
ENCODING 9288
SWIDTH 886 0
DWIDTH 12 0
BBX 12 13 0 -2
BITMAP
0000
1800
1800
1800
0c00
0f80
1c00
3000
6000
6000
3000
1f80
0000
ENDCHAR
STARTCHAR 0x2449
ENCODING 9289
SWIDTH 886 0
DWIDTH 12 0
BBX 12 13 0 -2
BITMAP
0000
1b40
1b40
1800
0c00
0f80
1c00
3000
6000
6000
3000
1f80
0000
ENDCHAR
STARTCHAR 0x244A
ENCODING 9290
SWIDTH 886 0
DWIDTH 12 0
BBX 12 13 0 -2
BITMAP
0000
3000
31c0
fc60
3000
3180
6180
6180
cf80
d9c0
19a0
0f00
0000
ENDCHAR
STARTCHAR 0x244B
ENCODING 9291
SWIDTH 886 0
DWIDTH 12 0
BBX 12 13 0 -2
BITMAP
0000
0000
6000
67c0
c000
c000
c000
c600
cc00
cc00
67e0
6000
0000
ENDCHAR
STARTCHAR 0x244C
ENCODING 9292
SWIDTH 886 0
DWIDTH 12 0
BBX 12 13 0 -2
BITMAP
0000
0600
0600
6600
6f80
76c0
6660
d460
d460
dba0
76c0
03a0
0000
ENDCHAR
STARTCHAR 0x244D
ENCODING 9293
SWIDTH 886 0
DWIDTH 12 0
BBX 12 13 0 -2
BITMAP
0000
3000
3000
3000
f780
34c0
3860
3060
7060
d3a0
36c0
33a0
0000
ENDCHAR
STARTCHAR 0x244E
ENCODING 9294
SWIDTH 886 0
DWIDTH 12 0
BBX 12 13 0 -2
BITMAP
0000
0000
0000
1f80
34c0
6c60
cc60
d860
d860
70c0
0380
0000
0000
ENDCHAR
STARTCHAR 0x244F
ENCODING 9295
SWIDTH 886 0
DWIDTH 12 0
BBX 12 13 0 -2
BITMAP
0000
0180
6180
6180
dfe0
c180
c180
c180
cf80
d9c0
69a0
6f00
0000
ENDCHAR
STARTCHAR 0x2450
ENCODING 9296
SWIDTH 886 0
DWIDTH 12 0
BBX 12 13 0 -2
BITMAP
0000
06a0
c6a0
c600
bfc0
8300
8300
8300
9f00
b380
d340
de00
0000
ENDCHAR
STARTCHAR 0x2451
ENCODING 9297
SWIDTH 886 0
DWIDTH 12 0
BBX 12 13 0 -2
BITMAP
0000
01c0
c360
c360
bfc0
8300
8300
8300
9f00
b380
d340
de00
0000
ENDCHAR
STARTCHAR 0x2452
ENCODING 9298
SWIDTH 886 0
DWIDTH 12 0
BBX 12 13 0 -2
BITMAP
0000
0000
fb00
1b00
3180
61c0
61a0
c180
c300
c300
6600
3c00
0000
ENDCHAR
STARTCHAR 0x2453
ENCODING 9299
SWIDTH 886 0
DWIDTH 12 0
BBX 12 13 0 -2
BITMAP
0000
01a0
f9a0
1800
3180
61c0
61a0
c180
c300
c300
6600
3c00
0000
ENDCHAR
STARTCHAR 0x2454
ENCODING 9300
SWIDTH 886 0
DWIDTH 12 0
BBX 12 13 0 -2
BITMAP
0000
01c0
fb60
1b60
31c0
61a0
6180
c180
c300
c300
6600
3c00
0000
ENDCHAR
STARTCHAR 0x2455
ENCODING 9301
SWIDTH 886 0
DWIDTH 12 0
BBX 12 13 0 -2
BITMAP
0000
0000
1c00
0700
0000
0c00
0c00
6cc0
66c0
c660
c660
1c00
0000
ENDCHAR
STARTCHAR 0x2456
ENCODING 9302
SWIDTH 886 0
DWIDTH 12 0
BBX 12 13 0 -2
BITMAP
0000
01a0
1da0
0700
0000
0c00
0c00
6cc0
66c0
c660
c660
1c00
0000
ENDCHAR
STARTCHAR 0x2457
ENCODING 9303
SWIDTH 886 0
DWIDTH 12 0
BBX 12 13 0 -2
BITMAP
0000
01c0
1d60
0760
01c0
0c00
0c00
6cc0
66c0
c660
c660
1c00
0000
ENDCHAR
STARTCHAR 0x2458
ENCODING 9304
SWIDTH 886 0
DWIDTH 12 0
BBX 12 13 0 -2
BITMAP
0000
0000
0000
0000
0000
7800
cc00
8600
0380
00e0
0000
0000
0000
ENDCHAR
STARTCHAR 0x2459
ENCODING 9305
SWIDTH 886 0
DWIDTH 12 0
BBX 12 13 0 -2
BITMAP
0000
0000
0680
0680
0000
7800
cc00
8600
0380
00e0
0000
0000
0000
ENDCHAR
STARTCHAR 0x245A
ENCODING 9306
SWIDTH 886 0
DWIDTH 12 0
BBX 12 13 0 -2
BITMAP
0000
0000
0380
06c0
06c0
7b80
cc00
8600
0380
00e0
0000
0000
0000
ENDCHAR
STARTCHAR 0x245B
ENCODING 9307
SWIDTH 886 0
DWIDTH 12 0
BBX 12 13 0 -2
BITMAP
0000
0000
6fe0
6180
c180
dfe0
c180
c180
cf80
d9c0
69a0
6f00
0000
ENDCHAR
STARTCHAR 0x245C
ENCODING 9308
SWIDTH 886 0
DWIDTH 12 0
BBX 12 13 0 -2
BITMAP
0000
01a0
dfa0
c300
8300
bfc0
8300
8300
9f00
b380
d340
de00
0000
ENDCHAR
STARTCHAR 0x245D
ENCODING 9309
SWIDTH 886 0
DWIDTH 12 0
BBX 12 13 0 -2
BITMAP
0000
01c0
df60
c360
83c0
bf00
8300
8300
9f00
b380
d340
de00
0000
ENDCHAR
STARTCHAR 0x245E
ENCODING 9310
SWIDTH 886 0
DWIDTH 12 0
BBX 12 13 0 -2
BITMAP
0000
0600
0600
ffc0
0600
7fc0
0600
0600
3e00
6780
66c0
3c00
0000
ENDCHAR
STARTCHAR 0x245F
ENCODING 9311
SWIDTH 886 0
DWIDTH 12 0
BBX 12 13 0 -2
BITMAP
0000
0000
7c00
0d80
0d80
0d80
7f80
d9c0
99a0
b180
e300
0e00
0000
ENDCHAR
STARTCHAR 0x2460
ENCODING 9312
SWIDTH 886 0
DWIDTH 12 0
BBX 12 13 0 -2
BITMAP
0000
1800
1800
fec0
1860
1800
7800
d800
d8c0
78c0
18c0
0f80
0000
ENDCHAR
STARTCHAR 0x2461
ENCODING 9313
SWIDTH 886 0
DWIDTH 12 0
BBX 12 13 0 -2
BITMAP
0000
0600
0600
6600
6f80
36c0
7660
d460
dc60
d860
70c0
0380
0000
ENDCHAR
STARTCHAR 0x2462
ENCODING 9314
SWIDTH 886 0
DWIDTH 12 0
BBX 12 13 0 -2
BITMAP
0000
1800
1800
ff80
1800
1800
ff80
3000
30c0
30c0
1980
0f00
0000
ENDCHAR
STARTCHAR 0x2463
ENCODING 9315
SWIDTH 886 0
DWIDTH 12 0
BBX 12 13 0 -2
BITMAP
0000
0000
0000
0000
0600
3600
3700
7a80
1980
1b00
0c00
0c00
0000
ENDCHAR
STARTCHAR 0x2464
ENCODING 9316
SWIDTH 886 0
DWIDTH 12 0
BBX 12 13 0 -2
BITMAP
0000
0300
3300
33c0
3e60
e860
1860
0dc0
0c00
0c00
0600
0600
0000
ENDCHAR
STARTCHAR 0x2465
ENCODING 9317
SWIDTH 886 0
DWIDTH 12 0
BBX 12 13 0 -2
BITMAP
0000
0000
0000
0000
0600
6600
6f80
6b40
7340
3780
3300
0600
0000
ENDCHAR
STARTCHAR 0x2466
ENCODING 9318
SWIDTH 886 0
DWIDTH 12 0
BBX 12 13 0 -2
BITMAP
0000
0300
0300
cfc0
db60
d360
d360
6360
6fc0
6300
0300
0e00
0000
ENDCHAR
STARTCHAR 0x2467
ENCODING 9319
SWIDTH 886 0
DWIDTH 12 0
BBX 12 13 0 -2
BITMAP
0000
0000
0000
0000
0600
0600
0780
0600
1e00
3700
3680
1c00
0000
ENDCHAR
STARTCHAR 0x2468
ENCODING 9320
SWIDTH 886 0
DWIDTH 12 0
BBX 12 13 0 -2
BITMAP
0000
0c00
0c00
0c00
0f80
0c00
0c00
0c00
7c00
cf00
cd80
7800
0000
ENDCHAR
STARTCHAR 0x2469
ENCODING 9321
SWIDTH 886 0
DWIDTH 12 0
BBX 12 13 0 -2
BITMAP
0000
1c00
0700
6000
6000
6000
6f00
7980
00c0
00c0
0380
1e00
0000
ENDCHAR
STARTCHAR 0x246A
ENCODING 9322
SWIDTH 886 0
DWIDTH 12 0
BBX 12 13 0 -2
BITMAP
0000
0000
3180
3180
3180
3180
3180
3580
1980
0180
0300
0e00
0000
ENDCHAR
STARTCHAR 0x246B
ENCODING 9323
SWIDTH 886 0
DWIDTH 12 0
BBX 12 13 0 -2
BITMAP
0000
0000
3f80
0300
0600
0f00
3980
60c0
1cc0
36c0
3680
1f00
0000
ENDCHAR
STARTCHAR 0x246C
ENCODING 9324
SWIDTH 886 0
DWIDTH 12 0
BBX 12 13 0 -2
BITMAP
0000
3000
3000
3000
f780
34c0
38c0
30c0
7180
d180
3180
30e0
0000
ENDCHAR
STARTCHAR 0x246D
ENCODING 9325
SWIDTH 886 0
DWIDTH 12 0
BBX 12 13 0 -2
BITMAP
0000
0000
3f80
0300
0600
0f00
3980
60c0
00c0
00c0
0380
1e00
0000
ENDCHAR
STARTCHAR 0x246E
ENCODING 9326
SWIDTH 886 0
DWIDTH 12 0
BBX 12 13 0 -2
BITMAP
0000
0000
0000
0000
1800
1800
7b00
1d80
1980
3980
6980
1b00
0000
ENDCHAR
STARTCHAR 0x246F
ENCODING 9327
SWIDTH 886 0
DWIDTH 12 0
BBX 12 13 0 -2
BITMAP
0000
3000
3000
3000
f780
34c0
3860
3060
7060
d060
30c0
3380
0000
ENDCHAR
STARTCHAR 0x2470
ENCODING 9328
SWIDTH 886 0
DWIDTH 12 0
BBX 12 13 0 -2
BITMAP
0000
0000
7e00
0600
0780
3cc0
6c60
cc60
d9e0
db60
7360
01c0
0000
ENDCHAR
STARTCHAR 0x2471
ENCODING 9329
SWIDTH 886 0
DWIDTH 12 0
BBX 12 13 0 -2
BITMAP
0000
3f00
0600
0c00
1f00
3180
0e80
1b00
1e00
3000
7bc0
ce60
0000
ENDCHAR
STARTCHAR 0x2472
ENCODING 9330
SWIDTH 886 0
DWIDTH 12 0
BBX 12 13 0 -2
BITMAP
0000
1800
1800
ff80
3000
3800
6dc0
cf00
da00
3600
3000
1f80
0000
ENDCHAR
STARTCHAR 0x2473
ENCODING 9331
SWIDTH 886 0
DWIDTH 12 0
BBX 12 13 0 -2
BITMAP
0000
0000
0c00
0c00
1800
1800
3600
3b00
3300
6360
6360
61c0
0000
ENDCHAR
STARTCHAR 0x2474
ENCODING 9332
SWIDTH 886 0
DWIDTH 12 0
BBX 12 13 0 -2
BITMAP
0000
7340
1d40
0000
3c00
e600
0300
0300
0300
0600
1c00
7000
0000
ENDCHAR
STARTCHAR 0x2521
ENCODING 9505
SWIDTH 886 0
DWIDTH 12 0
BBX 12 13 0 -2
BITMAP
0000
0000
0000
0000
0000
7f80
0180
0d80
0d00
0c00
1800
3000
0000
ENDCHAR
STARTCHAR 0x2522
ENCODING 9506
SWIDTH 886 0
DWIDTH 12 0
BBX 12 13 0 -2
BITMAP
0000
0000
ffe0
0060
00c0
0d80
0c00
0c00
0c00
0c00
1800
7000
0000
ENDCHAR
STARTCHAR 0x2523
ENCODING 9507
SWIDTH 886 0
DWIDTH 12 0
BBX 12 13 0 -2
BITMAP
0000
0000
0000
0000
0000
0180
0300
0e00
3a00
0600
0600
0600
0000
ENDCHAR
STARTCHAR 0x2524
ENCODING 9508
SWIDTH 886 0
DWIDTH 12 0
BBX 12 13 0 -2
BITMAP
0000
0000
00c0
0180
0300
0e00
3a00
e600
0600
0600
0600
0600
0000
ENDCHAR
STARTCHAR 0x2525
ENCODING 9509
SWIDTH 886 0
DWIDTH 12 0
BBX 12 13 0 -2
BITMAP
0000
0000
0000
0000
0c00
0c00
7f80
6180
6180
0180
0300
1e00
0000
ENDCHAR
STARTCHAR 0x2526
ENCODING 9510
SWIDTH 886 0
DWIDTH 12 0
BBX 12 13 0 -2
BITMAP
0000
0c00
0c00
ffc0
c0c0
c0c0
c0c0
0180
0180
0300
0e00
3800
0000
ENDCHAR
STARTCHAR 0x2527
ENCODING 9511
SWIDTH 886 0
DWIDTH 12 0
BBX 12 13 0 -2
BITMAP
0000
0000
0000
0000
0000
7f80
0c00
0c00
0c00
0c00
7f80
0000
0000
ENDCHAR
STARTCHAR 0x2528
ENCODING 9512
SWIDTH 886 0
DWIDTH 12 0
BBX 12 13 0 -2
BITMAP
0000
0000
0000
ffc0
0c00
0c00
0c00
0c00
0c00
0c00
ffe0
0000
0000
ENDCHAR
STARTCHAR 0x2529
ENCODING 9513
SWIDTH 886 0
DWIDTH 12 0
BBX 12 13 0 -2
BITMAP
0000
0000
0000
0000
0600
0600
7f80
0600
0e00
1a00
7600
0e00
0000
ENDCHAR
STARTCHAR 0x252A
ENCODING 9514
SWIDTH 886 0
DWIDTH 12 0
BBX 12 13 0 -2
BITMAP
0000
0300
0300
0300
ffe0
0300
0700
0d00
3b00
e300
0300
0f00
0000
ENDCHAR
STARTCHAR 0x252B
ENCODING 9515
SWIDTH 886 0
DWIDTH 12 0
BBX 12 13 0 -2
BITMAP
0000
0c00
0c00
0c00
ffe0
0c60
0c60
0c60
1860
1860
3060
e3c0
0000
ENDCHAR
STARTCHAR 0x252C
ENCODING 9516
SWIDTH 886 0
DWIDTH 12 0
BBX 12 13 0 -2
BITMAP
0000
0da0
0da0
0c00
ffe0
0c60
0c60
0c60
1860
1860
3060
e3c0
0000
ENDCHAR
STARTCHAR 0x252D
ENCODING 9517
SWIDTH 886 0
DWIDTH 12 0
BBX 12 13 0 -2
BITMAP
0000
1800
1800
1800
ffc0
0c00
0c00
0c00
ffe0
0600
0600
0600
0000
ENDCHAR
STARTCHAR 0x252E
ENCODING 9518
SWIDTH 886 0
DWIDTH 12 0
BBX 12 13 0 -2
BITMAP
0000
19a0
19a0
1800
ffc0
0c00
0c00
0c00
ffe0
0600
0600
0600
0000
ENDCHAR
STARTCHAR 0x252F
ENCODING 9519
SWIDTH 886 0
DWIDTH 12 0
BBX 12 13 0 -2
BITMAP
0000
0c00
0c00
0fc0
18c0
30c0
60c0
0180
0180
0300
0e00
7800
0000
ENDCHAR
STARTCHAR 0x2530
ENCODING 9520
SWIDTH 886 0
DWIDTH 12 0
BBX 12 13 0 -2
BITMAP
01a0
0da0
0c00
0fc0
18c0
30c0
60c0
0180
0180
0300
0e00
7800
0000
ENDCHAR
STARTCHAR 0x2531
ENCODING 9521
SWIDTH 886 0
DWIDTH 12 0
BBX 12 13 0 -2
BITMAP
0000
3000
3000
3000
3fe0
6300
c300
0300
0600
0600
1c00
7000
0000
ENDCHAR
STARTCHAR 0x2532
ENCODING 9522
SWIDTH 886 0
DWIDTH 12 0
BBX 12 13 0 -2
BITMAP
0000
61a0
61a0
6000
7fc0
c600
8600
0600
0c00
0c00
3800
e000
0000
ENDCHAR
STARTCHAR 0x2533
ENCODING 9523
SWIDTH 886 0
DWIDTH 12 0
BBX 12 13 0 -2
BITMAP
0000
0000
0000
ffc0
00c0
00c0
00c0
00c0
00c0
00c0
ffc0
00c0
0000
ENDCHAR
STARTCHAR 0x2534
ENCODING 9524
SWIDTH 886 0
DWIDTH 12 0
BBX 12 13 0 -2
BITMAP
01a0
01a0
0000
ffc0
00c0
00c0
00c0
00c0
00c0
00c0
ffc0
00c0
0000
ENDCHAR
STARTCHAR 0x2535
ENCODING 9525
SWIDTH 886 0
DWIDTH 12 0
BBX 12 13 0 -2
BITMAP
0000
3180
3180
3180
ffe0
3180
3180
3180
0300
0300
0e00
3800
0000
ENDCHAR
STARTCHAR 0x2536
ENCODING 9526
SWIDTH 886 0
DWIDTH 12 0
BBX 12 13 0 -2
BITMAP
01a0
63a0
6300
6300
ffc0
6300
6300
6300
0600
0600
1c00
7000
0000
ENDCHAR
STARTCHAR 0x2537
ENCODING 9527
SWIDTH 886 0
DWIDTH 12 0
BBX 12 13 0 -2
BITMAP
0000
0000
7000
1c00
0060
e060
38c0
00c0
0180
0300
0e00
7800
0000
ENDCHAR
STARTCHAR 0x2538
ENCODING 9528
SWIDTH 886 0
DWIDTH 12 0
BBX 12 13 0 -2
BITMAP
0000
01a0
e1a0
3800
00c0
c0c0
7180
0180
0300
0600
1c00
f000
0000
ENDCHAR
STARTCHAR 0x2539
ENCODING 9529
SWIDTH 886 0
DWIDTH 12 0
BBX 12 13 0 -2
BITMAP
0000
0000
7f80
0180
0180
0180
0300
0300
0700
0d80
38c0
e060
0000
ENDCHAR
STARTCHAR 0x253A
ENCODING 9530
SWIDTH 886 0
DWIDTH 12 0
BBX 12 13 0 -2
BITMAP
01a0
01a0
ff00
0300
0300
0300
0600
0600
0e00
1b00
7180
c0c0
0000
ENDCHAR
STARTCHAR 0x253B
ENCODING 9531
SWIDTH 886 0
DWIDTH 12 0
BBX 12 13 0 -2
BITMAP
0000
3000
3000
3000
33c0
3ec0
f180
3180
3300
3000
3000
1fc0
0000
ENDCHAR
STARTCHAR 0x253C
ENCODING 9532
SWIDTH 886 0
DWIDTH 12 0
BBX 12 13 0 -2
BITMAP
0000
31a0
31a0
3000
33c0
3ec0
f180
3180
3300
3000
3000
1fc0
0000
ENDCHAR
STARTCHAR 0x253D
ENCODING 9533
SWIDTH 886 0
DWIDTH 12 0
BBX 12 13 0 -2
BITMAP
0000
0000
c0c0
c0c0
60c0
60c0
00c0
0180
0180
0300
0e00
3800
0000
ENDCHAR
STARTCHAR 0x253E
ENCODING 9534
SWIDTH 886 0
DWIDTH 12 0
BBX 12 13 0 -2
BITMAP
0000
01a0
81a0
8000
c180
c180
0180
0300
0300
0600
1c00
7000
0000
ENDCHAR
STARTCHAR 0x253F
ENCODING 9535
SWIDTH 886 0
DWIDTH 12 0
BBX 12 13 0 -2
BITMAP
0000
0c00
0c00
0fc0
18c0
34c0
66c0
0380
0180
0300
0e00
7800
0000
ENDCHAR
STARTCHAR 0x2540
ENCODING 9536
SWIDTH 886 0
DWIDTH 12 0
BBX 12 13 0 -2
BITMAP
01a0
0da0
0c00
0fc0
18c0
34c0
66c0
0380
0180
0300
0e00
7800
0000
ENDCHAR
STARTCHAR 0x2541
ENCODING 9537
SWIDTH 886 0
DWIDTH 12 0
BBX 12 13 0 -2
BITMAP
0000
0000
ffc0
0c00
0c00
0c00
ffe0
0c00
0c00
0c00
1800
7000
0000
ENDCHAR
STARTCHAR 0x2542
ENCODING 9538
SWIDTH 886 0
DWIDTH 12 0
BBX 12 13 0 -2
BITMAP
01a0
01a0
ff80
0c00
0c00
0c00
ffe0
0c00
0c00
0c00
1800
7000
0000
ENDCHAR
STARTCHAR 0x2543
ENCODING 9539
SWIDTH 886 0
DWIDTH 12 0
BBX 12 13 0 -2
BITMAP
0000
0000
0000
0000
0000
6d80
6d80
6d80
0300
0300
0e00
3800
0000
ENDCHAR
STARTCHAR 0x2544
ENCODING 9540
SWIDTH 886 0
DWIDTH 12 0
BBX 12 13 0 -2
BITMAP
0000
0000
d8c0
d8c0
d8c0
d8c0
00c0
0180
0180
0300
0e00
3800
0000
ENDCHAR
STARTCHAR 0x2545
ENCODING 9541
SWIDTH 886 0
DWIDTH 12 0
BBX 12 13 0 -2
BITMAP
0000
01a0
d9a0
d800
d8c0
d8c0
00c0
0180
0180
0300
0e00
3800
0000
ENDCHAR
STARTCHAR 0x2546
ENCODING 9542
SWIDTH 886 0
DWIDTH 12 0
BBX 12 13 0 -2
BITMAP
0000
0000
7fc0
0000
0000
ffe0
0600
0600
0600
0600
0c00
3800
0000
ENDCHAR
STARTCHAR 0x2547
ENCODING 9543
SWIDTH 886 0
DWIDTH 12 0
BBX 12 13 0 -2
BITMAP
01a0
01a0
ff80
0000
0000
ffc0
0c00
0c00
0c00
0c00
1800
7000
0000
ENDCHAR
STARTCHAR 0x2548
ENCODING 9544
SWIDTH 886 0
DWIDTH 12 0
BBX 12 13 0 -2
BITMAP
0000
3000
3000
3000
3000
3c00
3700
31c0
3000
3000
3000
3000
0000
ENDCHAR
STARTCHAR 0x2549
ENCODING 9545
SWIDTH 886 0
DWIDTH 12 0
BBX 12 13 0 -2
BITMAP
0000
3340
3340
3000
3000
3c00
3700
31c0
3000
3000
3000
3000
0000
ENDCHAR
STARTCHAR 0x254A
ENCODING 9546
SWIDTH 886 0
DWIDTH 12 0
BBX 12 13 0 -2
BITMAP
0000
0600
0600
0600
ffe0
0600
0600
0600
0c00
0c00
1800
7000
0000
ENDCHAR
STARTCHAR 0x254B
ENCODING 9547
SWIDTH 886 0
DWIDTH 12 0
BBX 12 13 0 -2
BITMAP
0000
0000
0000
7fc0
0000
0000
0000
0000
0000
0000
ffe0
0000
0000
ENDCHAR
STARTCHAR 0x254C
ENCODING 9548
SWIDTH 886 0
DWIDTH 12 0
BBX 12 13 0 -2
BITMAP
0000
0000
7fc0
00c0
00c0
1980
0d80
0700
0300
0680
1cc0
f000
0000
ENDCHAR
STARTCHAR 0x254D
ENCODING 9549
SWIDTH 886 0
DWIDTH 12 0
BBX 12 13 0 -2
BITMAP
0000
0c00
0c00
ff80
0180
0300
0600
0e00
3d80
ece0
0c00
0c00
0000
ENDCHAR
STARTCHAR 0x254E
ENCODING 9550
SWIDTH 886 0
DWIDTH 12 0
BBX 12 13 0 -2
BITMAP
0000
0000
0180
0180
0180
0180
0180
0300
0300
0600
1c00
7000
0000
ENDCHAR
STARTCHAR 0x254F
ENCODING 9551
SWIDTH 886 0
DWIDTH 12 0
BBX 12 13 0 -2
BITMAP
0000
0000
3000
3180
3180
30c0
60c0
60c0
6060
c060
c060
c060
0000
ENDCHAR
STARTCHAR 0x2550
ENCODING 9552
SWIDTH 886 0
DWIDTH 12 0
BBX 12 13 0 -2
BITMAP
0000
01a0
01a0
3000
3000
3180
3180
60c0
60c0
6060
c060
c060
0000
ENDCHAR
STARTCHAR 0x2551
ENCODING 9553
SWIDTH 886 0
DWIDTH 12 0
BBX 12 13 0 -2
BITMAP
0000
01c0
0360
3360
31c0
3000
3180
6180
60c0
60c0
c060
c060
0000
ENDCHAR
STARTCHAR 0x2552
ENCODING 9554
SWIDTH 886 0
DWIDTH 12 0
BBX 12 13 0 -2
BITMAP
0000
6000
6000
6000
63c0
7e00
6000
6000
6000
6000
6000
3fc0
0000
ENDCHAR
STARTCHAR 0x2553
ENCODING 9555
SWIDTH 886 0
DWIDTH 12 0
BBX 12 13 0 -2
BITMAP
0000
01a0
61a0
6000
6000
63c0
7e00
6000
6000
6000
6000
3fc0
0000
ENDCHAR
STARTCHAR 0x2554
ENCODING 9556
SWIDTH 886 0
DWIDTH 12 0
BBX 12 13 0 -2
BITMAP
0000
01c0
c360
c360
c1c0
ce00
f800
c000
c000
c000
c000
7f80
0000
ENDCHAR
STARTCHAR 0x2555
ENCODING 9557
SWIDTH 886 0
DWIDTH 12 0
BBX 12 13 0 -2
BITMAP
0000
0000
ffc0
00c0
00c0
00c0
00c0
0180
0180
0300
0e00
7800
0000
ENDCHAR
STARTCHAR 0x2556
ENCODING 9558
SWIDTH 886 0
DWIDTH 12 0
BBX 12 13 0 -2
BITMAP
01a0
01a0
0000
ff80
0180
0180
0180
0300
0300
0600
1c00
7000
0000
ENDCHAR
STARTCHAR 0x2557
ENCODING 9559
SWIDTH 886 0
DWIDTH 12 0
BBX 12 13 0 -2
BITMAP
0000
01c0
0360
ff60
01c0
0180
0180
0300
0300
0600
1c00
7000
0000
ENDCHAR
STARTCHAR 0x2558
ENCODING 9560
SWIDTH 886 0
DWIDTH 12 0
BBX 12 13 0 -2
BITMAP
0000
0000
0000
0000
3c00
6600
c300
8180
00c0
0060
0000
0000
0000
ENDCHAR
STARTCHAR 0x2559
ENCODING 9561
SWIDTH 886 0
DWIDTH 12 0
BBX 12 13 0 -2
BITMAP
0000
0000
01a0
01a0
0000
3c00
6600
c300
8180
00c0
0060
0000
0000
ENDCHAR
STARTCHAR 0x255A
ENCODING 9562
SWIDTH 886 0
DWIDTH 12 0
BBX 12 13 0 -2
BITMAP
0000
01c0
0360
0360
01c0
3c00
6600
c300
8180
00c0
0060
0000
0000
ENDCHAR
STARTCHAR 0x255B
ENCODING 9563
SWIDTH 886 0
DWIDTH 12 0
BBX 12 13 0 -2
BITMAP
0000
0c00
0c00
0c00
ffe0
0c00
0c00
6d80
ccc0
8c60
0c00
1c00
0000
ENDCHAR
STARTCHAR 0x255C
ENCODING 9564
SWIDTH 886 0
DWIDTH 12 0
BBX 12 13 0 -2
BITMAP
01a0
0da0
0c00
0c00
ffe0
0c00
0c00
6d80
ccc0
8c60
0c00
1c00
0000
ENDCHAR
STARTCHAR 0x255D
ENCODING 9565
SWIDTH 886 0
DWIDTH 12 0
BBX 12 13 0 -2
BITMAP
0000
0dc0
0d60
0d60
ffc0
0c00
0c00
6d80
ccc0
8c60
0c00
1c00
0000
ENDCHAR
STARTCHAR 0x255E
ENCODING 9566
SWIDTH 886 0
DWIDTH 12 0
BBX 12 13 0 -2
BITMAP
0000
0000
0000
ffe0
0060
00c0
0180
3300
1a00
0c00
0600
0300
0000
ENDCHAR
STARTCHAR 0x255F
ENCODING 9567
SWIDTH 886 0
DWIDTH 12 0
BBX 12 13 0 -2
BITMAP
0000
0000
3c00
0780
0000
0000
3c00
0700
0000
0000
7c00
0780
0000
ENDCHAR
STARTCHAR 0x2560
ENCODING 9568
SWIDTH 886 0
DWIDTH 12 0
BBX 12 13 0 -2
BITMAP
0000
1800
1800
1800
1800
3000
3180
3180
6180
6f40
f8c0
00c0
0000
ENDCHAR
STARTCHAR 0x2561
ENCODING 9569
SWIDTH 886 0
DWIDTH 12 0
BBX 12 13 0 -2
BITMAP
0000
0300
0300
0300
0300
7300
1e00
0780
06e0
0c00
3800
e000
0000
ENDCHAR
STARTCHAR 0x2562
ENCODING 9570
SWIDTH 886 0
DWIDTH 12 0
BBX 12 13 0 -2
BITMAP
0000
0000
ff80
1800
1800
1800
ffe0
1800
1800
1800
1800
0f80
0000
ENDCHAR
STARTCHAR 0x2563
ENCODING 9571
SWIDTH 886 0
DWIDTH 12 0
BBX 12 13 0 -2
BITMAP
0000
0000
0000
0000
1800
1800
1b80
7d80
1b00
0d00
0c00
0c00
0000
ENDCHAR
STARTCHAR 0x2564
ENCODING 9572
SWIDTH 886 0
DWIDTH 12 0
BBX 12 13 0 -2
BITMAP
0000
3000
3000
33c0
3ec0
e8c0
1980
1980
1800
0c00
0c00
0c00
0000
ENDCHAR
STARTCHAR 0x2565
ENCODING 9573
SWIDTH 886 0
DWIDTH 12 0
BBX 12 13 0 -2
BITMAP
0000
0000
0000
0000
0000
7e00
0600
0600
0600
0600
ff80
0000
0000
ENDCHAR
STARTCHAR 0x2566
ENCODING 9574
SWIDTH 886 0
DWIDTH 12 0
BBX 12 13 0 -2
BITMAP
0000
0000
0000
7f00
0300
0300
0300
0300
0300
0300
ffe0
0000
0000
ENDCHAR
STARTCHAR 0x2567
ENCODING 9575
SWIDTH 886 0
DWIDTH 12 0
BBX 12 13 0 -2
BITMAP
0000
0000
0000
0000
0000
3f80
0180
0180
3f80
0180
0180
3f80
0000
ENDCHAR
STARTCHAR 0x2568
ENCODING 9576
SWIDTH 886 0
DWIDTH 12 0
BBX 12 13 0 -2
BITMAP
0000
0000
7fc0
00c0
00c0
00c0
7fc0
00c0
00c0
00c0
7fc0
00c0
0000
ENDCHAR
STARTCHAR 0x2569
ENCODING 9577
SWIDTH 886 0
DWIDTH 12 0
BBX 12 13 0 -2
BITMAP
0000
0000
7f80
0000
0000
ffc0
00c0
00c0
0180
0300
0e00
3800
0000
ENDCHAR
STARTCHAR 0x256A
ENCODING 9578
SWIDTH 886 0
DWIDTH 12 0
BBX 12 13 0 -2
BITMAP
0000
6180
6180
6180
6180
6180
6180
0180
0300
0300
0600
1c00
0000
ENDCHAR
STARTCHAR 0x256B
ENCODING 9579
SWIDTH 886 0
DWIDTH 12 0
BBX 12 13 0 -2
BITMAP
0000
0600
3600
3600
3600
3600
3660
3660
66c0
66c0
c680
c700
0000
ENDCHAR
STARTCHAR 0x256C
ENCODING 9580
SWIDTH 886 0
DWIDTH 12 0
BBX 12 13 0 -2
BITMAP
0000
0000
6000
6000
6000
6000
6000
60c0
6180
6300
6e00
7800
0000
ENDCHAR
STARTCHAR 0x256D
ENCODING 9581
SWIDTH 886 0
DWIDTH 12 0
BBX 12 13 0 -2
BITMAP
0000
0000
0000
ffc0
c0c0
c0c0
c0c0
c0c0
c0c0
c0c0
ffc0
c0c0
0000
ENDCHAR
STARTCHAR 0x256E
ENCODING 9582
SWIDTH 886 0
DWIDTH 12 0
BBX 12 13 0 -2
BITMAP
0000
0000
0000
0000
0000
7f80
6180
6180
0180
0180
0300
1e00
0000
ENDCHAR
STARTCHAR 0x256F
ENCODING 9583
SWIDTH 886 0
DWIDTH 12 0
BBX 12 13 0 -2
BITMAP
0000
0000
ffc0
c0c0
c0c0
c0c0
00c0
0180
0180
0300
0e00
3800
0000
ENDCHAR
STARTCHAR 0x2570
ENCODING 9584
SWIDTH 886 0
DWIDTH 12 0
BBX 12 13 0 -2
BITMAP
0000
0300
0300
0300
7fc0
3300
3300
3300
ffe0
0300
0300
0300
0000
ENDCHAR
STARTCHAR 0x2571
ENCODING 9585
SWIDTH 886 0
DWIDTH 12 0
BBX 12 13 0 -2
BITMAP
0000
0000
0000
7fc0
0180
0300
0e00
0c00
0c00
0c00
ffe0
0000
0000
ENDCHAR
STARTCHAR 0x2572
ENCODING 9586
SWIDTH 886 0
DWIDTH 12 0
BBX 12 13 0 -2
BITMAP
0000
0000
7fc0
00c0
00c0
7fc0
00c0
0180
0180
0300
0e00
3800
0000
ENDCHAR
STARTCHAR 0x2573
ENCODING 9587
SWIDTH 886 0
DWIDTH 12 0
BBX 12 13 0 -2
BITMAP
0000
0000
7000
1c00
0060
0060
00c0
00c0
0180
0300
0e00
7800
0000
ENDCHAR
STARTCHAR 0x2574
ENCODING 9588
SWIDTH 886 0
DWIDTH 12 0
BBX 12 13 0 -2
BITMAP
01a0
0da0
0c00
ffc0
c0c0
c0c0
c0c0
0180
0180
0300
0e00
3800
0000
ENDCHAR
STARTCHAR 0x2575
ENCODING 9589
SWIDTH 886 0
DWIDTH 12 0
BBX 12 13 0 -2
BITMAP
0000
0000
0000
0000
1800
1800
7f80
1980
1980
1980
3180
3700
0000
ENDCHAR
STARTCHAR 0x2576
ENCODING 9590
SWIDTH 886 0
DWIDTH 12 0
BBX 12 13 0 -2
BITMAP
0000
0000
0000
0000
3000
3000
3f80
6600
6600
0600
0c00
3800
0000
ENDCHAR
STARTCHAR 0x2621
ENCODING 9761
SWIDTH 886 0
DWIDTH 12 0
BBX 12 13 0 -2
BITMAP
0000
3c00
0c00
1a00
1a00
3300
3300
3f00
6180
6180
f3e0
0000
0000
ENDCHAR
STARTCHAR 0x2622
ENCODING 9762
SWIDTH 886 0
DWIDTH 12 0
BBX 12 13 0 -2
BITMAP
0000
ff00
3180
3180
3180
3f00
3180
30c0
30c0
3180
ff00
0000
0000
ENDCHAR
STARTCHAR 0x2623
ENCODING 9763
SWIDTH 886 0
DWIDTH 12 0
BBX 12 13 0 -2
BITMAP
0000
7fc0
18c0
18c0
1800
1800
1800
1800
1800
1800
7e00
0000
0000
ENDCHAR
STARTCHAR 0x2624
ENCODING 9764
SWIDTH 886 0
DWIDTH 12 0
BBX 12 13 0 -2
BITMAP
0000
0c00
0c00
1a00
1a00
3300
3300
6180
6180
c0c0
ffc0
0000
0000
ENDCHAR
STARTCHAR 0x2625
ENCODING 9765
SWIDTH 886 0
DWIDTH 12 0
BBX 12 13 0 -2
BITMAP
0000
7fc0
18c0
1800
1b00
1f00
1b00
1800
18c0
18c0
7fc0
0000
0000
ENDCHAR
STARTCHAR 0x2626
ENCODING 9766
SWIDTH 886 0
DWIDTH 12 0
BBX 12 13 0 -2
BITMAP
0000
7f80
6180
6300
0600
0c00
1800
3000
6180
6180
7f80
0000
0000
ENDCHAR
STARTCHAR 0x2627
ENCODING 9767
SWIDTH 886 0
DWIDTH 12 0
BBX 12 13 0 -2
BITMAP
0000
fbe0
3180
3180
3180
3f80
3180
3180
3180
3180
fbe0
0000
0000
ENDCHAR
STARTCHAR 0x2628
ENCODING 9768
SWIDTH 886 0
DWIDTH 12 0
BBX 12 13 0 -2
BITMAP
0000
3f80
60c0
c060
d1a0
dfa0
d1a0
c060
c060
60c0
3f80
0000
0000
ENDCHAR
STARTCHAR 0x2629
ENCODING 9769
SWIDTH 886 0
DWIDTH 12 0
BBX 12 13 0 -2
BITMAP
0000
3f00
0c00
0c00
0c00
0c00
0c00
0c00
0c00
0c00
3f00
0000
0000
ENDCHAR
STARTCHAR 0x262A
ENCODING 9770
SWIDTH 886 0
DWIDTH 12 0
BBX 12 13 0 -2
BITMAP
0000
fbe0
3180
3300
3600
3400
3c00
3600
3300
3180
fbe0
0000
0000
ENDCHAR
STARTCHAR 0x262B
ENCODING 9771
SWIDTH 886 0
DWIDTH 12 0
BBX 12 13 0 -2
BITMAP
0000
3c00
0c00
1a00
1a00
3300
3300
3300
6180
6180
f3e0
0000
0000
ENDCHAR
STARTCHAR 0x262C
ENCODING 9772
SWIDTH 886 0
DWIDTH 12 0
BBX 12 13 0 -2
BITMAP
0000
f3e0
7380
7380
6a80
6a80
6a80
6d80
6d80
6d80
f3e0
0000
0000
ENDCHAR
STARTCHAR 0x262D
ENCODING 9773
SWIDTH 886 0
DWIDTH 12 0
BBX 12 13 0 -2
BITMAP
0000
fbe0
3980
3580
3580
3680
3680
3380
3380
3180
f980
0000
0000
ENDCHAR
STARTCHAR 0x262E
ENCODING 9774
SWIDTH 886 0
DWIDTH 12 0
BBX 12 13 0 -2
BITMAP
0000
3fe0
60c0
0000
3180
3f00
6300
0000
c180
8300
ff00
0000
0000
ENDCHAR
STARTCHAR 0x262F
ENCODING 9775
SWIDTH 886 0
DWIDTH 12 0
BBX 12 13 0 -2
BITMAP
0000
3f00
6180
c0c0
c0c0
c0c0
c0c0
c0c0
c0c0
6180
3f00
0000
0000
ENDCHAR
STARTCHAR 0x2630
ENCODING 9776
SWIDTH 886 0
DWIDTH 12 0
BBX 12 13 0 -2
BITMAP
0000
7fc0
3180
3180
3180
3180
3180
3180
3180
3180
fbe0
0000
0000
ENDCHAR
STARTCHAR 0x2631
ENCODING 9777
SWIDTH 886 0
DWIDTH 12 0
BBX 12 13 0 -2
BITMAP
0000
ff00
3180
30c0
30c0
3180
3f00
3000
3000
3000
f800
0000
0000
ENDCHAR
STARTCHAR 0x2632
ENCODING 9778
SWIDTH 886 0
DWIDTH 12 0
BBX 12 13 0 -2
BITMAP
0180
7f80
3180
1980
0c00
0600
0c00
1800
3180
6180
7f80
0180
0000
ENDCHAR
STARTCHAR 0x2633
ENCODING 9779
SWIDTH 886 0
DWIDTH 12 0
BBX 12 13 0 -2
BITMAP
0000
ffc0
ccc0
ccc0
0c00
0c00
0c00
0c00
0c00
0c00
3f00
0000
0000
ENDCHAR
STARTCHAR 0x2634
ENCODING 9780
SWIDTH 886 0
DWIDTH 12 0
BBX 12 13 0 -2
BITMAP
0000
7380
dac0
8c60
0c00
0c00
0c00
0c00
0c00
0c00
3f00
0000
0000
ENDCHAR
STARTCHAR 0x2635
ENCODING 9781
SWIDTH 886 0
DWIDTH 12 0
BBX 12 13 0 -2
BITMAP
0000
3f00
0c00
3f00
6d80
ccc0
ccc0
6d80
3f00
0c00
3f00
0000
0000
ENDCHAR
STARTCHAR 0x2636
ENCODING 9782
SWIDTH 886 0
DWIDTH 12 0
BBX 12 13 0 -2
BITMAP
0000
fbc0
3300
3300
1a00
0c00
0c00
1a00
3300
3300
fbc0
0000
0000
ENDCHAR
STARTCHAR 0x2637
ENCODING 9783
SWIDTH 886 0
DWIDTH 12 0
BBX 12 13 0 -2
BITMAP
0000
3f00
0c00
ccc0
ada0
6d80
6d80
3f00
0c00
0c00
3f00
0000
0000
ENDCHAR
STARTCHAR 0x2638
ENCODING 9784
SWIDTH 886 0
DWIDTH 12 0
BBX 12 13 0 -2
BITMAP
0000
1f00
3180
60c0
60c0
60c0
60c0
3180
1b00
6b40
7bc0
0000
0000
ENDCHAR
STARTCHAR 0x2641
ENCODING 9793
SWIDTH 886 0
DWIDTH 12 0
BBX 12 13 0 -2
BITMAP
0000
0000
0000
0000
1cc0
7680
6300
c300
c600
ce00
7b80
0000
0000
ENDCHAR
STARTCHAR 0x2642
ENCODING 9794
SWIDTH 886 0
DWIDTH 12 0
BBX 12 13 0 -2
BITMAP
0000
0700
0d80
1980
1a80
3300
3180
3180
6980
6f00
6000
6000
0000
ENDCHAR
STARTCHAR 0x2643
ENCODING 9795
SWIDTH 886 0
DWIDTH 12 0
BBX 12 13 0 -2
BITMAP
0000
0000
0000
0000
7380
1ac0
0c00
0c00
1800
1800
3000
3000
0000
ENDCHAR
STARTCHAR 0x2644
ENCODING 9796
SWIDTH 886 0
DWIDTH 12 0
BBX 12 13 0 -2
BITMAP
0000
0e00
1b80
1800
0c00
1a00
3300
6300
6300
6600
3c00
0000
0000
ENDCHAR
STARTCHAR 0x2645
ENCODING 9797
SWIDTH 886 0
DWIDTH 12 0
BBX 12 13 0 -2
BITMAP
0000
0000
0000
0f80
18c0
1800
0f00
1c00
3000
3180
1f00
0000
0000
ENDCHAR
STARTCHAR 0x2646
ENCODING 9798
SWIDTH 886 0
DWIDTH 12 0
BBX 12 13 0 -2
BITMAP
0000
1800
3380
3600
1800
3000
6000
6000
3800
0e00
0300
1e00
0000
ENDCHAR
STARTCHAR 0x2647
ENCODING 9799
SWIDTH 886 0
DWIDTH 12 0
BBX 12 13 0 -2
BITMAP
0000
0000
0000
7700
1d80
1980
3180
3300
6300
6600
0600
0000
0000
ENDCHAR
STARTCHAR 0x2648
ENCODING 9800
SWIDTH 886 0
DWIDTH 12 0
BBX 12 13 0 -2
BITMAP
0000
0700
0d80
1980
1980
3180
3f80
3180
3300
3300
3600
1c00
0000
ENDCHAR
STARTCHAR 0x2649
ENCODING 9801
SWIDTH 886 0
DWIDTH 12 0
BBX 12 13 0 -2
BITMAP
0000
0000
0000
1800
1800
1800
3000
3180
6180
6300
3e00
0000
0000
ENDCHAR
STARTCHAR 0x264A
ENCODING 9802
SWIDTH 886 0
DWIDTH 12 0
BBX 12 13 0 -2
BITMAP
0000
0000
0000
31c0
1b00
1a00
1c00
3400
3600
6680
6300
0000
0000
ENDCHAR
STARTCHAR 0x264B
ENCODING 9803
SWIDTH 886 0
DWIDTH 12 0
BBX 12 13 0 -2
BITMAP
0000
3c00
0600
0600
0600
1e00
3600
6600
6300
c300
c1c0
0000
0000
ENDCHAR
STARTCHAR 0x264C
ENCODING 9804
SWIDTH 886 0
DWIDTH 12 0
BBX 12 13 0 -2
BITMAP
0000
0000
0000
00c0
18c0
1980
1980
3300
3700
3d00
61c0
6000
0000
ENDCHAR
STARTCHAR 0x264D
ENCODING 9805
SWIDTH 886 0
DWIDTH 12 0
BBX 12 13 0 -2
BITMAP
0000
0000
0000
00c0
70c0
1980
1980
1b00
3300
3600
3c00
0000
0000
ENDCHAR
STARTCHAR 0x264E
ENCODING 9806
SWIDTH 886 0
DWIDTH 12 0
BBX 12 13 0 -2
BITMAP
0000
0f80
1800
1f80
3000
3f80
6000
6000
3e00
0300
0300
1e00
0000
ENDCHAR
STARTCHAR 0x264F
ENCODING 9807
SWIDTH 886 0
DWIDTH 12 0
BBX 12 13 0 -2
BITMAP
0000
0000
0000
0f00
3980
3180
6180
6180
6300
6700
3c00
0000
0000
ENDCHAR
STARTCHAR 0x2650
ENCODING 9808
SWIDTH 886 0
DWIDTH 12 0
BBX 12 13 0 -2
BITMAP
0000
0000
0000
00c0
7f80
1b00
1b00
3600
36c0
6cc0
c780
0000
0000
ENDCHAR
STARTCHAR 0x2651
ENCODING 9809
SWIDTH 886 0
DWIDTH 12 0
BBX 12 13 0 -2
BITMAP
0000
0000
0000
0780
1cc0
18c0
30c0
3180
7380
6e00
6000
6000
0000
ENDCHAR
STARTCHAR 0x2652
ENCODING 9810
SWIDTH 886 0
DWIDTH 12 0
BBX 12 13 0 -2
BITMAP
0000
0000
0060
1fc0
7300
6300
c300
c300
c600
ce00
7800
0000
0000
ENDCHAR
STARTCHAR 0x2653
ENCODING 9811
SWIDTH 886 0
DWIDTH 12 0
BBX 12 13 0 -2
BITMAP
0000
0000
0000
00c0
7f80
0c00
0c00
1800
18c0
1980
0f00
0000
0000
ENDCHAR
STARTCHAR 0x2654
ENCODING 9812
SWIDTH 886 0
DWIDTH 12 0
BBX 12 13 0 -2
BITMAP
0000
0000
0000
1980
18c0
18c0
3180
3180
6300
6600
3c00
0000
0000
ENDCHAR
STARTCHAR 0x2655
ENCODING 9813
SWIDTH 886 0
DWIDTH 12 0
BBX 12 13 0 -2
BITMAP
0000
0600
0600
1f00
3580
6d80
6d80
6d80
6d00
3e00
1800
1800
0000
ENDCHAR
STARTCHAR 0x2656
ENCODING 9814
SWIDTH 886 0
DWIDTH 12 0
BBX 12 13 0 -2
BITMAP
0000
0000
0000
1cc0
3680
0700
0600
0600
0e00
1a60
36c0
6380
0000
ENDCHAR
STARTCHAR 0x2657
ENCODING 9815
SWIDTH 886 0
DWIDTH 12 0
BBX 12 13 0 -2
BITMAP
0000
0300
0300
0600
e660
36c0
34c0
6d80
6d80
3f00
1800
1800
0000
ENDCHAR
STARTCHAR 0x2658
ENCODING 9816
SWIDTH 886 0
DWIDTH 12 0
BBX 12 13 0 -2
BITMAP
0000
0000
0000
1980
30c0
36c0
66c0
6cc0
6cc0
6d80
3b00
0000
0000
ENDCHAR
STARTCHAR 0x2721
ENCODING 10017
SWIDTH 886 0
DWIDTH 12 0
BBX 12 13 0 -2
BITMAP
0000
3c00
0c00
1a00
1a00
3300
3300
3f00
6180
6180
f3e0
0000
0000
ENDCHAR
STARTCHAR 0x2722
ENCODING 10018
SWIDTH 886 0
DWIDTH 12 0
BBX 12 13 0 -2
BITMAP
0000
ff00
3180
30c0
3000
3f00
3180
30c0
30c0
3180
ff00
0000
0000
ENDCHAR
STARTCHAR 0x2723
ENCODING 10019
SWIDTH 886 0
DWIDTH 12 0
BBX 12 13 0 -2
BITMAP
0000
ff00
3180
3180
3180
3f00
3180
30c0
30c0
3180
ff00
0000
0000
ENDCHAR
STARTCHAR 0x2724
ENCODING 10020
SWIDTH 886 0
DWIDTH 12 0
BBX 12 13 0 -2
BITMAP
0000
7fc0
18c0
18c0
1800
1800
1800
1800
1800
1800
7c00
0000
0000
ENDCHAR
STARTCHAR 0x2725
ENCODING 10021
SWIDTH 886 0
DWIDTH 12 0
BBX 12 13 0 -2
BITMAP
0000
7fc0
1980
1980
1980
1980
1980
3180
3180
7f80
60c0
c060
0000
ENDCHAR
STARTCHAR 0x2726
ENCODING 10022
SWIDTH 886 0
DWIDTH 12 0
BBX 12 13 0 -2
BITMAP
0000
ff00
3300
3180
3600
3e00
3600
3000
30c0
3180
ff80
0000
0000
ENDCHAR
STARTCHAR 0x2727
ENCODING 10023
SWIDTH 886 0
DWIDTH 12 0
BBX 12 13 0 -2
BITMAP
7380
0000
ff80
3180
30c0
3600
3e00
3600
3060
30c0
ffc0
0000
0000
ENDCHAR
STARTCHAR 0x2728
ENCODING 10024
SWIDTH 886 0
DWIDTH 12 0
BBX 12 13 0 -2
BITMAP
0000
3f00
ccc0
ada0
6d80
3f00
3500
6d80
6d80
ccc0
df60
0000
0000
ENDCHAR
STARTCHAR 0x2729
ENCODING 10025
SWIDTH 886 0
DWIDTH 12 0
BBX 12 13 0 -2
BITMAP
0000
6f00
7180
60c0
0180
0700
0180
00c0
60c0
7180
6f00
0000
0000
ENDCHAR
STARTCHAR 0x272A
ENCODING 10026
SWIDTH 886 0
DWIDTH 12 0
BBX 12 13 0 -2
BITMAP
0000
fbe0
3380
3680
3680
3580
3580
3980
3980
3180
f3e0
0000
0000
ENDCHAR
STARTCHAR 0x272B
ENCODING 10027
SWIDTH 886 0
DWIDTH 12 0
BBX 12 13 0 -2
BITMAP
1b00
0e00
f1e0
3380
3380
3680
3680
3580
3580
3980
fbe0
0000
0000
ENDCHAR
STARTCHAR 0x272C
ENCODING 10028
SWIDTH 886 0
DWIDTH 12 0
BBX 12 13 0 -2
BITMAP
0000
f9c0
3360
3300
3600
3400
3c00
3600
3300
3180
fbe0
0000
0000
ENDCHAR
STARTCHAR 0x272D
ENCODING 10029
SWIDTH 886 0
DWIDTH 12 0
BBX 12 13 0 -2
BITMAP
0000
3fe0
0d80
0d80
0d80
0d80
0d80
cd80
cd80
d980
73e0
0000
0000
ENDCHAR
STARTCHAR 0x272E
ENCODING 10030
SWIDTH 886 0
DWIDTH 12 0
BBX 12 13 0 -2
BITMAP
0000
f3c0
3300
3300
6a80
6a80
6a80
6d80
6d80
6d80
f3e0
0000
0000
ENDCHAR
STARTCHAR 0x272F
ENCODING 10031
SWIDTH 886 0
DWIDTH 12 0
BBX 12 13 0 -2
BITMAP
0000
fbe0
3180
3180
3180
3f80
3180
3180
3180
3180
fbe0
0000
0000
ENDCHAR
STARTCHAR 0x2730
ENCODING 10032
SWIDTH 886 0
DWIDTH 12 0
BBX 12 13 0 -2
BITMAP
0000
3f00
6180
c0c0
c0c0
c0c0
c0c0
c0c0
c0c0
6180
3f00
0000
0000
ENDCHAR
STARTCHAR 0x2731
ENCODING 10033
SWIDTH 886 0
DWIDTH 12 0
BBX 12 13 0 -2
BITMAP
0000
7fc0
3180
3180
3180
3180
3180
3180
3180
3180
fbe0
0000
0000
ENDCHAR
STARTCHAR 0x2732
ENCODING 10034
SWIDTH 886 0
DWIDTH 12 0
BBX 12 13 0 -2
BITMAP
0000
ff00
3180
30c0
30c0
3180
3f00
3000
3000
3000
f800
0000
0000
ENDCHAR
STARTCHAR 0x2733
ENCODING 10035
SWIDTH 886 0
DWIDTH 12 0
BBX 12 13 0 -2
BITMAP
0000
1f40
31c0
60c0
6000
6000
6000
6000
60c0
31c0
1f00
0000
0000
ENDCHAR
STARTCHAR 0x2734
ENCODING 10036
SWIDTH 886 0
DWIDTH 12 0
BBX 12 13 0 -2
BITMAP
0000
ffc0
ccc0
ccc0
8c60
0c00
0c00
0c00
0c00
0c00
3f00
0000
0000
ENDCHAR
STARTCHAR 0x2735
ENCODING 10037
SWIDTH 886 0
DWIDTH 12 0
BBX 12 13 0 -2
BITMAP
0000
fbe0
3180
3180
1b00
1b00
1a00
1a00
0c00
cc00
d800
7000
0000
ENDCHAR
STARTCHAR 0x2736
ENCODING 10038
SWIDTH 886 0
DWIDTH 12 0
BBX 12 13 0 -2
BITMAP
0000
3f00
0c00
3f00
6d80
ccc0
ccc0
6d80
3f00
0c00
3f00
0000
0000
ENDCHAR
STARTCHAR 0x2737
ENCODING 10039
SWIDTH 886 0
DWIDTH 12 0
BBX 12 13 0 -2
BITMAP
0000
fbc0
3300
3300
1a00
0c00
0c00
1a00
3300
3300
fbc0
0000
0000
ENDCHAR
STARTCHAR 0x2738
ENCODING 10040
SWIDTH 886 0
DWIDTH 12 0
BBX 12 13 0 -2
BITMAP
0000
fbc0
3300
3300
3300
3300
3300
3300
3300
3300
ffc0
0060
0000
ENDCHAR
STARTCHAR 0x2739
ENCODING 10041
SWIDTH 886 0
DWIDTH 12 0
BBX 12 13 0 -2
BITMAP
0000
fbe0
3180
3180
3180
3180
3380
1e80
0180
0180
03e0
0000
0000
ENDCHAR
STARTCHAR 0x273A
ENCODING 10042
SWIDTH 886 0
DWIDTH 12 0
BBX 12 13 0 -2
BITMAP
0000
eee0
6d80
6d80
6d80
6d80
6d80
6d80
6d80
6d80
ffe0
0000
0000
ENDCHAR
STARTCHAR 0x273B
ENCODING 10043
SWIDTH 886 0
DWIDTH 12 0
BBX 12 13 0 -2
BITMAP
0000
eee0
6d80
6d80
6d80
6d80
6d80
6d80
6d80
6d80
ffe0
0030
0000
ENDCHAR
STARTCHAR 0x273C
ENCODING 10044
SWIDTH 886 0
DWIDTH 12 0
BBX 12 13 0 -2
BITMAP
0000
fe00
d800
d800
1800
1f80
18c0
1860
1860
18c0
7f80
0000
0000
ENDCHAR
STARTCHAR 0x273D
ENCODING 10045
SWIDTH 886 0
DWIDTH 12 0
BBX 12 13 0 -2
BITMAP
0000
fbe0
6180
6180
6180
7d80
6680
6680
6680
6680
fde0
0000
0000
ENDCHAR
STARTCHAR 0x273E
ENCODING 10046
SWIDTH 886 0
DWIDTH 12 0
BBX 12 13 0 -2
BITMAP
0000
fc00
3000
3000
3000
3f00
3180
30c0
30c0
3180
ff00
0000
0000
ENDCHAR
STARTCHAR 0x273F
ENCODING 10047
SWIDTH 886 0
DWIDTH 12 0
BBX 12 13 0 -2
BITMAP
0000
6f00
7180
60c0
00c0
0ec0
1bc0
00c0
60c0
7180
6f00
0000
0000
ENDCHAR
STARTCHAR 0x2740
ENCODING 10048
SWIDTH 886 0
DWIDTH 12 0
BBX 12 13 0 -2
BITMAP
0000
f380
66c0
6c60
6c60
7c60
6c60
6c60
6c60
66c0
f380
0000
0000
ENDCHAR
STARTCHAR 0x2741
ENCODING 10049
SWIDTH 886 0
DWIDTH 12 0
BBX 12 13 0 -2
BITMAP
0000
1fe0
3180
6180
6180
3180
1f80
0d80
1980
3180
e3e0
0000
0000
ENDCHAR
STARTCHAR 0x2751
ENCODING 10065
SWIDTH 886 0
DWIDTH 12 0
BBX 12 13 0 -2
BITMAP
0000
0000
0000
1f00
3180
0180
0f80
3980
3180
3380
1ec0
0000
0000
ENDCHAR
STARTCHAR 0x2752
ENCODING 10066
SWIDTH 886 0
DWIDTH 12 0
BBX 12 13 0 -2
BITMAP
0300
0e00
1800
3000
3600
3b00
3180
3180
3180
1b00
0e00
0000
0000
ENDCHAR
STARTCHAR 0x2753
ENCODING 10067
SWIDTH 886 0
DWIDTH 12 0
BBX 12 13 0 -2
BITMAP
0000
0000
0000
7e00
3300
3300
3e00
3300
3180
3300
7e00
0000
0000
ENDCHAR
STARTCHAR 0x2754
ENCODING 10068
SWIDTH 886 0
DWIDTH 12 0
BBX 12 13 0 -2
BITMAP
0000
0000
0000
3f00
1980
18c0
1800
1800
1800
1800
3e00
0000
0000
ENDCHAR
STARTCHAR 0x2755
ENCODING 10069
SWIDTH 886 0
DWIDTH 12 0
BBX 12 13 0 -2
BITMAP
0000
0000
0000
7f80
1b00
1b00
1b00
1b00
3300
3f80
60c0
c0c0
0000
ENDCHAR
STARTCHAR 0x2756
ENCODING 10070
SWIDTH 886 0
DWIDTH 12 0
BBX 12 13 0 -2
BITMAP
0000
0000
0000
1e00
3300
6180
7f80
6000
6000
3180
1f00
0000
0000
ENDCHAR
STARTCHAR 0x2757
ENCODING 10071
SWIDTH 886 0
DWIDTH 12 0
BBX 12 13 0 -2
BITMAP
7380
0000
0000
1e00
3300
6180
7f80
6000
6000
3180
1f00
0000
0000
ENDCHAR
STARTCHAR 0x2758
ENCODING 10072
SWIDTH 886 0
DWIDTH 12 0
BBX 12 13 0 -2
BITMAP
0000
0000
0000
dec0
ccc0
7580
3f00
6d80
6d80
6d80
eec0
0000
0000
ENDCHAR
STARTCHAR 0x2759
ENCODING 10073
SWIDTH 886 0
DWIDTH 12 0
BBX 12 13 0 -2
BITMAP
0000
0000
0000
3f00
6180
0180
0f00
0180
6180
7180
1f00
0000
0000
ENDCHAR
STARTCHAR 0x275A
ENCODING 10074
SWIDTH 886 0
DWIDTH 12 0
BBX 12 13 0 -2
BITMAP
0000
0000
0000
7bc0
3380
3680
3680
3580
3580
3980
7bc0
0000
0000
ENDCHAR
STARTCHAR 0x275B
ENCODING 10075
SWIDTH 886 0
DWIDTH 12 0
BBX 12 13 0 -2
BITMAP
1b00
0e00
0000
7bc0
3380
3680
3680
3580
3580
3980
7bc0
0000
0000
ENDCHAR
STARTCHAR 0x275C
ENCODING 10076
SWIDTH 886 0
DWIDTH 12 0
BBX 12 13 0 -2
BITMAP
0000
0000
0000
7b80
36c0
3600
3400
3a00
3300
3180
7bc0
0000
0000
ENDCHAR
STARTCHAR 0x275D
ENCODING 10077
SWIDTH 886 0
DWIDTH 12 0
BBX 12 13 0 -2
BITMAP
0000
0000
0000
3fc0
0d80
0d80
0d80
0d80
6d80
6d80
3bc0
0000
0000
ENDCHAR
STARTCHAR 0x275E
ENCODING 10078
SWIDTH 886 0
DWIDTH 12 0
BBX 12 13 0 -2
BITMAP
0000
0000
0000
f3c0
7380
6a80
6a80
6a80
6d80
6d80
f3c0
0000
0000
ENDCHAR
STARTCHAR 0x275F
ENCODING 10079
SWIDTH 886 0
DWIDTH 12 0
BBX 12 13 0 -2
BITMAP
0000
0000
0000
7bc0
3180
3180
3f80
3180
3180
3180
7bc0
0000
0000
ENDCHAR
STARTCHAR 0x2760
ENCODING 10080
SWIDTH 886 0
DWIDTH 12 0
BBX 12 13 0 -2
BITMAP
0000
0000
0000
1f00
3180
60c0
60c0
60c0
60c0
3180
1f00
0000
0000
ENDCHAR
STARTCHAR 0x2761
ENCODING 10081
SWIDTH 886 0
DWIDTH 12 0
BBX 12 13 0 -2
BITMAP
0000
0000
0000
7fc0
3180
3180
3180
3180
3180
3180
7bc0
0000
0000
ENDCHAR
STARTCHAR 0x2762
ENCODING 10082
SWIDTH 886 0
DWIDTH 12 0
BBX 12 13 0 -2
BITMAP
0000
0000
0000
7700
3980
30c0
30c0
30c0
3980
3700
3000
7800
0000
ENDCHAR
STARTCHAR 0x2763
ENCODING 10083
SWIDTH 886 0
DWIDTH 12 0
BBX 12 13 0 -2
BITMAP
0000
0000
0000
1f00
3180
6180
6000
6000
6000
3180
1f00
0000
0000
ENDCHAR
STARTCHAR 0x2764
ENCODING 10084
SWIDTH 886 0
DWIDTH 12 0
BBX 12 13 0 -2
BITMAP
0000
0000
0000
7f80
6d80
ccc0
0c00
0c00
0c00
0c00
1e00
0000
0000
ENDCHAR
STARTCHAR 0x2765
ENCODING 10085
SWIDTH 886 0
DWIDTH 12 0
BBX 12 13 0 -2
BITMAP
0000
0000
0000
3dc0
1980
1980
0d00
0d00
0600
3600
3600
1c00
0000
ENDCHAR
STARTCHAR 0x2766
ENCODING 10086
SWIDTH 886 0
DWIDTH 12 0
BBX 12 13 0 -2
BITMAP
0000
1c00
0c00
7580
dec0
ccc0
ccc0
dec0
7580
0c00
1e00
0000
0000
ENDCHAR
STARTCHAR 0x2767
ENCODING 10087
SWIDTH 886 0
DWIDTH 12 0
BBX 12 13 0 -2
BITMAP
0000
0000
0000
7b80
3300
1a00
0c00
0c00
1a00
3300
7b80
0000
0000
ENDCHAR
STARTCHAR 0x2768
ENCODING 10088
SWIDTH 886 0
DWIDTH 12 0
BBX 12 13 0 -2
BITMAP
0000
0000
0000
7b80
3300
3300
3300
3300
3300
3300
7f80
00c0
0000
ENDCHAR
STARTCHAR 0x2769
ENCODING 10089
SWIDTH 886 0
DWIDTH 12 0
BBX 12 13 0 -2
BITMAP
0000
0000
0000
7b80
3300
3300
3300
3700
1d00
0300
0780
0000
0000
ENDCHAR
STARTCHAR 0x276A
ENCODING 10090
SWIDTH 886 0
DWIDTH 12 0
BBX 12 13 0 -2
BITMAP
0000
0000
0000
eec0
6d80
6d80
6d80
6d80
6d80
6d80
ffc0
0000
0000
ENDCHAR
STARTCHAR 0x276B
ENCODING 10091
SWIDTH 886 0
DWIDTH 12 0
BBX 12 13 0 -2
BITMAP
0000
0000
0000
eec0
6d80
6d80
6d80
6d80
6d80
6d80
ffc0
0060
0000
ENDCHAR
STARTCHAR 0x276C
ENCODING 10092
SWIDTH 886 0
DWIDTH 12 0
BBX 12 13 0 -2
BITMAP
0000
0000
0000
3e00
6c00
6c00
0f80
0cc0
0cc0
0cc0
3f80
0000
0000
ENDCHAR
STARTCHAR 0x276D
ENCODING 10093
SWIDTH 886 0
DWIDTH 12 0
BBX 12 13 0 -2
BITMAP
0000
0000
0000
f3c0
6180
6180
7d80
6680
6680
6680
fdc0
0000
0000
ENDCHAR
STARTCHAR 0x276E
ENCODING 10094
SWIDTH 886 0
DWIDTH 12 0
BBX 12 13 0 -2
BITMAP
0000
0000
0000
3c00
1800
1800
1f00
1980
1980
1980
3f00
0000
0000
ENDCHAR
STARTCHAR 0x276F
ENCODING 10095
SWIDTH 886 0
DWIDTH 12 0
BBX 12 13 0 -2
BITMAP
0000
0000
0000
3e00
6300
0180
1d80
3780
0180
6300
3e00
0000
0000
ENDCHAR
STARTCHAR 0x2770
ENCODING 10096
SWIDTH 886 0
DWIDTH 12 0
BBX 12 13 0 -2
BITMAP
0000
0000
0000
7b80
34c0
34c0
3cc0
34c0
34c0
34c0
7b80
0000
0000
ENDCHAR
STARTCHAR 0x2771
ENCODING 10097
SWIDTH 886 0
DWIDTH 12 0
BBX 12 13 0 -2
BITMAP
0000
0000
0000
3f80
6300
6300
3f00
0d00
1b00
1b00
7780
0000
0000
ENDCHAR
STARTCHAR 0x2821
ENCODING 10273
SWIDTH 886 0
DWIDTH 12 0
BBX 12 13 0 -2
BITMAP
0000
0000
0000
0000
0000
0000
fff0
0000
0000
0000
0000
0000
0000
ENDCHAR
STARTCHAR 0x2822
ENCODING 10274
SWIDTH 886 0
DWIDTH 12 0
BBX 12 13 0 -2
BITMAP
0c00
0c00
0c00
0c00
0c00
0c00
0c00
0c00
0c00
0c00
0c00
0c00
0c00
ENDCHAR
STARTCHAR 0x2823
ENCODING 10275
SWIDTH 886 0
DWIDTH 12 0
BBX 12 13 0 -2
BITMAP
0000
0000
0000
0000
0000
0000
0ff0
0c00
0c00
0c00
0c00
0c00
0c00
ENDCHAR
STARTCHAR 0x2824
ENCODING 10276
SWIDTH 886 0
DWIDTH 12 0
BBX 12 13 0 -2
BITMAP
0000
0000
0000
0000
0000
0000
fc00
0c00
0c00
0c00
0c00
0c00
0c00
ENDCHAR
STARTCHAR 0x2825
ENCODING 10277
SWIDTH 886 0
DWIDTH 12 0
BBX 12 13 0 -2
BITMAP
0c00
0c00
0c00
0c00
0c00
0c00
fc00
0000
0000
0000
0000
0000
0000
ENDCHAR
STARTCHAR 0x2826
ENCODING 10278
SWIDTH 886 0
DWIDTH 12 0
BBX 12 13 0 -2
BITMAP
0c00
0c00
0c00
0c00
0c00
0c00
0ff0
0000
0000
0000
0000
0000
0000
ENDCHAR
STARTCHAR 0x2827
ENCODING 10279
SWIDTH 886 0
DWIDTH 12 0
BBX 12 13 0 -2
BITMAP
0c00
0c00
0c00
0c00
0c00
0c00
0ff0
0c00
0c00
0c00
0c00
0c00
0c00
ENDCHAR
STARTCHAR 0x2828
ENCODING 10280
SWIDTH 886 0
DWIDTH 12 0
BBX 12 13 0 -2
BITMAP
0000
0000
0000
0000
0000
0000
fff0
0c00
0c00
0c00
0c00
0c00
0c00
ENDCHAR
STARTCHAR 0x2829
ENCODING 10281
SWIDTH 886 0
DWIDTH 12 0
BBX 12 13 0 -2
BITMAP
0c00
0c00
0c00
0c00
0c00
0c00
fc00
0c00
0c00
0c00
0c00
0c00
0c00
ENDCHAR
STARTCHAR 0x282A
ENCODING 10282
SWIDTH 886 0
DWIDTH 12 0
BBX 12 13 0 -2
BITMAP
0c00
0c00
0c00
0c00
0c00
0c00
fff0
0000
0000
0000
0000
0000
0000
ENDCHAR
STARTCHAR 0x282B
ENCODING 10283
SWIDTH 886 0
DWIDTH 12 0
BBX 12 13 0 -2
BITMAP
0c00
0c00
0c00
0c00
0c00
0c00
fff0
0c00
0c00
0c00
0c00
0c00
0c00
ENDCHAR
STARTCHAR 0x282C
ENCODING 10284
SWIDTH 886 0
DWIDTH 12 0
BBX 12 13 0 -2
BITMAP
0000
0000
0000
0000
0000
fff0
fff0
0000
0000
0000
0000
0000
0000
ENDCHAR
STARTCHAR 0x282D
ENCODING 10285
SWIDTH 886 0
DWIDTH 12 0
BBX 12 13 0 -2
BITMAP
0e00
0e00
0e00
0e00
0e00
0e00
0e00
0e00
0e00
0e00
0e00
0e00
0e00
ENDCHAR
STARTCHAR 0x282E
ENCODING 10286
SWIDTH 886 0
DWIDTH 12 0
BBX 12 13 0 -2
BITMAP
0000
0000
0000
0000
0000
0ff0
0ff0
0e00
0e00
0e00
0e00
0e00
0e00
ENDCHAR
STARTCHAR 0x282F
ENCODING 10287
SWIDTH 886 0
DWIDTH 12 0
BBX 12 13 0 -2
BITMAP
0000
0000
0000
0000
0000
fe00
fe00
0e00
0e00
0e00
0e00
0e00
0e00
ENDCHAR
STARTCHAR 0x2830
ENCODING 10288
SWIDTH 886 0
DWIDTH 12 0
BBX 12 13 0 -2
BITMAP
0e00
0e00
0e00
0e00
0e00
fe00
fe00
0000
0000
0000
0000
0000
0000
ENDCHAR
STARTCHAR 0x2831
ENCODING 10289
SWIDTH 886 0
DWIDTH 12 0
BBX 12 13 0 -2
BITMAP
0e00
0e00
0e00
0e00
0e00
0ff0
0ff0
0000
0000
0000
0000
0000
0000
ENDCHAR
STARTCHAR 0x2832
ENCODING 10290
SWIDTH 886 0
DWIDTH 12 0
BBX 12 13 0 -2
BITMAP
0e00
0e00
0e00
0e00
0e00
0ff0
0ff0
0e00
0e00
0e00
0e00
0e00
0e00
ENDCHAR
STARTCHAR 0x2833
ENCODING 10291
SWIDTH 886 0
DWIDTH 12 0
BBX 12 13 0 -2
BITMAP
0000
0000
0000
0000
0000
fff0
fff0
0e00
0e00
0e00
0e00
0e00
0e00
ENDCHAR
STARTCHAR 0x2834
ENCODING 10292
SWIDTH 886 0
DWIDTH 12 0
BBX 12 13 0 -2
BITMAP
0e00
0e00
0e00
0e00
0e00
fe00
fe00
0e00
0e00
0e00
0e00
0e00
0e00
ENDCHAR
STARTCHAR 0x2835
ENCODING 10293
SWIDTH 886 0
DWIDTH 12 0
BBX 12 13 0 -2
BITMAP
0e00
0e00
0e00
0e00
0e00
fff0
fff0
0000
0000
0000
0000
0000
0000
ENDCHAR
STARTCHAR 0x2836
ENCODING 10294
SWIDTH 886 0
DWIDTH 12 0
BBX 12 13 0 -2
BITMAP
0e00
0e00
0e00
0e00
0e00
fff0
fff0
0e00
0e00
0e00
0e00
0e00
0e00
ENDCHAR
STARTCHAR 0x2837
ENCODING 10295
SWIDTH 886 0
DWIDTH 12 0
BBX 12 13 0 -2
BITMAP
0e00
0e00
0e00
0e00
0e00
0e00
0ff0
0e00
0e00
0e00
0e00
0e00
0e00
ENDCHAR
STARTCHAR 0x2838
ENCODING 10296
SWIDTH 886 0
DWIDTH 12 0
BBX 12 13 0 -2
BITMAP
0000
0000
0000
0000
0000
fff0
fff0
0c00
0c00
0c00
0c00
0c00
0c00
ENDCHAR
STARTCHAR 0x2839
ENCODING 10297
SWIDTH 886 0
DWIDTH 12 0
BBX 12 13 0 -2
BITMAP
0e00
0e00
0e00
0e00
0e00
0e00
fe00
0e00
0e00
0e00
0e00
0e00
0e00
ENDCHAR
STARTCHAR 0x283A
ENCODING 10298
SWIDTH 886 0
DWIDTH 12 0
BBX 12 13 0 -2
BITMAP
0c00
0c00
0c00
0c00
0c00
fff0
fff0
0000
0000
0000
0000
0000
0000
ENDCHAR
STARTCHAR 0x283B
ENCODING 10299
SWIDTH 886 0
DWIDTH 12 0
BBX 12 13 0 -2
BITMAP
0c00
0c00
0c00
0c00
0c00
fff0
fff0
0c00
0c00
0c00
0c00
0c00
0c00
ENDCHAR
STARTCHAR 0x283C
ENCODING 10300
SWIDTH 886 0
DWIDTH 12 0
BBX 12 13 0 -2
BITMAP
0c00
0c00
0c00
0c00
0c00
0ff0
0ff0
0c00
0c00
0c00
0c00
0c00
0c00
ENDCHAR
STARTCHAR 0x283D
ENCODING 10301
SWIDTH 886 0
DWIDTH 12 0
BBX 12 13 0 -2
BITMAP
0000
0000
0000
0000
0000
0000
fff0
0e00
0e00
0e00
0e00
0e00
0e00
ENDCHAR
STARTCHAR 0x283E
ENCODING 10302
SWIDTH 886 0
DWIDTH 12 0
BBX 12 13 0 -2
BITMAP
0c00
0c00
0c00
0c00
0c00
fc00
fc00
0c00
0c00
0c00
0c00
0c00
0c00
ENDCHAR
STARTCHAR 0x283F
ENCODING 10303
SWIDTH 886 0
DWIDTH 12 0
BBX 12 13 0 -2
BITMAP
0e00
0e00
0e00
0e00
0e00
fff0
0000
0000
0000
0000
0000
0000
0000
ENDCHAR
STARTCHAR 0x2840
ENCODING 10304
SWIDTH 886 0
DWIDTH 12 0
BBX 12 13 0 -2
BITMAP
0e00
0e00
0e00
0e00
0e00
0e00
fff0
0e00
0e00
0e00
0e00
0e00
0e00
ENDCHAR
STARTCHAR 0x2D21
ENCODING 11553
SWIDTH 886 0
DWIDTH 12 0
BBX 12 13 0 -2
BITMAP
0000
1e00
7380
ccc0
dcc0
b460
8c60
8c60
ccc0
ccc0
7380
1e00
0000
ENDCHAR
STARTCHAR 0x2D22
ENCODING 11554
SWIDTH 886 0
DWIDTH 12 0
BBX 12 13 0 -2
BITMAP
0000
1e00
7380
dec0
d340
8360
8e60
9860
d0c0
df40
7380
1e00
0000
ENDCHAR
STARTCHAR 0x2D23
ENCODING 11555
SWIDTH 886 0
DWIDTH 12 0
BBX 12 13 0 -2
BITMAP
0000
1e00
7380
dec0
d340
8360
8e60
8360
d340
dec0
7380
1e00
0000
ENDCHAR
STARTCHAR 0x2D24
ENCODING 11556
SWIDTH 886 0
DWIDTH 12 0
BBX 12 13 0 -2
BITMAP
0000
1e00
7380
cec0
cec0
9a60
9a60
b660
df40
c6c0
7380
1e00
0000
ENDCHAR
STARTCHAR 0x2D25
ENCODING 11557
SWIDTH 886 0
DWIDTH 12 0
BBX 12 13 0 -2
BITMAP
0000
1e00
7380
df40
d0c0
be60
8360
8360
d340
dec0
7380
1e00
0000
ENDCHAR
STARTCHAR 0x2D26
ENCODING 11558
SWIDTH 886 0
DWIDTH 12 0
BBX 12 13 0 -2
BITMAP
0000
1e00
7380
dec0
d0c0
be60
b360
b360
d340
dec0
7380
1e00
0000
ENDCHAR
STARTCHAR 0x2D27
ENCODING 11559
SWIDTH 886 0
DWIDTH 12 0
BBX 12 13 0 -2
BITMAP
0000
1e00
7380
df40
c340
8660
8c60
8c60
d8c0
d8c0
7380
1e00
0000
ENDCHAR
STARTCHAR 0x2D28
ENCODING 11560
SWIDTH 886 0
DWIDTH 12 0
BBX 12 13 0 -2
BITMAP
0000
1e00
7380
dec0
d340
b360
9e60
b360
d340
dec0
7380
1e00
0000
ENDCHAR
STARTCHAR 0x2D29
ENCODING 11561
SWIDTH 886 0
DWIDTH 12 0
BBX 12 13 0 -2
BITMAP
0000
1e00
7380
dec0
d340
b360
b360
9f60
c340
dec0
7380
1e00
0000
ENDCHAR
STARTCHAR 0x2D2A
ENCODING 11562
SWIDTH 886 0
DWIDTH 12 0
BBX 12 13 0 -2
BITMAP
0000
1e00
7380
d740
f5c0
b5a0
b5a0
b5a0
d5c0
d740
7380
1e00
0000
ENDCHAR
STARTCHAR 0x2D2B
ENCODING 11563
SWIDTH 886 0
DWIDTH 12 0
BBX 12 13 0 -2
BITMAP
0000
1e00
7380
d340
f740
b360
b360
b360
d340
d340
7380
1e00
0000
ENDCHAR
STARTCHAR 0x2D2C
ENCODING 11564
SWIDTH 886 0
DWIDTH 12 0
BBX 12 13 0 -2
BITMAP
0000
1e00
7380
d740
f5c0
b1a0
b360
b660
d4c0
d7c0
7380
1e00
0000
ENDCHAR
STARTCHAR 0x2D2D
ENCODING 11565
SWIDTH 886 0
DWIDTH 12 0
BBX 12 13 0 -2
BITMAP
0000
1e00
7380
d740
f5c0
b1a0
b760
b1a0
d5c0
d740
7380
1e00
0000
ENDCHAR
STARTCHAR 0x2D2E
ENCODING 11566
SWIDTH 886 0
DWIDTH 12 0
BBX 12 13 0 -2
BITMAP
0000
1e00
7380
d740
f740
b560
b560
b560
d7c0
d340
7380
1e00
0000
ENDCHAR
STARTCHAR 0x2D2F
ENCODING 11567
SWIDTH 886 0
DWIDTH 12 0
BBX 12 13 0 -2
BITMAP
0000
1e00
7380
d7c0
f4c0
b760
b1a0
b1a0
d5c0
d740
7380
1e00
0000
ENDCHAR
STARTCHAR 0x2D30
ENCODING 11568
SWIDTH 886 0
DWIDTH 12 0
BBX 12 13 0 -2
BITMAP
0000
1e00
7380
d740
f4c0
b760
b5a0
b5a0
d5c0
d740
7380
1e00
0000
ENDCHAR
STARTCHAR 0x2D31
ENCODING 11569
SWIDTH 886 0
DWIDTH 12 0
BBX 12 13 0 -2
BITMAP
0000
1e00
7380
d7c0
f1c0
b360
b360
b660
d6c0
d6c0
7380
1e00
0000
ENDCHAR
STARTCHAR 0x2D32
ENCODING 11570
SWIDTH 886 0
DWIDTH 12 0
BBX 12 13 0 -2
BITMAP
0000
1e00
7380
d740
f5c0
b5a0
b760
b5a0
d5c0
d740
7380
1e00
0000
ENDCHAR
STARTCHAR 0x2D33
ENCODING 11571
SWIDTH 886 0
DWIDTH 12 0
BBX 12 13 0 -2
BITMAP
0000
1e00
7380
d740
f5c0
b5a0
b5a0
b7a0
d1c0
d740
7380
1e00
0000
ENDCHAR
STARTCHAR 0x2D34
ENCODING 11572
SWIDTH 886 0
DWIDTH 12 0
BBX 12 13 0 -2
BITMAP
0000
1e00
7380
dd40
d6c0
8ea0
9aa0
b6a0
d6c0
dd40
7380
1e00
0000
ENDCHAR
STARTCHAR 0x2D35
ENCODING 11573
SWIDTH 886 0
DWIDTH 12 0
BBX 12 13 0 -2
BITMAP
0000
3f00
0c00
0c00
0c00
0c00
0c00
0c00
0c00
0c00
3f00
0000
0000
ENDCHAR
STARTCHAR 0x2D36
ENCODING 11574
SWIDTH 886 0
DWIDTH 12 0
BBX 12 13 0 -2
BITMAP
0000
3f80
1b00
1b00
1b00
1b00
1b00
1b00
1b00
1b00
3f80
0000
0000
ENDCHAR
STARTCHAR 0x2D37
ENCODING 11575
SWIDTH 886 0
DWIDTH 12 0
BBX 12 13 0 -2
BITMAP
0000
ffc0
6d80
6d80
6d80
6d80
6d80
6d80
6d80
6d80
ffc0
0000
0000
ENDCHAR
STARTCHAR 0x2D38
ENCODING 11576
SWIDTH 886 0
DWIDTH 12 0
BBX 12 13 0 -2
BITMAP
0000
fdc0
6980
6980
6980
6d00
6d00
6d00
6600
6600
f600
0000
0000
ENDCHAR
STARTCHAR 0x2D39
ENCODING 11577
SWIDTH 886 0
DWIDTH 12 0
BBX 12 13 0 -2
BITMAP
0000
f3c0
6180
6180
3300
3300
3300
1a00
1a00
0c00
0c00
0000
0000
ENDCHAR
STARTCHAR 0x2D3A
ENCODING 11578
SWIDTH 886 0
DWIDTH 12 0
BBX 12 13 0 -2
BITMAP
0000
f7c0
6680
6680
6680
3580
3580
3580
1980
1980
1bc0
0000
0000
ENDCHAR
STARTCHAR 0x2D3B
ENCODING 11579
SWIDTH 886 0
DWIDTH 12 0
BBX 12 13 0 -2
BITMAP
0000
efe0
cd40
cd40
cd40
6b40
6b40
6b40
3340
3340
37e0
0000
0000
ENDCHAR
STARTCHAR 0x2D3C
ENCODING 11580
SWIDTH 886 0
DWIDTH 12 0
BBX 12 13 0 -2
BITMAP
0000
dfe0
d540
d540
d540
d540
d540
6d40
6d40
6d40
6fe0
0000
0000
ENDCHAR
STARTCHAR 0x2D3D
ENCODING 11581
SWIDTH 886 0
DWIDTH 12 0
BBX 12 13 0 -2
BITMAP
0000
fdc0
6980
6d00
6d00
6600
6600
6d00
6d00
6980
fdc0
0000
0000
ENDCHAR
STARTCHAR 0x2D3E
ENCODING 11582
SWIDTH 886 0
DWIDTH 12 0
BBX 12 13 0 -2
BITMAP
0000
f3c0
6180
3300
1a00
0c00
0c00
1a00
3300
6180
f3c0
0000
0000
ENDCHAR
STARTCHAR 0x2D40
ENCODING 11584
SWIDTH 886 0
DWIDTH 12 0
BBX 12 13 0 -2
BITMAP
0000
e000
3800
e000
3800
e000
3a60
0660
0660
0660
00c0
0380
0000
ENDCHAR
STARTCHAR 0x2D41
ENCODING 11585
SWIDTH 886 0
DWIDTH 12 0
BBX 12 13 0 -2
BITMAP
0000
6000
f800
6000
6000
fc00
3000
37e0
0660
0660
0660
07e0
0000
ENDCHAR
STARTCHAR 0x2D42
ENCODING 11586
SWIDTH 886 0
DWIDTH 12 0
BBX 12 13 0 -2
BITMAP
0000
c600
fb60
d860
c0c0
7b80
0000
f800
3000
fc00
3000
e000
0000
ENDCHAR
STARTCHAR 0x2D43
ENCODING 11587
SWIDTH 886 0
DWIDTH 12 0
BBX 12 13 0 -2
BITMAP
0000
1800
d800
77e0
3800
ec00
0000
c680
c680
fa80
c6a0
cdc0
0000
ENDCHAR
STARTCHAR 0x2D44
ENCODING 11588
SWIDTH 886 0
DWIDTH 12 0
BBX 12 13 0 -2
BITMAP
0000
d5c0
f800
9be0
1860
3060
e3c0
6000
6000
d800
cc00
fc00
0000
ENDCHAR
STARTCHAR 0x2D45
ENCODING 11589
SWIDTH 886 0
DWIDTH 12 0
BBX 12 13 0 -2
BITMAP
0000
c000
c000
c000
f800
c000
c000
ce60
0360
0060
00c0
0f80
0000
ENDCHAR
STARTCHAR 0x2D46
ENCODING 11590
SWIDTH 886 0
DWIDTH 12 0
BBX 12 13 0 -2
BITMAP
0000
fc00
0c00
6800
67e0
6000
c000
3000
d000
d600
d600
bc00
0000
ENDCHAR
STARTCHAR 0x2D47
ENCODING 11591
SWIDTH 886 0
DWIDTH 12 0
BBX 12 13 0 -2
BITMAP
0000
0300
e3e0
b760
9860
0cc0
c380
f0c0
b340
d340
6f40
c360
0000
ENDCHAR
STARTCHAR 0x2D48
ENCODING 11592
SWIDTH 886 0
DWIDTH 12 0
BBX 12 13 0 -2
BITMAP
0000
b000
b6a0
b6a0
3060
e3c0
0000
8d80
8d80
f580
8da0
8dc0
0000
ENDCHAR
STARTCHAR 0x2D49
ENCODING 11593
SWIDTH 886 0
DWIDTH 12 0
BBX 12 13 0 -2
BITMAP
0000
f800
9aa0
9aa0
1860
f3c0
0000
c000
c000
f800
c000
c000
0000
ENDCHAR
STARTCHAR 0x2D4A
ENCODING 11594
SWIDTH 886 0
DWIDTH 12 0
BBX 12 13 0 -2
BITMAP
0000
c000
fbe0
da60
da60
bbe0
0000
d800
d800
dbe0
1800
7000
0000
ENDCHAR
STARTCHAR 0x2D4B
ENCODING 11595
SWIDTH 886 0
DWIDTH 12 0
BBX 12 13 0 -2
BITMAP
0000
d400
d400
c000
f800
c000
c680
c680
0680
06a0
06a0
0dc0
0000
ENDCHAR
STARTCHAR 0x2D4C
ENCODING 11596
SWIDTH 886 0
DWIDTH 12 0
BBX 12 13 0 -2
BITMAP
0000
c600
fb60
d860
c0c0
7b80
0000
c000
c000
f800
c000
c000
0000
ENDCHAR
STARTCHAR 0x2D4D
ENCODING 11597
SWIDTH 886 0
DWIDTH 12 0
BBX 12 13 0 -2
BITMAP
0000
d600
d500
d600
dbe0
9800
0000
db40
f540
d360
c340
f6c0
0000
ENDCHAR
STARTCHAR 0x2D4E
ENCODING 11598
SWIDTH 886 0
DWIDTH 12 0
BBX 12 13 0 -2
BITMAP
0000
f6c0
06c0
f6c0
00c0
f380
0000
ab40
8340
af40
b340
b360
0000
ENDCHAR
STARTCHAR 0x2D4F
ENCODING 11599
SWIDTH 886 0
DWIDTH 12 0
BBX 12 13 0 -2
BITMAP
0000
0c00
ea00
b400
9be0
0c00
0000
c680
1a80
d800
3000
e000
0000
ENDCHAR
STARTCHAR 0x2D50
ENCODING 11600
SWIDTH 886 0
DWIDTH 12 0
BBX 12 13 0 -2
BITMAP
0000
0000
0000
0000
0000
f7c0
aaa0
aaa0
aaa0
aaa0
aaa0
0000
0000
ENDCHAR
STARTCHAR 0x2D51
ENCODING 11601
SWIDTH 886 0
DWIDTH 12 0
BBX 12 13 0 -2
BITMAP
0000
0000
0000
0000
0000
f7c0
9aa0
86a0
86a0
9aa0
f6a0
0000
0000
ENDCHAR
STARTCHAR 0x2D52
ENCODING 11602
SWIDTH 886 0
DWIDTH 12 0
BBX 12 13 0 -2
BITMAP
0000
0000
8000
8000
8000
b7c0
a6a0
c6a0
a6a0
b6a0
9aa0
0000
0000
ENDCHAR
STARTCHAR 0x2D53
ENCODING 11603
SWIDTH 886 0
DWIDTH 12 0
BBX 12 13 0 -2
BITMAP
0000
0000
0000
0000
00e0
f380
aac0
ab80
aa00
abc0
aa60
03c0
0000
ENDCHAR
STARTCHAR 0x2D54
ENCODING 11604
SWIDTH 886 0
DWIDTH 12 0
BBX 12 13 0 -2
BITMAP
0000
0000
8000
8000
80e0
b380
a6c0
c380
a600
b3c0
9a60
03c0
0000
ENDCHAR
STARTCHAR 0x2D55
ENCODING 11605
SWIDTH 886 0
DWIDTH 12 0
BBX 12 13 0 -2
BITMAP
0000
0000
0000
0000
0000
f3c0
9a60
8600
8600
9a60
f3c0
0000
0000
ENDCHAR
STARTCHAR 0x2D56
ENCODING 11606
SWIDTH 886 0
DWIDTH 12 0
BBX 12 13 0 -2
BITMAP
0000
01c0
0360
00c0
0180
fde0
b600
b600
b600
b600
b600
0000
0000
ENDCHAR
STARTCHAR 0x2D5F
ENCODING 11615
SWIDTH 886 0
DWIDTH 12 0
BBX 12 13 0 -2
BITMAP
0000
01a0
fbe0
6680
aaa0
aaa0
ab40
6740
fd40
6d40
6ba0
69a0
0000
ENDCHAR
STARTCHAR 0x2D60
ENCODING 11616
SWIDTH 886 0
DWIDTH 12 0
BBX 12 13 0 -2
BITMAP
0340
0340
0680
0680
0000
0000
0000
0000
0000
0000
0000
0000
0000
ENDCHAR
STARTCHAR 0x2D61
ENCODING 11617
SWIDTH 886 0
DWIDTH 12 0
BBX 12 13 0 -2
BITMAP
0000
0000
0000
0000
0000
0000
0000
6800
6800
d000
d000
0000
0000
ENDCHAR
STARTCHAR 0x2D62
ENCODING 11618
SWIDTH 886 0
DWIDTH 12 0
BBX 12 13 0 -2
BITMAP
0000
0000
9800
d800
d800
ab80
aac0
bac0
bac0
9ac0
9ba0
0000
0000
ENDCHAR
STARTCHAR 0x2D63
ENCODING 11619
SWIDTH 886 0
DWIDTH 12 0
BBX 12 13 0 -2
BITMAP
0000
0000
dac0
dac0
d680
d680
e700
d680
d680
dac0
dac0
0000
0000
ENDCHAR
STARTCHAR 0x2D64
ENCODING 11620
SWIDTH 886 0
DWIDTH 12 0
BBX 12 13 0 -2
BITMAP
0000
0000
f980
6180
6e80
6980
6980
6e80
6980
6980
6ee0
0000
0000
ENDCHAR
STARTCHAR 0x2D65
ENCODING 11621
SWIDTH 886 0
DWIDTH 12 0
BBX 12 13 0 -2
BITMAP
0000
1e00
7380
ccc0
ccc0
8f60
8c60
8c60
ffc0
c0c0
7380
1e00
0000
ENDCHAR
STARTCHAR 0x2D66
ENCODING 11622
SWIDTH 886 0
DWIDTH 12 0
BBX 12 13 0 -2
BITMAP
0000
1e00
7380
ccc0
ffc0
ada0
ada0
bfa0
ccc0
ccc0
7380
1e00
0000
ENDCHAR
STARTCHAR 0x2D67
ENCODING 11623
SWIDTH 886 0
DWIDTH 12 0
BBX 12 13 0 -2
BITMAP
0000
1e00
7380
c0c0
ffc0
8c60
8e60
8d60
ccc0
ccc0
7380
1e00
0000
ENDCHAR
STARTCHAR 0x2D68
ENCODING 11624
SWIDTH 886 0
DWIDTH 12 0
BBX 12 13 0 -2
BITMAP
0000
1e00
7380
d8c0
ffc0
9860
9f60
b660
e6c0
dfc0
7380
1e00
0000
ENDCHAR
STARTCHAR 0x2D69
ENCODING 11625
SWIDTH 886 0
DWIDTH 12 0
BBX 12 13 0 -2
BITMAP
0000
1e00
7380
d8c0
ffc0
9860
bf60
ab60
db40
df40
7380
1e00
0000
ENDCHAR
STARTCHAR 0x2D6A
ENCODING 11626
SWIDTH 886 0
DWIDTH 12 0
BBX 12 13 0 -2
BITMAP
0000
6180
d540
b560
ffe0
b560
b7e0
db60
b7a0
b560
d340
6180
0000
ENDCHAR
STARTCHAR 0x2D6B
ENCODING 11627
SWIDTH 886 0
DWIDTH 12 0
BBX 12 13 0 -2
BITMAP
0000
6180
d8c0
bfa0
9860
9f60
bb60
af60
9b60
9f60
db40
6180
0000
ENDCHAR
STARTCHAR 0x2D6C
ENCODING 11628
SWIDTH 886 0
DWIDTH 12 0
BBX 12 13 0 -2
BITMAP
0000
6180
dac0
9aa0
b660
bfa0
b660
d660
b660
b660
d340
6180
0000
ENDCHAR
STARTCHAR 0x2D6D
ENCODING 11629
SWIDTH 886 0
DWIDTH 12 0
BBX 12 13 0 -2
BITMAP
0000
7980
ed80
aa80
bb60
ed60
abe0
b800
ebe0
6b60
6d60
dbe0
0000
ENDCHAR
STARTCHAR 0x2D6E
ENCODING 11630
SWIDTH 886 0
DWIDTH 12 0
BBX 12 13 0 -2
BITMAP
0000
6000
6fe0
6180
f980
6680
66e0
d680
d680
d680
9a80
9fe0
0000
ENDCHAR
STARTCHAR 0x2D6F
ENCODING 11631
SWIDTH 886 0
DWIDTH 12 0
BBX 12 13 0 -2
BITMAP
0000
f700
6a00
eae0
afa0
baa0
e6a0
bea0
aba0
aaa0
eaa0
7ae0
0000
ENDCHAR
STARTCHAR 0x2D70
ENCODING 11632
SWIDTH 886 0
DWIDTH 12 0
BBX 12 13 0 -2
BITMAP
0000
3000
7800
3000
0000
ffc0
0000
ffc0
0000
0300
0780
0300
0000
ENDCHAR
STARTCHAR 0x2D71
ENCODING 11633
SWIDTH 886 0
DWIDTH 12 0
BBX 12 13 0 -2
BITMAP
0000
0000
0000
ffc0
0000
0000
ffc0
0000
0000
ffc0
0000
0000
0000
ENDCHAR
STARTCHAR 0x2D72
ENCODING 11634
SWIDTH 886 0
DWIDTH 12 0
BBX 12 13 0 -2
BITMAP
0c00
1a00
1800
1800
1800
0c00
0c00
0600
0600
0600
1a00
0c00
0000
ENDCHAR
STARTCHAR 0x2D73
ENCODING 11635
SWIDTH 886 0
DWIDTH 12 0
BBX 12 13 0 -2
BITMAP
0c00
1a00
1800
1e00
3500
3500
3500
3500
1e00
0600
1a00
0c00
0000
ENDCHAR
STARTCHAR 0x2D74
ENCODING 11636
SWIDTH 886 0
DWIDTH 12 0
BBX 12 13 0 -2
BITMAP
0000
0000
ffc0
6000
3000
1800
0c00
1800
3000
6000
ffc0
0000
0000
ENDCHAR
STARTCHAR 0x2D75
ENCODING 11637
SWIDTH 886 0
DWIDTH 12 0
BBX 12 13 0 -2
BITMAP
07e0
0600
0600
0c00
0c00
cc00
d800
a800
a800
3000
3000
0000
0000
ENDCHAR
STARTCHAR 0x2D76
ENCODING 11638
SWIDTH 886 0
DWIDTH 12 0
BBX 12 13 0 -2
BITMAP
0000
0000
0c00
0c00
0c00
0c00
0c00
0c00
0c00
ffc0
0000
0000
0000
ENDCHAR
STARTCHAR 0x2D77
ENCODING 11639
SWIDTH 886 0
DWIDTH 12 0
BBX 12 13 0 -2
BITMAP
0000
0000
0180
0300
0600
0c00
1800
3000
6000
ffc0
0000
0000
0000
ENDCHAR
STARTCHAR 0x2D78
ENCODING 11640
SWIDTH 886 0
DWIDTH 12 0
BBX 12 13 0 -2
BITMAP
0000
0000
6000
6000
6000
6000
6000
6000
6000
7fc0
0000
0000
0000
ENDCHAR
STARTCHAR 0x2D79
ENCODING 11641
SWIDTH 886 0
DWIDTH 12 0
BBX 12 13 0 -2
BITMAP
0000
0000
0180
0380
0680
0d80
1980
3180
6180
ff80
0000
0000
0000
ENDCHAR
STARTCHAR 0x2D7A
ENCODING 11642
SWIDTH 886 0
DWIDTH 12 0
BBX 12 13 0 -2
BITMAP
0000
0000
6180
f3c0
6180
0000
0000
0c00
1e00
0c00
0000
0000
0000
ENDCHAR
STARTCHAR 0x2D7B
ENCODING 11643
SWIDTH 886 0
DWIDTH 12 0
BBX 12 13 0 -2
BITMAP
0000
0000
1e00
3300
6180
6180
6180
6180
6180
6180
6180
0000
0000
ENDCHAR
STARTCHAR 0x2D7C
ENCODING 11644
SWIDTH 886 0
DWIDTH 12 0
BBX 12 13 0 -2
BITMAP
0000
0000
6180
6180
6180
6180
6180
6180
6180
3300
1e00
0000
0000
ENDCHAR
STARTCHAR 0x3021
ENCODING 12321
SWIDTH 886 0
DWIDTH 12 0
BBX 12 13 0 -2
BITMAP
0000
ffe0
1a00
1a00
ffc0
dac0
dac0
dac0
ffc0
1a00
1a00
ffe0
0000
ENDCHAR
STARTCHAR 0x3022
ENCODING 12322
SWIDTH 886 0
DWIDTH 12 0
BBX 12 13 0 -2
BITMAP
0000
3fe0
e680
a680
afe0
aaa0
aaa0
aaa0
afe0
a680
e680
3fe0
0000
ENDCHAR
STARTCHAR 0x3023
ENCODING 12323
SWIDTH 886 0
DWIDTH 12 0
BBX 12 13 0 -2
BITMAP
0300
c300
cfe0
f300
d300
dfe0
d300
b300
efe0
7300
c300
dfe0
0000
ENDCHAR
STARTCHAR 0x3024
ENCODING 12324
SWIDTH 886 0
DWIDTH 12 0
BBX 12 13 0 -2
BITMAP
0000
efe0
a0c0
a0c0
dec0
aac0
aac0
aac0
aec0
c0c0
80c0
83c0
0000
ENDCHAR
STARTCHAR 0x3025
ENCODING 12325
SWIDTH 886 0
DWIDTH 12 0
BBX 12 13 0 -2
BITMAP
0c00
0c00
ffe0
0000
7f80
6180
6180
7f80
3460
e6c0
6380
fce0
0000
ENDCHAR
STARTCHAR 0x3026
ENCODING 12326
SWIDTH 886 0
DWIDTH 12 0
BBX 12 13 0 -2
BITMAP
0000
ff40
d8c0
6d80
ffe0
b660
d340
9fa0
7180
1b00
1e00
f3e0
0000
ENDCHAR
STARTCHAR 0x3027
ENCODING 12327
SWIDTH 886 0
DWIDTH 12 0
BBX 12 13 0 -2
BITMAP
0600
c6c0
ccc0
ffe0
d800
dfe0
db00
f300
dfe0
c680
ccc0
d860
0000
ENDCHAR
STARTCHAR 0x3028
ENCODING 12328
SWIDTH 886 0
DWIDTH 12 0
BBX 12 13 0 -2
BITMAP
0000
c7c0
cc60
f800
d000
d7e0
d000
b000
efe0
7460
cc60
cfe0
0000
ENDCHAR
STARTCHAR 0x3029
ENCODING 12329
SWIDTH 886 0
DWIDTH 12 0
BBX 12 13 0 -2
BITMAP
0000
0fc0
b8c0
cd80
0f60
3b00
efc0
6300
6fe0
6300
d000
9fe0
0000
ENDCHAR
STARTCHAR 0x302A
ENCODING 12330
SWIDTH 886 0
DWIDTH 12 0
BBX 12 13 0 -2
BITMAP
3300
3300
ffe0
3300
fd60
dac0
7380
df60
0c00
ffc0
3300
e1e0
0000
ENDCHAR
STARTCHAR 0x302B
ENCODING 12331
SWIDTH 886 0
DWIDTH 12 0
BBX 12 13 0 -2
BITMAP
3300
3300
ffe0
3300
ffe0
3600
ffc0
dac0
d6c0
e3c0
c0c0
ffc0
0000
ENDCHAR
STARTCHAR 0x302C
ENCODING 12332
SWIDTH 886 0
DWIDTH 12 0
BBX 12 13 0 -2
BITMAP
0000
3bc0
ed80
6fe0
6d60
f7e0
6d60
efe0
eb60
afe0
ab00
61e0
0000
ENDCHAR
STARTCHAR 0x302D
ENCODING 12333
SWIDTH 886 0
DWIDTH 12 0
BBX 12 13 0 -2
BITMAP
0000
ffe0
1a00
ffc0
dac0
ffc0
1a00
ffe0
0c00
36c0
d060
9f80
0000
ENDCHAR
STARTCHAR 0x302E
ENCODING 12334
SWIDTH 886 0
DWIDTH 12 0
BBX 12 13 0 -2
BITMAP
0000
dfe0
d860
efe0
d800
dfe0
dac0
ebe0
d980
d7e0
d180
cfe0
0000
ENDCHAR
STARTCHAR 0x302F
ENCODING 12335
SWIDTH 886 0
DWIDTH 12 0
BBX 12 13 0 -2
BITMAP
0000
1fe0
9860
dfe0
1800
9fe0
dac0
1be0
d980
d7e0
b180
8fe0
0000
ENDCHAR
STARTCHAR 0x3030
ENCODING 12336
SWIDTH 886 0
DWIDTH 12 0
BBX 12 13 0 -2
BITMAP
0000
cfc0
ccc0
ccc0
f7c0
d4c0
d4c0
d4c0
d7c0
d000
b060
9fe0
0000
ENDCHAR
STARTCHAR 0x3031
ENCODING 12337
SWIDTH 886 0
DWIDTH 12 0
BBX 12 13 0 -2
BITMAP
3300
3300
ffe0
0c00
7f80
1980
ffe0
3300
7fc0
6c00
ffe0
0c00
0000
ENDCHAR
STARTCHAR 0x3032
ENCODING 12338
SWIDTH 886 0
DWIDTH 12 0
BBX 12 13 0 -2
BITMAP
3300
3300
ffe0
3300
ffc0
0000
7fc0
60c0
7fc0
6000
c000
c000
0000
ENDCHAR
STARTCHAR 0x3033
ENCODING 12339
SWIDTH 886 0
DWIDTH 12 0
BBX 12 13 0 -2
BITMAP
0600
f6c0
b4c0
6fe0
fb00
afe0
fb40
aa60
fdc0
0700
a8e0
ab80
0000
ENDCHAR
STARTCHAR 0x3034
ENCODING 12340
SWIDTH 886 0
DWIDTH 12 0
BBX 12 13 0 -2
BITMAP
0300
6300
6fe0
f4c0
6cc0
6d80
efe0
e300
b300
afe0
6300
6300
0000
ENDCHAR
STARTCHAR 0x3035
ENCODING 12341
SWIDTH 886 0
DWIDTH 12 0
BBX 12 13 0 -2
BITMAP
0000
ffe0
c000
c300
c300
c300
dfe0
c300
c300
8300
8300
3fe0
0000
ENDCHAR
STARTCHAR 0x3036
ENCODING 12342
SWIDTH 886 0
DWIDTH 12 0
BBX 12 13 0 -2
BITMAP
6000
6380
fac0
6c60
fb40
99c0
fac0
9b40
f8e0
61c0
fb40
60c0
0000
ENDCHAR
STARTCHAR 0x3037
ENCODING 12343
SWIDTH 886 0
DWIDTH 12 0
BBX 12 13 0 -2
BITMAP
0000
dfc0
ccc0
ed80
cd00
cdc0
d8c0
eac0
d340
d180
c740
dc60
0000
ENDCHAR
STARTCHAR 0x3038
ENCODING 12344
SWIDTH 886 0
DWIDTH 12 0
BBX 12 13 0 -2
BITMAP
0c00
0c00
ffe0
8060
c060
fbc0
dac0
eac0
bac0
1a00
7660
c3e0
0000
ENDCHAR
STARTCHAR 0x3039
ENCODING 12345
SWIDTH 886 0
DWIDTH 12 0
BBX 12 13 0 -2
BITMAP
0000
cfe0
cc60
f460
d7e0
d460
d460
b7e0
ec60
7460
cc60
dfe0
0000
ENDCHAR
STARTCHAR 0x303A
ENCODING 12346
SWIDTH 886 0
DWIDTH 12 0
BBX 12 13 0 -2
BITMAP
0300
6300
6300
ffe0
aa00
aa00
aa00
fa00
6600
6a00
6a00
fbe0
0000
ENDCHAR
STARTCHAR 0x303B
ENCODING 12347
SWIDTH 886 0
DWIDTH 12 0
BBX 12 13 0 -2
BITMAP
0000
f300
9b00
6660
fa60
9be0
f800
9800
fbe0
b660
9a60
f7e0
0000
ENDCHAR
STARTCHAR 0x303C
ENCODING 12348
SWIDTH 886 0
DWIDTH 12 0
BBX 12 13 0 -2
BITMAP
0c00
6c00
cfe0
9860
e860
6fa0
cda0
f7a0
6da0
b7a0
a060
61c0
0000
ENDCHAR
STARTCHAR 0x303D
ENCODING 12349
SWIDTH 886 0
DWIDTH 12 0
BBX 12 13 0 -2
BITMAP
0300
6300
dfe0
8300
efe0
6680
dce0
f7c0
6cc0
a6c0
a780
6ce0
0000
ENDCHAR
STARTCHAR 0x303E
ENCODING 12350
SWIDTH 886 0
DWIDTH 12 0
BBX 12 13 0 -2
BITMAP
0300
f300
b300
63e0
fb00
ab00
fb00
abe0
fa60
0660
aa60
abe0
0000
ENDCHAR
STARTCHAR 0x303F
ENCODING 12351
SWIDTH 886 0
DWIDTH 12 0
BBX 12 13 0 -2
BITMAP
0300
0360
ffe0
0300
fb00
db60
d9a0
f9a0
00c0
39c0
e760
1c60
0000
ENDCHAR
STARTCHAR 0x3040
ENCODING 12352
SWIDTH 886 0
DWIDTH 12 0
BBX 12 13 0 -2
BITMAP
0000
ffe0
1a00
ffc0
dac0
dac0
ffc0
6d80
ffe0
1d00
7580
cce0
0000
ENDCHAR
STARTCHAR 0x3041
ENCODING 12353
SWIDTH 886 0
DWIDTH 12 0
BBX 12 13 0 -2
BITMAP
0000
67c0
6c60
f800
3000
37e0
6000
e000
b7e0
6c60
6c60
6fe0
0000
ENDCHAR
STARTCHAR 0x3042
ENCODING 12354
SWIDTH 886 0
DWIDTH 12 0
BBX 12 13 0 -2
BITMAP
0c00
0c00
ffe0
8060
9860
1800
ffe0
3180
3180
7300
1f00
f1c0
0000
ENDCHAR
STARTCHAR 0x3043
ENCODING 12355
SWIDTH 886 0
DWIDTH 12 0
BBX 12 13 0 -2
BITMAP
0600
0600
ffe0
cc00
ffe0
da80
d6c0
ffe0
d6c0
dfc0
b660
87e0
0000
ENDCHAR
STARTCHAR 0x3044
ENCODING 12356
SWIDTH 886 0
DWIDTH 12 0
BBX 12 13 0 -2
BITMAP
0600
c600
dfe0
f060
d660
c600
dfe0
ecc0
ccc0
dd80
c780
dce0
0000
ENDCHAR
STARTCHAR 0x3045
ENCODING 12357
SWIDTH 886 0
DWIDTH 12 0
BBX 12 13 0 -2
BITMAP
0300
0300
ffe0
b6c0
b6c0
bfe0
f000
b7e0
b460
b7e0
f460
0fe0
0000
ENDCHAR
STARTCHAR 0x3046
ENCODING 12358
SWIDTH 886 0
DWIDTH 12 0
BBX 12 13 0 -2
BITMAP
0c00
0c00
ffe0
9860
ffe0
3180
3f00
6d80
ffe0
1d00
7580
cce0
0000
ENDCHAR
STARTCHAR 0x3047
ENCODING 12359
SWIDTH 886 0
DWIDTH 12 0
BBX 12 13 0 -2
BITMAP
0000
fbe0
9a60
fbe0
9a60
ffe0
9a60
bfa0
b360
bf60
b360
bf60
0000
ENDCHAR
STARTCHAR 0x3048
ENCODING 12360
SWIDTH 886 0
DWIDTH 12 0
BBX 12 13 0 -2
BITMAP
0300
d300
ffe0
d460
f560
6300
ffe0
aac0
fac0
6680
fb80
6ee0
0000
ENDCHAR
STARTCHAR 0x3049
ENCODING 12361
SWIDTH 886 0
DWIDTH 12 0
BBX 12 13 0 -2
BITMAP
0c00
0c00
ffe0
0c00
1d00
7580
ccc0
0c60
7f80
6180
6180
7f80
0000
ENDCHAR
STARTCHAR 0x304A
ENCODING 12362
SWIDTH 886 0
DWIDTH 12 0
BBX 12 13 0 -2
BITMAP
0000
60c0
6cc0
6cc0
66c0
66c0
60c0
6180
7980
c340
0e60
3860
0000
ENDCHAR
STARTCHAR 0x304B
ENCODING 12363
SWIDTH 886 0
DWIDTH 12 0
BBX 12 13 0 -2
BITMAP
0000
6fe0
6360
c360
dfe0
c360
c360
dfe0
c300
c300
c600
dc00
0000
ENDCHAR
STARTCHAR 0x304C
ENCODING 12364
SWIDTH 886 0
DWIDTH 12 0
BBX 12 13 0 -2
BITMAP
0300
6300
6300
dfe0
c000
ccc0
ccc0
ccc0
ccc0
cd80
c180
dfe0
0000
ENDCHAR
STARTCHAR 0x304D
ENCODING 12365
SWIDTH 886 0
DWIDTH 12 0
BBX 12 13 0 -2
BITMAP
0300
6300
7fe0
c600
c600
cd60
db60
db40
e980
d980
db40
dc60
0000
ENDCHAR
STARTCHAR 0x304E
ENCODING 12366
SWIDTH 886 0
DWIDTH 12 0
BBX 12 13 0 -2
BITMAP
0300
6300
6fe0
c660
dfe0
d8c0
dfc0
c300
dfe0
db00
dfe0
c300
0000
ENDCHAR
STARTCHAR 0x304F
ENCODING 12367
SWIDTH 886 0
DWIDTH 12 0
BBX 12 13 0 -2
BITMAP
0000
ffe0
8060
9b60
bfa0
9b60
9b60
bfa0
b360
b360
8060
ffe0
0000
ENDCHAR
STARTCHAR 0x3050
ENCODING 12368
SWIDTH 886 0
DWIDTH 12 0
BBX 12 13 0 -2
BITMAP
0c00
0c00
ffe0
0c00
ffc0
0cc0
ffc0
cc00
ffe0
1a60
7380
c0e0
0000
ENDCHAR
STARTCHAR 0x3051
ENCODING 12369
SWIDTH 886 0
DWIDTH 12 0
BBX 12 13 0 -2
BITMAP
0000
ffc0
0c00
ffe0
1d00
7580
cce0
1800
ffe0
3180
3f00
e1c0
0000
ENDCHAR
STARTCHAR 0x3052
ENCODING 12370
SWIDTH 886 0
DWIDTH 12 0
BBX 12 13 0 -2
BITMAP
0180
01a0
ffe0
c180
fe80
d9a0
ffa0
d6a0
d6c0
d4c0
9da0
b760
0000
ENDCHAR
STARTCHAR 0x3053
ENCODING 12371
SWIDTH 886 0
DWIDTH 12 0
BBX 12 13 0 -2
BITMAP
0060
fe60
c660
ffe0
c060
fe60
c360
fea0
d860
aa60
aa60
38e0
0000
ENDCHAR
STARTCHAR 0x3054
ENCODING 12372
SWIDTH 886 0
DWIDTH 12 0
BBX 12 13 0 -2
BITMAP
0600
66c0
66c0
6fe0
ad80
afe0
b580
ad80
afe0
6d80
6d80
6fe0
0000
ENDCHAR
STARTCHAR 0x3055
ENCODING 12373
SWIDTH 886 0
DWIDTH 12 0
BBX 12 13 0 -2
BITMAP
0c00
0c00
ffe0
3300
ffe0
6180
7f80
6180
7f80
36c0
d060
9f80
0000
ENDCHAR
STARTCHAR 0x3056
ENCODING 12374
SWIDTH 886 0
DWIDTH 12 0
BBX 12 13 0 -2
BITMAP
00c0
f8c0
9fe0
f8c0
86c0
fb40
60c0
a8c0
adc0
3000
d0c0
9f60
0000
ENDCHAR
STARTCHAR 0x3057
ENCODING 12375
SWIDTH 886 0
DWIDTH 12 0
BBX 12 13 0 -2
BITMAP
0000
7fc0
60c0
7fc0
60c0
7fc0
3000
7fe0
db60
9b60
3660
6dc0
0000
ENDCHAR
STARTCHAR 0x3058
ENCODING 12376
SWIDTH 886 0
DWIDTH 12 0
BBX 12 13 0 -2
BITMAP
0300
6300
6fe0
f680
6cc0
6860
efe0
e060
af60
ad60
6f60
60e0
0000
ENDCHAR
STARTCHAR 0x3059
ENCODING 12377
SWIDTH 886 0
DWIDTH 12 0
BBX 12 13 0 -2
BITMAP
6600
3600
0c00
ff80
1980
3fc0
60c0
ffe0
8060
d560
d560
01c0
0000
ENDCHAR
STARTCHAR 0x305A
ENCODING 12378
SWIDTH 886 0
DWIDTH 12 0
BBX 12 13 0 -2
BITMAP
0000
ffc0
ccc0
ffc0
ccc0
ffc0
0000
ffe0
6cc0
66c0
6380
f8e0
0000
ENDCHAR
STARTCHAR 0x305B
ENCODING 12379
SWIDTH 886 0
DWIDTH 12 0
BBX 12 13 0 -2
BITMAP
0000
ffc0
ccc0
ffc0
ccc0
ffc0
3300
ffe0
3300
ffe0
6180
c0c0
0000
ENDCHAR
STARTCHAR 0x305C
ENCODING 12380
SWIDTH 886 0
DWIDTH 12 0
BBX 12 13 0 -2
BITMAP
0300
3b00
e7e0
6c60
66c0
f380
6e00
e7e0
ec60
a6c0
a380
6e00
0000
ENDCHAR
STARTCHAR 0x305D
ENCODING 12381
SWIDTH 886 0
DWIDTH 12 0
BBX 12 13 0 -2
BITMAP
0600
66c0
c6c0
8fe0
f580
6fe0
cd80
f580
6fe0
b580
ad80
6fe0
0000
ENDCHAR
STARTCHAR 0x305E
ENCODING 12382
SWIDTH 886 0
DWIDTH 12 0
BBX 12 13 0 -2
BITMAP
0180
6180
dfe0
8360
efe0
6c60
cfe0
f180
6fe0
b580
afe0
6180
0000
ENDCHAR
STARTCHAR 0x305F
ENCODING 12383
SWIDTH 886 0
DWIDTH 12 0
BBX 12 13 0 -2
BITMAP
0000
ffe0
cc60
ffe0
cc60
ffe0
60c0
7fc0
60c0
7fc0
60c0
61c0
0000
ENDCHAR
STARTCHAR 0x3060
ENCODING 12384
SWIDTH 886 0
DWIDTH 12 0
BBX 12 13 0 -2
BITMAP
3300
3300
ffe0
0c00
ffe0
3500
edc0
1800
ffe0
3180
3f00
e1c0
0000
ENDCHAR
STARTCHAR 0x3061
ENCODING 12385
SWIDTH 886 0
DWIDTH 12 0
BBX 12 13 0 -2
BITMAP
0c00
0c00
ffe0
0c00
1800
3660
66c0
e380
a300
6180
6ec0
f860
0000
ENDCHAR
STARTCHAR 0x3062
ENCODING 12386
SWIDTH 886 0
DWIDTH 12 0
BBX 12 13 0 -2
BITMAP
0000
efe0
1b60
efe0
1b60
efe0
0cc0
0fc0
ecc0
afc0
acc0
edc0
0000
ENDCHAR
STARTCHAR 0x3063
ENCODING 12387
SWIDTH 886 0
DWIDTH 12 0
BBX 12 13 0 -2
BITMAP
0300
0300
dfe0
6360
1fe0
0cc0
efe0
6d80
6fe0
6180
d000
9fe0
0000
ENDCHAR
STARTCHAR 0x3064
ENCODING 12388
SWIDTH 886 0
DWIDTH 12 0
BBX 12 13 0 -2
BITMAP
0300
0300
9fe0
db60
3fe0
0cc0
efc0
6cc0
6fc0
6860
d000
9fe0
0000
ENDCHAR
STARTCHAR 0x3065
ENCODING 12389
SWIDTH 886 0
DWIDTH 12 0
BBX 12 13 0 -2
BITMAP
0000
ffe0
b000
bfc0
b600
a600
bfc0
8d00
9980
b0c0
8000
ffe0
0000
ENDCHAR
STARTCHAR 0x3066
ENCODING 12390
SWIDTH 886 0
DWIDTH 12 0
BBX 12 13 0 -2
BITMAP
3300
3300
3300
ffe0
3300
3300
3300
ffe0
6300
6300
c300
c300
0000
ENDCHAR
STARTCHAR 0x3067
ENCODING 12391
SWIDTH 886 0
DWIDTH 12 0
BBX 12 13 0 -2
BITMAP
0c00
0c00
ffe0
3180
6300
3600
1cc0
f180
0300
0e00
3b80
e0e0
0000
ENDCHAR
STARTCHAR 0x3068
ENCODING 12392
SWIDTH 886 0
DWIDTH 12 0
BBX 12 13 0 -2
BITMAP
0180
c1a0
dfe0
c180
ee80
daa0
daa0
dec0
c0c0
dea0
e360
0e60
0000
ENDCHAR
STARTCHAR 0x3069
ENCODING 12393
SWIDTH 886 0
DWIDTH 12 0
BBX 12 13 0 -2
BITMAP
0c00
0c00
ffe0
1b00
3180
ffc0
61a0
7f80
6180
7f80
6180
6380
0000
ENDCHAR
STARTCHAR 0x306A
ENCODING 12394
SWIDTH 886 0
DWIDTH 12 0
BBX 12 13 0 -2
BITMAP
3000
33e0
ff60
6360
6340
fd80
cd40
fd60
cd60
fd60
cdc0
dd00
0000
ENDCHAR
STARTCHAR 0x306B
ENCODING 12395
SWIDTH 886 0
DWIDTH 12 0
BBX 12 13 0 -2
BITMAP
0300
0d40
fba0
6d40
6aa0
6fe0
f300
d7e0
d580
d6a0
d9c0
f760
0000
ENDCHAR
STARTCHAR 0x306C
ENCODING 12396
SWIDTH 886 0
DWIDTH 12 0
BBX 12 13 0 -2
BITMAP
0000
0000
0000
0000
0000
0000
ffe0
0000
0000
0000
0000
0000
0000
ENDCHAR
STARTCHAR 0x306D
ENCODING 12397
SWIDTH 886 0
DWIDTH 12 0
BBX 12 13 0 -2
BITMAP
0c00
0c00
ffe0
0c00
ffc0
0000
ffe0
b060
b3a0
3e00
30c0
1fc0
0000
ENDCHAR
STARTCHAR 0x306E
ENCODING 12398
SWIDTH 886 0
DWIDTH 12 0
BBX 12 13 0 -2
BITMAP
3180
1980
8300
ffe0
1980
9980
d0c0
3fe0
d540
d540
b540
bfe0
0000
ENDCHAR
STARTCHAR 0x306F
ENCODING 12399
SWIDTH 886 0
DWIDTH 12 0
BBX 12 13 0 -2
BITMAP
0000
0fc0
9980
dfe0
1b60
1b60
efe0
6680
6d80
69e0
d000
9fe0
0000
ENDCHAR
STARTCHAR 0x3070
ENCODING 12400
SWIDTH 886 0
DWIDTH 12 0
BBX 12 13 0 -2
BITMAP
0000
3fa0
e660
6b40
6cc0
f000
6be0
ea60
ebe0
aa60
aa60
6be0
0000
ENDCHAR
STARTCHAR 0x3071
ENCODING 12401
SWIDTH 886 0
DWIDTH 12 0
BBX 12 13 0 -2
BITMAP
3300
3300
ffe0
3300
0c00
cfe0
6b60
3340
0300
6680
ccc0
b860
0000
ENDCHAR
STARTCHAR 0x3072
ENCODING 12402
SWIDTH 886 0
DWIDTH 12 0
BBX 12 13 0 -2
BITMAP
3300
3300
ffe0
3300
0000
ffc0
0c00
0c00
ffe0
0c00
0c00
3c00
0000
ENDCHAR
STARTCHAR 0x3073
ENCODING 12403
SWIDTH 886 0
DWIDTH 12 0
BBX 12 13 0 -2
BITMAP
0000
ffe0
b660
6ee0
f980
aee0
f760
aaa0
f6e0
1aa0
b760
adc0
0000
ENDCHAR
STARTCHAR 0x3074
ENCODING 12404
SWIDTH 886 0
DWIDTH 12 0
BBX 12 13 0 -2
BITMAP
1800
1800
3180
3180
60c0
ffc0
3660
3660
3600
3600
6660
c3e0
0000
ENDCHAR
STARTCHAR 0x3075
ENCODING 12405
SWIDTH 886 0
DWIDTH 12 0
BBX 12 13 0 -2
BITMAP
0000
3800
e7e0
8660
8660
fa60
8660
8660
8660
8660
fae0
0600
0000
ENDCHAR
STARTCHAR 0x3076
ENCODING 12406
SWIDTH 886 0
DWIDTH 12 0
BBX 12 13 0 -2
BITMAP
0000
1fe0
eb60
ab60
afe0
ab60
ab60
ab60
aaa0
ace0
e860
1fe0
0000
ENDCHAR
STARTCHAR 0x3077
ENCODING 12407
SWIDTH 886 0
DWIDTH 12 0
BBX 12 13 0 -2
BITMAP
0000
ffc0
c0c0
ffc0
0000
ffc0
c0c0
ffc0
c0c0
ffc0
6180
c0e0
0000
ENDCHAR
STARTCHAR 0x3078
ENCODING 12408
SWIDTH 886 0
DWIDTH 12 0
BBX 12 13 0 -2
BITMAP
0000
ffe0
8c60
8c60
bfa0
8c60
8c60
9a60
b360
a1a0
8060
ffe0
0000
ENDCHAR
STARTCHAR 0x3079
ENCODING 12409
SWIDTH 886 0
DWIDTH 12 0
BBX 12 13 0 -2
BITMAP
0000
dfe0
db60
fb60
dfe0
db60
db60
9b60
eaa0
7ce0
d860
dfe0
0000
ENDCHAR
STARTCHAR 0x307A
ENCODING 12410
SWIDTH 886 0
DWIDTH 12 0
BBX 12 13 0 -2
BITMAP
0000
f8c0
18c0
18c0
f8c0
80c0
80c0
f8c0
18c0
18c0
30c0
e0c0
0000
ENDCHAR
STARTCHAR 0x307B
ENCODING 12411
SWIDTH 886 0
DWIDTH 12 0
BBX 12 13 0 -2
BITMAP
0600
f600
9be0
66a0
faa0
9aa0
f980
9980
fb40
b340
9a60
f460
0000
ENDCHAR
STARTCHAR 0x307C
ENCODING 12412
SWIDTH 886 0
DWIDTH 12 0
BBX 12 13 0 -2
BITMAP
0000
3fa0
8660
db40
0cc0
8000
dfe0
0300
dfe0
c300
8300
bfe0
0000
ENDCHAR
STARTCHAR 0x307D
ENCODING 12413
SWIDTH 886 0
DWIDTH 12 0
BBX 12 13 0 -2
BITMAP
0c00
d8c0
d340
df40
ccc0
db40
df40
d340
df40
d360
bf60
b360
0000
ENDCHAR
STARTCHAR 0x307E
ENCODING 12414
SWIDTH 886 0
DWIDTH 12 0
BBX 12 13 0 -2
BITMAP
3300
3300
ffe0
3300
f7c0
b460
a7c0
a180
b7e0
b600
ec60
8fe0
0000
ENDCHAR
STARTCHAR 0x3121
ENCODING 12577
SWIDTH 886 0
DWIDTH 12 0
BBX 12 13 0 -2
BITMAP
0300
e300
afe0
a860
cfe0
a000
a000
afe0
a680
c680
8da0
b9e0
0000
ENDCHAR
STARTCHAR 0x3122
ENCODING 12578
SWIDTH 886 0
DWIDTH 12 0
BBX 12 13 0 -2
BITMAP
0000
e780
acc0
a860
d7c0
a000
afc0
a180
afe0
cc00
9860
9fe0
0000
ENDCHAR
STARTCHAR 0x3123
ENCODING 12579
SWIDTH 886 0
DWIDTH 12 0
BBX 12 13 0 -2
BITMAP
0000
efe0
ad60
ad40
dfe0
a060
afe0
a060
afe0
cd00
b4c0
a7a0
0000
ENDCHAR
STARTCHAR 0x3124
ENCODING 12580
SWIDTH 886 0
DWIDTH 12 0
BBX 12 13 0 -2
BITMAP
6000
6fe0
f460
d7e0
d000
ffe0
0c60
f7e0
b460
f7e0
b6c0
fc60
0000
ENDCHAR
STARTCHAR 0x3125
ENCODING 12581
SWIDTH 886 0
DWIDTH 12 0
BBX 12 13 0 -2
BITMAP
00c0
00c0
f0c0
bfe0
b0c0
b0c0
b4c0
b6c0
b0c0
b0c0
f0c0
03c0
0000
ENDCHAR
STARTCHAR 0x3126
ENCODING 12582
SWIDTH 886 0
DWIDTH 12 0
BBX 12 13 0 -2
BITMAP
0c00
0c00
ffe0
0c00
0c00
1800
3fc0
70c0
d0c0
30c0
30c0
3fc0
0000
ENDCHAR
STARTCHAR 0x3127
ENCODING 12583
SWIDTH 886 0
DWIDTH 12 0
BBX 12 13 0 -2
BITMAP
0c00
0c00
ffe0
8060
8060
7f80
0c00
0c00
ffe0
0c00
0c00
3c00
0000
ENDCHAR
STARTCHAR 0x3128
ENCODING 12584
SWIDTH 886 0
DWIDTH 12 0
BBX 12 13 0 -2
BITMAP
0c00
1800
7f80
6180
7f80
6000
7fe0
6000
7fe0
0060
d560
b560
0000
ENDCHAR
STARTCHAR 0x3129
ENCODING 12585
SWIDTH 886 0
DWIDTH 12 0
BBX 12 13 0 -2
BITMAP
0000
fbe0
1860
1860
9a60
db60
38e0
69a0
db60
9a60
1860
38e0
0000
ENDCHAR
STARTCHAR 0x312A
ENCODING 12586
SWIDTH 886 0
DWIDTH 12 0
BBX 12 13 0 -2
BITMAP
0000
1fe0
c180
6180
0180
1fe0
e180
6180
6180
6380
d000
9fe0
0000
ENDCHAR
STARTCHAR 0x312B
ENCODING 12587
SWIDTH 886 0
DWIDTH 12 0
BBX 12 13 0 -2
BITMAP
0000
ffe0
0c00
0c00
ffe0
8c60
ad60
b5a0
8c60
ad60
b5a0
8ce0
0000
ENDCHAR
STARTCHAR 0x312C
ENCODING 12588
SWIDTH 886 0
DWIDTH 12 0
BBX 12 13 0 -2
BITMAP
0000
1de0
f360
c360
cd60
cd60
cd60
dd60
ed60
0d60
1b00
7300
0000
ENDCHAR
STARTCHAR 0x312D
ENCODING 12589
SWIDTH 886 0
DWIDTH 12 0
BBX 12 13 0 -2
BITMAP
9980
db00
37c0
fac0
6bc0
fac0
a7e0
fa00
6be0
e860
ad60
6b60
0000
ENDCHAR
STARTCHAR 0x312E
ENCODING 12590
SWIDTH 886 0
DWIDTH 12 0
BBX 12 13 0 -2
BITMAP
0c00
0c00
ffe0
9a60
f7c0
6cc0
ffc0
6cc0
ffc0
6680
d6a0
9de0
0000
ENDCHAR
STARTCHAR 0x312F
ENCODING 12591
SWIDTH 886 0
DWIDTH 12 0
BBX 12 13 0 -2
BITMAP
0000
ff80
1980
1980
1980
1980
ffe0
3300
3300
3300
3300
ffe0
0000
ENDCHAR
STARTCHAR 0x3130
ENCODING 12592
SWIDTH 886 0
DWIDTH 12 0
BBX 12 13 0 -2
BITMAP
0600
06c0
fac0
6fe0
6d80
6fe0
f580
d580
d7e0
d580
d580
f7e0
0000
ENDCHAR
STARTCHAR 0x3131
ENCODING 12593
SWIDTH 886 0
DWIDTH 12 0
BBX 12 13 0 -2
BITMAP
0000
0e00
3800
e3e0
c060
c060
c060
fbe0
c060
c060
c060
ffe0
0000
ENDCHAR
STARTCHAR 0x3132
ENCODING 12594
SWIDTH 886 0
DWIDTH 12 0
BBX 12 13 0 -2
BITMAP
0000
1fc0
98c0
dbc0
1ac0
bfe0
d060
37a0
d5a0
d5a0
b7a0
b0e0
0000
ENDCHAR
STARTCHAR 0x3133
ENCODING 12595
SWIDTH 886 0
DWIDTH 12 0
BBX 12 13 0 -2
BITMAP
0600
07c0
e600
bfe0
ac60
bfc0
ac00
afe0
b6a0
aac0
e680
3fe0
0000
ENDCHAR
STARTCHAR 0x3134
ENCODING 12596
SWIDTH 886 0
DWIDTH 12 0
BBX 12 13 0 -2
BITMAP
0000
0fe0
f460
b7e0
b460
b7e0
b460
b460
b7e0
f000
0cc0
1860
0000
ENDCHAR
STARTCHAR 0x3135
ENCODING 12597
SWIDTH 886 0
DWIDTH 12 0
BBX 12 13 0 -2
BITMAP
6180
6a80
f5e0
eac0
ada0
ffe0
b360
ffe0
8d60
fda0
9860
f6e0
0000
ENDCHAR
STARTCHAR 0x3136
ENCODING 12598
SWIDTH 886 0
DWIDTH 12 0
BBX 12 13 0 -2
BITMAP
3300
3300
ffe0
3300
f8c0
9fe0
f8c0
86c0
fb40
60c0
a8c0
adc0
0000
ENDCHAR
STARTCHAR 0x3137
ENCODING 12599
SWIDTH 886 0
DWIDTH 12 0
BBX 12 13 0 -2
BITMAP
0000
f7c0
b6c0
67c0
fac0
afe0
faa0
afe0
fac0
06c0
ab80
aee0
0000
ENDCHAR
STARTCHAR 0x3138
ENCODING 12600
SWIDTH 886 0
DWIDTH 12 0
BBX 12 13 0 -2
BITMAP
0600
c600
dfe0
f6c0
d680
dfe0
d600
b5c0
ef00
7400
cc60
cfe0
0000
ENDCHAR
STARTCHAR 0x3139
ENCODING 12601
SWIDTH 886 0
DWIDTH 12 0
BBX 12 13 0 -2
BITMAP
0000
ffe0
8000
bde0
ad40
bd40
ad40
bfe0
a0c0
a9c0
ad40
bae0
0000
ENDCHAR
STARTCHAR 0x313A
ENCODING 12602
SWIDTH 886 0
DWIDTH 12 0
BBX 12 13 0 -2
BITMAP
0300
0360
bfe0
c300
1fe0
9b60
dfe0
1b60
1fe0
6b60
db60
9b60
0000
ENDCHAR
STARTCHAR 0x313B
ENCODING 12603
SWIDTH 886 0
DWIDTH 12 0
BBX 12 13 0 -2
BITMAP
0000
ffe0
d980
d980
d980
d980
d980
d8c0
db40
9b40
bf60
8060
0000
ENDCHAR
STARTCHAR 0x313C
ENCODING 12604
SWIDTH 886 0
DWIDTH 12 0
BBX 12 13 0 -2
BITMAP
0000
fbe0
9a60
fbe0
9a60
fbe0
8060
bfa0
8c60
bf60
8c60
bfa0
0000
ENDCHAR
STARTCHAR 0x313D
ENCODING 12605
SWIDTH 886 0
DWIDTH 12 0
BBX 12 13 0 -2
BITMAP
0cc0
0d80
ffe0
a680
afe0
aaa0
ade0
a860
bfe0
a0c0
ecc0
06c0
0000
ENDCHAR
STARTCHAR 0x313E
ENCODING 12606
SWIDTH 886 0
DWIDTH 12 0
BBX 12 13 0 -2
BITMAP
0000
ffc0
0000
0000
0000
ffe0
3000
3180
6180
6180
c740
fcc0
0000
ENDCHAR
STARTCHAR 0x313F
ENCODING 12607
SWIDTH 886 0
DWIDTH 12 0
BBX 12 13 0 -2
BITMAP
0000
3fe0
b360
dfe0
1b60
1fe0
eb60
6fe0
6300
6fe0
d300
9fe0
0000
ENDCHAR
STARTCHAR 0x3140
ENCODING 12608
SWIDTH 886 0
DWIDTH 12 0
BBX 12 13 0 -2
BITMAP
0000
ffc0
0c00
ffe0
ad60
b5a0
0c00
ffc0
0000
ffe0
6180
ff40
0000
ENDCHAR
STARTCHAR 0x3141
ENCODING 12609
SWIDTH 886 0
DWIDTH 12 0
BBX 12 13 0 -2
BITMAP
3300
3300
ffe0
3300
6000
6fe0
c300
c300
dfe0
c300
c300
dfe0
0000
ENDCHAR
STARTCHAR 0x3142
ENCODING 12610
SWIDTH 886 0
DWIDTH 12 0
BBX 12 13 0 -2
BITMAP
0000
f7e0
9ac0
66c0
fbc0
9ac0
fac0
9bc0
fac0
a6e0
b7c0
e8c0
0000
ENDCHAR
STARTCHAR 0x3143
ENCODING 12611
SWIDTH 886 0
DWIDTH 12 0
BBX 12 13 0 -2
BITMAP
3000
3de0
3060
fe60
b6a0
d5a0
aaa0
fda0
cec0
fcc0
cda0
ff60
0000
ENDCHAR
STARTCHAR 0x3144
ENCODING 12612
SWIDTH 886 0
DWIDTH 12 0
BBX 12 13 0 -2
BITMAP
0c00
6cc0
6d80
ffe0
b360
b360
bf60
0c00
7f80
6180
6180
7f80
0000
ENDCHAR
STARTCHAR 0x3145
ENCODING 12613
SWIDTH 886 0
DWIDTH 12 0
BBX 12 13 0 -2
BITMAP
0000
fbe0
9a60
fbe0
9a60
fbe0
6d80
d8c0
ffe0
3180
3f00
e1c0
0000
ENDCHAR
STARTCHAR 0x3146
ENCODING 12614
SWIDTH 886 0
DWIDTH 12 0
BBX 12 13 0 -2
BITMAP
0000
fc60
8cc0
fd80
8c00
fc60
30c0
fe80
d800
f860
b4c0
b680
0000
ENDCHAR
STARTCHAR 0x3147
ENCODING 12615
SWIDTH 886 0
DWIDTH 12 0
BBX 12 13 0 -2
BITMAP
0300
0300
efe0
ab60
ab60
ab60
eb60
bfe0
a300
a680
ecc0
3860
0000
ENDCHAR
STARTCHAR 0x3148
ENCODING 12616
SWIDTH 886 0
DWIDTH 12 0
BBX 12 13 0 -2
BITMAP
0c00
0c00
ffc0
ccc0
ffc0
ccc0
ffc0
06c0
0680
0700
1d60
f1e0
0000
ENDCHAR
STARTCHAR 0x3149
ENCODING 12617
SWIDTH 886 0
DWIDTH 12 0
BBX 12 13 0 -2
BITMAP
18c0
cd80
6300
ffe0
8c60
0c00
ffc0
0c00
1d00
7580
cce0
0c00
0000
ENDCHAR
STARTCHAR 0x314A
ENCODING 12618
SWIDTH 886 0
DWIDTH 12 0
BBX 12 13 0 -2
BITMAP
3800
0e00
0000
7cc0
0d80
f500
3600
3500
6d80
ccc0
8c60
3c00
0000
ENDCHAR
STARTCHAR 0x314B
ENCODING 12619
SWIDTH 886 0
DWIDTH 12 0
BBX 12 13 0 -2
BITMAP
0600
0300
8000
df00
0360
bd40
cd80
0d00
db80
db40
b360
b700
0000
ENDCHAR
STARTCHAR 0x314C
ENCODING 12620
SWIDTH 886 0
DWIDTH 12 0
BBX 12 13 0 -2
BITMAP
0300
0300
bfe0
d360
3fe0
b360
dfe0
0360
0340
6380
cea0
b8e0
0000
ENDCHAR
STARTCHAR 0x314D
ENCODING 12621
SWIDTH 886 0
DWIDTH 12 0
BBX 12 13 0 -2
BITMAP
0cc0
0cc0
efe0
cd40
c300
efe0
db60
db60
dfe0
c680
ecc0
3860
0000
ENDCHAR
STARTCHAR 0x314E
ENCODING 12622
SWIDTH 886 0
DWIDTH 12 0
BBX 12 13 0 -2
BITMAP
0000
ff80
6300
7de0
cd60
d860
9dc0
b000
ffc0
dac0
dac0
ffe0
0000
ENDCHAR
STARTCHAR 0x314F
ENCODING 12623
SWIDTH 886 0
DWIDTH 12 0
BBX 12 13 0 -2
BITMAP
0000
9fe0
f300
8fe0
f460
0fe0
f460
6fe0
fc60
6fe0
f6c0
ac60
0000
ENDCHAR
STARTCHAR 0x3150
ENCODING 12624
SWIDTH 886 0
DWIDTH 12 0
BBX 12 13 0 -2
BITMAP
0000
9fe0
f300
8fe0
f460
0fe0
f460
0fe0
fc60
6fe0
a6c0
ac60
0000
ENDCHAR
STARTCHAR 0x3151
ENCODING 12625
SWIDTH 886 0
DWIDTH 12 0
BBX 12 13 0 -2
BITMAP
3300
3300
ffe0
3500
0c00
7f80
6d80
6d80
ffe0
1a00
7380
c0e0
0000
ENDCHAR
STARTCHAR 0x3152
ENCODING 12626
SWIDTH 886 0
DWIDTH 12 0
BBX 12 13 0 -2
BITMAP
0c00
6de0
df00
8d00
3fe0
6b60
df60
c660
dfa0
d660
ffa0
c6e0
0000
ENDCHAR
STARTCHAR 0x3153
ENCODING 12627
SWIDTH 886 0
DWIDTH 12 0
BBX 12 13 0 -2
BITMAP
0600
e300
0000
ef00
0360
e340
3d80
0d00
ed80
ab40
b360
ef00
0000
ENDCHAR
STARTCHAR 0x3154
ENCODING 12628
SWIDTH 886 0
DWIDTH 12 0
BBX 12 13 0 -2
BITMAP
0cc0
76c0
d980
8fe0
f460
6c60
f7e0
6680
b680
a680
6da0
f9e0
0000
ENDCHAR
STARTCHAR 0x3155
ENCODING 12629
SWIDTH 886 0
DWIDTH 12 0
BBX 12 13 0 -2
BITMAP
0300
0300
bfe0
db00
1bc0
b6c0
d6c0
7540
d540
d180
b380
b6e0
0000
ENDCHAR
STARTCHAR 0x3156
ENCODING 12630
SWIDTH 886 0
DWIDTH 12 0
BBX 12 13 0 -2
BITMAP
0600
0600
ffe0
c000
df80
d9a0
d9e0
c000
dfc0
d8c0
8f80
b8e0
0000
ENDCHAR
STARTCHAR 0x3157
ENCODING 12631
SWIDTH 886 0
DWIDTH 12 0
BBX 12 13 0 -2
BITMAP
6300
3300
0600
ffe0
3300
6180
c0c0
ffe0
dac0
dac0
dac0
ffe0
0000
ENDCHAR
STARTCHAR 0x3158
ENCODING 12632
SWIDTH 886 0
DWIDTH 12 0
BBX 12 13 0 -2
BITMAP
0000
fbe0
a660
fa60
a660
fbe0
a680
fa80
1ac0
aac0
1c60
7460
0000
ENDCHAR
STARTCHAR 0x3159
ENCODING 12633
SWIDTH 886 0
DWIDTH 12 0
BBX 12 13 0 -2
BITMAP
0cc0
66c0
6180
6fe0
b460
ac60
afe0
a680
a680
6680
6da0
79e0
0000
ENDCHAR
STARTCHAR 0x315A
ENCODING 12634
SWIDTH 886 0
DWIDTH 12 0
BBX 12 13 0 -2
BITMAP
0000
efc0
18c0
efc0
18c0
efc0
0c00
1fe0
f860
ab60
af60
e1c0
0000
ENDCHAR
STARTCHAR 0x315B
ENCODING 12635
SWIDTH 886 0
DWIDTH 12 0
BBX 12 13 0 -2
BITMAP
6180
61a0
fbe0
6680
66a0
fea0
66c0
7ac0
a6a0
af60
f000
9fe0
0000
ENDCHAR
STARTCHAR 0x315C
ENCODING 12636
SWIDTH 886 0
DWIDTH 12 0
BBX 12 13 0 -2
BITMAP
0000
fbe0
9a60
fbe0
9a60
fbe0
9a60
bf60
b360
bf60
9aa0
b7a0
0000
ENDCHAR
STARTCHAR 0x315D
ENCODING 12637
SWIDTH 886 0
DWIDTH 12 0
BBX 12 13 0 -2
BITMAP
0000
6fe0
6300
f7e0
6c60
6fe0
ec60
efe0
acc0
aac0
6380
6ee0
0000
ENDCHAR
STARTCHAR 0x315E
ENCODING 12638
SWIDTH 886 0
DWIDTH 12 0
BBX 12 13 0 -2
BITMAP
0000
ffe0
ad80
bda0
87e0
bd80
ad80
bdc0
ad40
bd40
ae60
ac60
0000
ENDCHAR
STARTCHAR 0x315F
ENCODING 12639
SWIDTH 886 0
DWIDTH 12 0
BBX 12 13 0 -2
BITMAP
0000
ffe0
8c60
8c60
8c60
8c60
ffe0
8060
8060
8060
8060
81e0
0000
ENDCHAR
STARTCHAR 0x3160
ENCODING 12640
SWIDTH 886 0
DWIDTH 12 0
BBX 12 13 0 -2
BITMAP
0000
ffe0
8c60
bfa0
8c60
ffe0
b360
bf60
9aa0
bb60
99a0
ffe0
0000
ENDCHAR
STARTCHAR 0x3161
ENCODING 12641
SWIDTH 886 0
DWIDTH 12 0
BBX 12 13 0 -2
BITMAP
0000
dfe0
da60
dbe0
ea60
dbe0
db00
dfe0
db40
dbc0
ea60
1fe0
0000
ENDCHAR
STARTCHAR 0x3162
ENCODING 12642
SWIDTH 886 0
DWIDTH 12 0
BBX 12 13 0 -2
BITMAP
0c00
0c00
ffe0
3300
6d80
ffe0
ad80
7f80
6d80
7f80
0c60
0fe0
0000
ENDCHAR
STARTCHAR 0x3163
ENCODING 12643
SWIDTH 886 0
DWIDTH 12 0
BBX 12 13 0 -2
BITMAP
0c00
0c00
ffe0
a1a0
bfa0
6180
7f80
1800
ffe0
3180
3f00
e1c0
0000
ENDCHAR
STARTCHAR 0x3164
ENCODING 12644
SWIDTH 886 0
DWIDTH 12 0
BBX 12 13 0 -2
BITMAP
0000
01c0
ef00
6300
c300
8de0
ed00
6d00
ad00
dfe0
b000
9fe0
0000
ENDCHAR
STARTCHAR 0x3165
ENCODING 12645
SWIDTH 886 0
DWIDTH 12 0
BBX 12 13 0 -2
BITMAP
0000
fbe0
da60
ea60
bae0
1a00
7660
c3e0
0c00
36c0
d060
9f80
0000
ENDCHAR
STARTCHAR 0x3166
ENCODING 12646
SWIDTH 886 0
DWIDTH 12 0
BBX 12 13 0 -2
BITMAP
0300
c300
dfe0
ecc0
db60
dfe0
db60
efe0
db60
dfe0
c300
c3e0
0000
ENDCHAR
STARTCHAR 0x3167
ENCODING 12647
SWIDTH 886 0
DWIDTH 12 0
BBX 12 13 0 -2
BITMAP
0000
dfe0
cd60
ed40
dfe0
c300
dfe0
e600
cfc0
dac0
c380
dee0
0000
ENDCHAR
STARTCHAR 0x3168
ENCODING 12648
SWIDTH 886 0
DWIDTH 12 0
BBX 12 13 0 -2
BITMAP
0000
07c0
80c0
ccc0
0c60
9860
d800
0fe0
0c60
6c60
cc60
8fe0
0000
ENDCHAR
STARTCHAR 0x3169
ENCODING 12649
SWIDTH 886 0
DWIDTH 12 0
BBX 12 13 0 -2
BITMAP
0300
0300
bfe0
d060
1fe0
8300
dfe0
1b60
dfe0
db60
9fe0
b060
0000
ENDCHAR
STARTCHAR 0x316A
ENCODING 12650
SWIDTH 886 0
DWIDTH 12 0
BBX 12 13 0 -2
BITMAP
0c00
0c00
6cc0
cd80
1a00
7380
cce0
6d80
6d80
1a00
7380
c0e0
0000
ENDCHAR
STARTCHAR 0x316B
ENCODING 12651
SWIDTH 886 0
DWIDTH 12 0
BBX 12 13 0 -2
BITMAP
0000
67c0
6cc0
a980
a7e0
aa60
6a60
6be0
da60
da60
9a60
9be0
0000
ENDCHAR
STARTCHAR 0x316C
ENCODING 12652
SWIDTH 886 0
DWIDTH 12 0
BBX 12 13 0 -2
BITMAP
0000
6fe0
6680
afe0
aaa0
aaa0
6fe0
6300
d7e0
d300
8300
9fe0
0000
ENDCHAR
STARTCHAR 0x316D
ENCODING 12653
SWIDTH 886 0
DWIDTH 12 0
BBX 12 13 0 -2
BITMAP
3300
3300
ffe0
1a00
6ea0
e1c0
6e80
eaa0
aee0
0000
d6c0
9b60
0000
ENDCHAR
STARTCHAR 0x316E
ENCODING 12654
SWIDTH 886 0
DWIDTH 12 0
BBX 12 13 0 -2
BITMAP
0300
6300
afe0
c300
dfe0
acc0
6cc0
efc0
a6a0
7da0
6cc0
df60
0000
ENDCHAR
STARTCHAR 0x316F
ENCODING 12655
SWIDTH 886 0
DWIDTH 12 0
BBX 12 13 0 -2
BITMAP
0000
6fc0
c0c0
8fc0
e0c0
6fe0
c300
f6a0
63c0
aea0
b9a0
6780
0000
ENDCHAR
STARTCHAR 0x3170
ENCODING 12656
SWIDTH 886 0
DWIDTH 12 0
BBX 12 13 0 -2
BITMAP
6c00
6dc0
fec0
ad80
ffe0
ada0
fda0
cfe0
fc00
6c00
6c60
ffe0
0000
ENDCHAR
STARTCHAR 0x3171
ENCODING 12657
SWIDTH 886 0
DWIDTH 12 0
BBX 12 13 0 -2
BITMAP
3300
3300
ffe0
3300
c000
fbc0
dac0
eac0
bac0
1a00
7660
c3e0
0000
ENDCHAR
STARTCHAR 0x3172
ENCODING 12658
SWIDTH 886 0
DWIDTH 12 0
BBX 12 13 0 -2
BITMAP
3300
3300
ffe0
3300
ffe0
8c60
bfa0
b360
bf60
aaa0
9b60
ffe0
0000
ENDCHAR
STARTCHAR 0x3173
ENCODING 12659
SWIDTH 886 0
DWIDTH 12 0
BBX 12 13 0 -2
BITMAP
0300
0300
9fe0
c300
3fe0
0cc0
efc0
6360
6d40
6b60
d000
9fe0
0000
ENDCHAR
STARTCHAR 0x3174
ENCODING 12660
SWIDTH 886 0
DWIDTH 12 0
BBX 12 13 0 -2
BITMAP
0000
73c0
d8c0
86c0
f660
6c60
f400
67e0
aa60
aa60
6660
fbe0
0000
ENDCHAR
STARTCHAR 0x3175
ENCODING 12661
SWIDTH 886 0
DWIDTH 12 0
BBX 12 13 0 -2
BITMAP
0000
fbe0
da60
aae0
3600
7fa0
e1e0
7f80
6180
7fe0
c060
b560
0000
ENDCHAR
STARTCHAR 0x3176
ENCODING 12662
SWIDTH 886 0
DWIDTH 12 0
BBX 12 13 0 -2
BITMAP
0c00
cc00
cfe0
d800
f7c0
ccc0
cfc0
c000
dfe0
daa0
eaa0
3fe0
0000
ENDCHAR
STARTCHAR 0x3177
ENCODING 12663
SWIDTH 886 0
DWIDTH 12 0
BBX 12 13 0 -2
BITMAP
6000
63c0
6660
fc00
6000
6380
7ce0
cc00
cc00
8c00
9b80
70e0
0000
ENDCHAR
STARTCHAR 0x3178
ENCODING 12664
SWIDTH 886 0
DWIDTH 12 0
BBX 12 13 0 -2
BITMAP
0000
3fe0
8600
c600
3fe0
8c00
cc00
0fe0
1860
6860
c0c0
8380
0000
ENDCHAR
STARTCHAR 0x3179
ENCODING 12665
SWIDTH 886 0
DWIDTH 12 0
BBX 12 13 0 -2
BITMAP
0000
6fe0
ab60
ffe0
ab60
6fe0
f300
6fe0
6660
6660
f460
0dc0
0000
ENDCHAR
STARTCHAR 0x317A
ENCODING 12666
SWIDTH 886 0
DWIDTH 12 0
BBX 12 13 0 -2
BITMAP
0000
f3e0
b360
b360
b360
b360
bf60
8060
8060
8060
8060
ffe0
0000
ENDCHAR
STARTCHAR 0x317B
ENCODING 12667
SWIDTH 886 0
DWIDTH 12 0
BBX 12 13 0 -2
BITMAP
0c00
0c00
ffc0
ccc0
ccc0
ccc0
ccc0
ffe0
0c00
1a00
7380
c0e0
0000
ENDCHAR
STARTCHAR 0x317C
ENCODING 12668
SWIDTH 886 0
DWIDTH 12 0
BBX 12 13 0 -2
BITMAP
0c00
1800
ffc0
d540
ccc0
ffc0
ccc0
d540
ffe0
1a00
7380
c0e0
0000
ENDCHAR
STARTCHAR 0x317D
ENCODING 12669
SWIDTH 886 0
DWIDTH 12 0
BBX 12 13 0 -2
BITMAP
0600
6300
c000
9fe0
0300
6300
c300
dfe0
c300
c300
c300
dfe0
0000
ENDCHAR
STARTCHAR 0x317E
ENCODING 12670
SWIDTH 886 0
DWIDTH 12 0
BBX 12 13 0 -2
BITMAP
0600
0600
ffe0
c000
c600
c300
c000
ccc0
cc60
d400
ac60
87e0
0000
ENDCHAR
STARTCHAR 0x3221
ENCODING 12833
SWIDTH 886 0
DWIDTH 12 0
BBX 12 13 0 -2
BITMAP
0000
dfe0
db60
eb60
dfe0
db60
db60
eb60
dfe0
c300
c300
c300
0000
ENDCHAR
STARTCHAR 0x3222
ENCODING 12834
SWIDTH 886 0
DWIDTH 12 0
BBX 12 13 0 -2
BITMAP
0000
1fe0
f300
b300
b300
b300
f7e0
b300
b300
b300
f300
1fe0
0000
ENDCHAR
STARTCHAR 0x3223
ENCODING 12835
SWIDTH 886 0
DWIDTH 12 0
BBX 12 13 0 -2
BITMAP
0d80
6d80
6fe0
ed80
7fe0
6b60
efe0
eb60
afe0
a000
6cc0
6860
0000
ENDCHAR
STARTCHAR 0x3224
ENCODING 12836
SWIDTH 886 0
DWIDTH 12 0
BBX 12 13 0 -2
BITMAP
0600
fa00
87e0
b6a0
d6a0
a6a0
a180
d180
9b40
8340
f660
1c60
0000
ENDCHAR
STARTCHAR 0x3225
ENCODING 12837
SWIDTH 886 0
DWIDTH 12 0
BBX 12 13 0 -2
BITMAP
0000
fbc0
86c0
b6c0
d6c0
ace0
a000
d7e0
b660
86c0
f380
1ee0
0000
ENDCHAR
STARTCHAR 0x3226
ENCODING 12838
SWIDTH 886 0
DWIDTH 12 0
BBX 12 13 0 -2
BITMAP
0000
ffe0
0c00
0c00
0c00
0c00
ffc0
0c00
0c00
0c00
0c00
ffe0
0000
ENDCHAR
STARTCHAR 0x3227
ENCODING 12839
SWIDTH 886 0
DWIDTH 12 0
BBX 12 13 0 -2
BITMAP
0000
1f00
6180
d8e0
3180
ff80
0000
fbe0
db60
69a0
db60
bae0
0000
ENDCHAR
STARTCHAR 0x3228
ENCODING 12840
SWIDTH 886 0
DWIDTH 12 0
BBX 12 13 0 -2
BITMAP
0300
c600
dfe0
ed60
6ba0
6d60
dba0
dd60
e300
dfe0
ccc0
d860
0000
ENDCHAR
STARTCHAR 0x3229
ENCODING 12841
SWIDTH 886 0
DWIDTH 12 0
BBX 12 13 0 -2
BITMAP
0c00
6d80
ffe0
9860
bfa0
6180
7f80
6180
7fe0
0060
d560
b560
0000
ENDCHAR
STARTCHAR 0x322A
ENCODING 12842
SWIDTH 886 0
DWIDTH 12 0
BBX 12 13 0 -2
BITMAP
0300
f600
8fc0
b4c0
d7c0
acc0
afe0
d400
b7e0
8060
f560
3560
0000
ENDCHAR
STARTCHAR 0x322B
ENCODING 12843
SWIDTH 886 0
DWIDTH 12 0
BBX 12 13 0 -2
BITMAP
3300
3300
ffc0
3300
ffe0
0c00
7f80
6d80
7f80
6d80
7f80
c0e0
0000
ENDCHAR
STARTCHAR 0x322C
ENCODING 12844
SWIDTH 886 0
DWIDTH 12 0
BBX 12 13 0 -2
BITMAP
0000
ffe0
8060
b360
b360
b660
bfa0
8c60
ada0
ada0
bfa0
80e0
0000
ENDCHAR
STARTCHAR 0x322D
ENCODING 12845
SWIDTH 886 0
DWIDTH 12 0
BBX 12 13 0 -2
BITMAP
0300
0300
8300
dfe0
1b60
9b60
db60
1fe0
0300
6300
c300
8300
0000
ENDCHAR
STARTCHAR 0x322E
ENCODING 12846
SWIDTH 886 0
DWIDTH 12 0
BBX 12 13 0 -2
BITMAP
3300
3300
ffe0
3000
d300
6300
ed60
b540
7300
d380
b6c0
ec60
0000
ENDCHAR
STARTCHAR 0x322F
ENCODING 12847
SWIDTH 886 0
DWIDTH 12 0
BBX 12 13 0 -2
BITMAP
0300
6300
7fe0
ccc0
dfe0
d860
dfe0
d860
dfe0
cd00
d4c0
efa0
0000
ENDCHAR
STARTCHAR 0x3230
ENCODING 12848
SWIDTH 886 0
DWIDTH 12 0
BBX 12 13 0 -2
BITMAP
0000
ffe0
c060
ffe0
c000
ffe0
d980
dfc0
c660
bfc0
8600
7fe0
0000
ENDCHAR
STARTCHAR 0x3231
ENCODING 12849
SWIDTH 886 0
DWIDTH 12 0
BBX 12 13 0 -2
BITMAP
0300
6300
6fe0
6cc0
bfe0
a860
afe0
a860
afe0
6d00
74c0
6fa0
0000
ENDCHAR
STARTCHAR 0x3232
ENCODING 12850
SWIDTH 886 0
DWIDTH 12 0
BBX 12 13 0 -2
BITMAP
0300
e300
afe0
ad80
efe0
a860
afe0
e860
afe0
ad00
b4c0
afa0
0000
ENDCHAR
STARTCHAR 0x3233
ENCODING 12851
SWIDTH 886 0
DWIDTH 12 0
BBX 12 13 0 -2
BITMAP
0000
6fc0
6180
f300
6fe0
6b60
efe0
eb60
afe0
ab60
6b60
6b60
0000
ENDCHAR
STARTCHAR 0x3234
ENCODING 12852
SWIDTH 886 0
DWIDTH 12 0
BBX 12 13 0 -2
BITMAP
0180
a180
a180
f980
afe0
a180
6180
7980
e180
6180
6180
6fe0
0000
ENDCHAR
STARTCHAR 0x3235
ENCODING 12853
SWIDTH 886 0
DWIDTH 12 0
BBX 12 13 0 -2
BITMAP
0000
ff80
0180
0300
0600
0c00
1800
3000
60c0
c0c0
c0c0
7f80
0000
ENDCHAR
STARTCHAR 0x3236
ENCODING 12854
SWIDTH 886 0
DWIDTH 12 0
BBX 12 13 0 -2
BITMAP
0300
6300
7fe0
ccc0
db60
dfe0
eb60
dfe0
db60
dfe0
c300
c3e0
0000
ENDCHAR
STARTCHAR 0x3237
ENCODING 12855
SWIDTH 886 0
DWIDTH 12 0
BBX 12 13 0 -2
BITMAP
c000
c000
fde0
b360
b360
fd60
3360
3d60
b360
b360
bd60
e300
0000
ENDCHAR
STARTCHAR 0x3238
ENCODING 12856
SWIDTH 886 0
DWIDTH 12 0
BBX 12 13 0 -2
BITMAP
0000
ffc0
ccc0
df40
ccc0
dac0
d340
ffc0
0c00
36c0
d060
9f80
0000
ENDCHAR
STARTCHAR 0x3239
ENCODING 12857
SWIDTH 886 0
DWIDTH 12 0
BBX 12 13 0 -2
BITMAP
0000
1fc0
98c0
dfc0
18c0
9fc0
c000
1fe0
1aa0
6aa0
daa0
bfe0
0000
ENDCHAR
STARTCHAR 0x323A
ENCODING 12858
SWIDTH 886 0
DWIDTH 12 0
BBX 12 13 0 -2
BITMAP
0000
3fe0
ed60
6d40
6fe0
f060
6fe0
e060
efe0
ad00
b4c0
6fa0
0000
ENDCHAR
STARTCHAR 0x323B
ENCODING 12859
SWIDTH 886 0
DWIDTH 12 0
BBX 12 13 0 -2
BITMAP
0c00
0c00
ffc0
3300
3300
ffe0
0000
7f80
6180
7f80
6180
7f80
0000
ENDCHAR
STARTCHAR 0x323C
ENCODING 12860
SWIDTH 886 0
DWIDTH 12 0
BBX 12 13 0 -2
BITMAP
0000
ffe0
0c00
0c00
0c00
0f00
0dc0
0c00
0c00
0c00
0c00
0c00
0000
ENDCHAR
STARTCHAR 0x323D
ENCODING 12861
SWIDTH 886 0
DWIDTH 12 0
BBX 12 13 0 -2
BITMAP
0600
3600
3600
6660
66c0
e680
a700
6600
6600
6660
6660
67e0
0000
ENDCHAR
STARTCHAR 0x323E
ENCODING 12862
SWIDTH 886 0
DWIDTH 12 0
BBX 12 13 0 -2
BITMAP
0000
6fe0
6800
d800
dfc0
d8c0
dac0
db40
d180
d180
c740
dc60
0000
ENDCHAR
STARTCHAR 0x323F
ENCODING 12863
SWIDTH 886 0
DWIDTH 12 0
BBX 12 13 0 -2
BITMAP
0000
6fe0
60c0
c0c0
dec0
dac0
dac0
dac0
dec0
c0c0
c0c0
c3c0
0000
ENDCHAR
STARTCHAR 0x3240
ENCODING 12864
SWIDTH 886 0
DWIDTH 12 0
BBX 12 13 0 -2
BITMAP
1800
6800
69e0
dea0
daa0
daa0
daa0
daa0
d6a0
d6a0
c6a0
dde0
0000
ENDCHAR
STARTCHAR 0x3241
ENCODING 12865
SWIDTH 886 0
DWIDTH 12 0
BBX 12 13 0 -2
BITMAP
0000
6fe0
6680
c680
dfe0
daa0
daa0
daa0
daa0
daa0
daa0
dfe0
0000
ENDCHAR
STARTCHAR 0x3242
ENCODING 12866
SWIDTH 886 0
DWIDTH 12 0
BBX 12 13 0 -2
BITMAP
0300
6300
6fe0
c300
c300
dfe0
c300
c300
dfe0
c300
c300
dfe0
0000
ENDCHAR
STARTCHAR 0x3243
ENCODING 12867
SWIDTH 886 0
DWIDTH 12 0
BBX 12 13 0 -2
BITMAP
6000
6000
63e0
fd60
6d60
6d60
6d60
cd60
cd60
8d60
9b60
73e0
0000
ENDCHAR
STARTCHAR 0x3244
ENCODING 12868
SWIDTH 886 0
DWIDTH 12 0
BBX 12 13 0 -2
BITMAP
0000
ffe0
0180
0180
f980
d980
d980
d980
f980
0180
0180
0780
0000
ENDCHAR
STARTCHAR 0x3245
ENCODING 12869
SWIDTH 886 0
DWIDTH 12 0
BBX 12 13 0 -2
BITMAP
0c00
0c00
ffe0
0c00
ffc0
6180
7f80
3300
ffe0
6ac0
dac0
bbc0
0000
ENDCHAR
STARTCHAR 0x3246
ENCODING 12870
SWIDTH 886 0
DWIDTH 12 0
BBX 12 13 0 -2
BITMAP
0000
ffe0
0c00
7fc0
60c0
7fc0
60c0
7fc0
3180
e980
1f00
f1e0
0000
ENDCHAR
STARTCHAR 0x3247
ENCODING 12871
SWIDTH 886 0
DWIDTH 12 0
BBX 12 13 0 -2
BITMAP
0300
c300
dfe0
f060
d7c0
d360
d740
bd80
e3c0
6ea0
d9a0
c700
0000
ENDCHAR
STARTCHAR 0x3248
ENCODING 12872
SWIDTH 886 0
DWIDTH 12 0
BBX 12 13 0 -2
BITMAP
0c00
0c00
ffe0
8060
bfa0
6c00
1cc0
f680
0f00
3a80
e6e0
1c00
0000
ENDCHAR
STARTCHAR 0x3249
ENCODING 12873
SWIDTH 886 0
DWIDTH 12 0
BBX 12 13 0 -2
BITMAP
0c00
0c00
ffe0
b360
bf60
3300
ffe0
6180
ffc0
99a0
3180
e700
0000
ENDCHAR
STARTCHAR 0x324A
ENCODING 12874
SWIDTH 886 0
DWIDTH 12 0
BBX 12 13 0 -2
BITMAP
0000
38c0
e6c0
6340
60c0
f4c0
66c0
e0e0
f3c0
aec0
a0c0
60c0
0000
ENDCHAR
STARTCHAR 0x324B
ENCODING 12875
SWIDTH 886 0
DWIDTH 12 0
BBX 12 13 0 -2
BITMAP
0000
3ee0
f660
b660
bee0
b000
f3e0
be60
b1a0
bea0
f1c0
3760
0000
ENDCHAR
STARTCHAR 0x324C
ENCODING 12876
SWIDTH 886 0
DWIDTH 12 0
BBX 12 13 0 -2
BITMAP
0000
ffc0
ccc0
ffc0
ccc0
ccc0
ffc0
0c00
ffe0
1d00
7580
cce0
0000
ENDCHAR
STARTCHAR 0x324D
ENCODING 12877
SWIDTH 886 0
DWIDTH 12 0
BBX 12 13 0 -2
BITMAP
6000
63e0
fd60
6d60
6d60
cd60
bbe0
0c00
ffe0
1d00
7580
cce0
0000
ENDCHAR
STARTCHAR 0x324E
ENCODING 12878
SWIDTH 886 0
DWIDTH 12 0
BBX 12 13 0 -2
BITMAP
0600
fe00
abe0
aaa0
eaa0
1aa0
fd80
1980
eb40
ab40
ea60
3c60
0000
ENDCHAR
STARTCHAR 0x324F
ENCODING 12879
SWIDTH 886 0
DWIDTH 12 0
BBX 12 13 0 -2
BITMAP
0000
7fe0
80c0
c0c0
1ec0
9ac0
dac0
1ac0
1ec0
60c0
c0c0
83c0
0000
ENDCHAR
STARTCHAR 0x3250
ENCODING 12880
SWIDTH 886 0
DWIDTH 12 0
BBX 12 13 0 -2
BITMAP
0c00
0c00
0c00
6cc0
6cc0
cd80
cd80
1a00
1a00
3300
6180
c0e0
0000
ENDCHAR
STARTCHAR 0x3251
ENCODING 12881
SWIDTH 886 0
DWIDTH 12 0
BBX 12 13 0 -2
BITMAP
0000
3fe0
e0c0
c0c0
dec0
dac0
eac0
dac0
dec0
c0c0
e0c0
03c0
0000
ENDCHAR
STARTCHAR 0x3252
ENCODING 12882
SWIDTH 886 0
DWIDTH 12 0
BBX 12 13 0 -2
BITMAP
0000
cfc0
ccc0
f5c0
3540
6fe0
d860
dba0
eaa0
daa0
dba0
d8e0
0000
ENDCHAR
STARTCHAR 0x3253
ENCODING 12883
SWIDTH 886 0
DWIDTH 12 0
BBX 12 13 0 -2
BITMAP
0000
07c0
fc00
0c00
0c00
ffe0
0e00
1d00
3580
6cc0
cc60
0c00
0000
ENDCHAR
STARTCHAR 0x3254
ENCODING 12884
SWIDTH 886 0
DWIDTH 12 0
BBX 12 13 0 -2
BITMAP
0300
3b00
efe0
6860
6fc0
f360
6740
ed80
e3c0
aea0
b9a0
6700
0000
ENDCHAR
STARTCHAR 0x3255
ENCODING 12885
SWIDTH 886 0
DWIDTH 12 0
BBX 12 13 0 -2
BITMAP
0600
c600
fbe0
ad80
0000
ffe0
8c60
bfa0
8c60
bf60
b360
ffe0
0000
ENDCHAR
STARTCHAR 0x3256
ENCODING 12886
SWIDTH 886 0
DWIDTH 12 0
BBX 12 13 0 -2
BITMAP
3300
3300
ffe0
3300
3000
3600
66e0
e780
a600
6600
6660
67e0
0000
ENDCHAR
STARTCHAR 0x3257
ENCODING 12887
SWIDTH 886 0
DWIDTH 12 0
BBX 12 13 0 -2
BITMAP
3300
3300
ffe0
3300
0000
ffe0
00c0
7cc0
6cc0
6cc0
7cc0
03c0
0000
ENDCHAR
STARTCHAR 0x3258
ENCODING 12888
SWIDTH 886 0
DWIDTH 12 0
BBX 12 13 0 -2
BITMAP
3300
3300
ffe0
3300
6000
63e0
fd60
6d60
6d60
cd60
9b60
73e0
0000
ENDCHAR
STARTCHAR 0x3259
ENCODING 12889
SWIDTH 886 0
DWIDTH 12 0
BBX 12 13 0 -2
BITMAP
3300
3300
ffe0
3300
6000
ffe0
c0c0
dec0
dac0
dac0
dec0
c1c0
0000
ENDCHAR
STARTCHAR 0x325A
ENCODING 12890
SWIDTH 886 0
DWIDTH 12 0
BBX 12 13 0 -2
BITMAP
3300
3300
ffe0
3300
ffc0
6d80
ffe0
6d80
ffc0
0c00
ffe0
0c00
0000
ENDCHAR
STARTCHAR 0x325B
ENCODING 12891
SWIDTH 886 0
DWIDTH 12 0
BBX 12 13 0 -2
BITMAP
3300
3300
ffe0
3300
7f80
6d80
7f80
6d80
ffe0
1d00
7580
cce0
0000
ENDCHAR
STARTCHAR 0x325C
ENCODING 12892
SWIDTH 886 0
DWIDTH 12 0
BBX 12 13 0 -2
BITMAP
0000
6fe0
6b60
fb60
af60
a800
abe0
fe60
69a0
6ea0
69c0
fb60
0000
ENDCHAR
STARTCHAR 0x325D
ENCODING 12893
SWIDTH 886 0
DWIDTH 12 0
BBX 12 13 0 -2
BITMAP
0000
efe0
1b60
efe0
1b60
eb60
1fe0
0300
efe0
a700
ad40
fb60
0000
ENDCHAR
STARTCHAR 0x325E
ENCODING 12894
SWIDTH 886 0
DWIDTH 12 0
BBX 12 13 0 -2
BITMAP
06c0
06c0
efe0
a6c0
afe0
ada0
bfe0
ada0
afe0
a180
efe0
0180
0000
ENDCHAR
STARTCHAR 0x325F
ENCODING 12895
SWIDTH 886 0
DWIDTH 12 0
BBX 12 13 0 -2
BITMAP
0600
36e0
6780
e660
7fe0
6180
7f80
6180
7f80
6180
7f80
c0e0
0000
ENDCHAR
STARTCHAR 0x3260
ENCODING 12896
SWIDTH 886 0
DWIDTH 12 0
BBX 12 13 0 -2
BITMAP
1800
1800
99e0
dea0
1aa0
1aa0
eaa0
6aa0
76a0
6ee0
d000
9fe0
0000
ENDCHAR
STARTCHAR 0x3261
ENCODING 12897
SWIDTH 886 0
DWIDTH 12 0
BBX 12 13 0 -2
BITMAP
0000
0fc0
ccc0
6dc0
0d40
1fe0
e860
6ba0
6aa0
6ba0
d000
9fe0
0000
ENDCHAR
STARTCHAR 0x3262
ENCODING 12898
SWIDTH 886 0
DWIDTH 12 0
BBX 12 13 0 -2
BITMAP
0000
ffc0
0c00
ffe0
ad60
3580
fbe0
9860
ffe0
86c0
fb80
8ee0
0000
ENDCHAR
STARTCHAR 0x3263
ENCODING 12899
SWIDTH 886 0
DWIDTH 12 0
BBX 12 13 0 -2
BITMAP
0180
6180
6180
ffe0
acc0
acc0
ad40
fd40
6340
6980
6b80
fee0
0000
ENDCHAR
STARTCHAR 0x3264
ENCODING 12900
SWIDTH 886 0
DWIDTH 12 0
BBX 12 13 0 -2
BITMAP
0180
6ea0
79a0
d980
dbe0
fd80
d9a0
dea0
f8c0
d8c0
dba0
de60
0000
ENDCHAR
STARTCHAR 0x3265
ENCODING 12901
SWIDTH 886 0
DWIDTH 12 0
BBX 12 13 0 -2
BITMAP
0180
6ea0
6da0
6d80
afe0
bd80
ada0
aea0
bcc0
acc0
f5a0
1e60
0000
ENDCHAR
STARTCHAR 0x3266
ENCODING 12902
SWIDTH 886 0
DWIDTH 12 0
BBX 12 13 0 -2
BITMAP
0300
3b40
e360
6300
6fe0
f180
61a0
6da0
f0c0
61c0
6360
ee60
0000
ENDCHAR
STARTCHAR 0x3267
ENCODING 12903
SWIDTH 886 0
DWIDTH 12 0
BBX 12 13 0 -2
BITMAP
0000
ffc0
6300
6300
6300
ffe0
0700
0d00
1b00
7300
c300
0f00
0000
ENDCHAR
STARTCHAR 0x3268
ENCODING 12904
SWIDTH 886 0
DWIDTH 12 0
BBX 12 13 0 -2
BITMAP
0000
ffe0
0c00
7f80
6d80
ada0
bfa0
ada0
ada0
bfa0
8060
ffe0
0000
ENDCHAR
STARTCHAR 0x3269
ENCODING 12905
SWIDTH 886 0
DWIDTH 12 0
BBX 12 13 0 -2
BITMAP
0180
fd80
b180
b180
f980
9980
9b40
fb40
b6c0
b660
fc60
0c60
0000
ENDCHAR
STARTCHAR 0x326A
ENCODING 12906
SWIDTH 886 0
DWIDTH 12 0
BBX 12 13 0 -2
BITMAP
3300
3300
ffe0
3300
ffc0
3300
3300
ffe0
0d00
3b00
e300
0f00
0000
ENDCHAR
STARTCHAR 0x326B
ENCODING 12907
SWIDTH 886 0
DWIDTH 12 0
BBX 12 13 0 -2
BITMAP
0180
6ea0
6da0
f580
afe0
ad80
ada0
fea0
6cc0
6cc0
6da0
fe60
0000
ENDCHAR
STARTCHAR 0x326C
ENCODING 12908
SWIDTH 886 0
DWIDTH 12 0
BBX 12 13 0 -2
BITMAP
6000
67e0
fa60
6a60
dbe0
9980
7f80
6180
7f80
6180
7f80
c0e0
0000
ENDCHAR
STARTCHAR 0x326D
ENCODING 12909
SWIDTH 886 0
DWIDTH 12 0
BBX 12 13 0 -2
BITMAP
0600
fac0
d6c0
d7e0
d580
dfe0
f580
3580
77e0
d580
b580
77e0
0000
ENDCHAR
STARTCHAR 0x326E
ENCODING 12910
SWIDTH 886 0
DWIDTH 12 0
BBX 12 13 0 -2
BITMAP
0180
eea0
b5a0
6d80
ffe0
b580
f5a0
b6a0
fcc0
acc0
b5a0
ee60
0000
ENDCHAR
STARTCHAR 0x326F
ENCODING 12911
SWIDTH 886 0
DWIDTH 12 0
BBX 12 13 0 -2
BITMAP
6000
63e0
fd60
6d60
ffe0
ac00
7fc0
6c00
7fe0
0060
d560
b560
0000
ENDCHAR
STARTCHAR 0x3270
ENCODING 12912
SWIDTH 886 0
DWIDTH 12 0
BBX 12 13 0 -2
BITMAP
0000
1e00
3300
6180
d340
b360
3300
3300
6300
6300
c300
c300
0000
ENDCHAR
STARTCHAR 0x3271
ENCODING 12913
SWIDTH 886 0
DWIDTH 12 0
BBX 12 13 0 -2
BITMAP
0000
1e00
3300
6180
df40
8060
0000
ffe0
3180
3180
6740
7cc0
0000
ENDCHAR
STARTCHAR 0x3272
ENCODING 12914
SWIDTH 886 0
DWIDTH 12 0
BBX 12 13 0 -2
BITMAP
0000
f7e0
b360
6660
fdc0
aa80
fbe0
aa80
ad80
fbe0
9980
b980
0000
ENDCHAR
STARTCHAR 0x3273
ENCODING 12915
SWIDTH 886 0
DWIDTH 12 0
BBX 12 13 0 -2
BITMAP
0000
ffe0
8060
8060
bf60
b360
b360
b360
bf60
8060
8060
ffe0
0000
ENDCHAR
STARTCHAR 0x3274
ENCODING 12916
SWIDTH 886 0
DWIDTH 12 0
BBX 12 13 0 -2
BITMAP
0300
c600
dfe0
db60
efe0
db60
db60
dfe0
cd40
cd40
eb60
1be0
0000
ENDCHAR
STARTCHAR 0x3275
ENCODING 12917
SWIDTH 886 0
DWIDTH 12 0
BBX 12 13 0 -2
BITMAP
0300
c300
dfe0
daa0
eaa0
dfe0
c600
dfe0
cd60
db40
e980
1ee0
0000
ENDCHAR
STARTCHAR 0x3276
ENCODING 12918
SWIDTH 886 0
DWIDTH 12 0
BBX 12 13 0 -2
BITMAP
0000
1fe0
e860
6ba0
daa0
9aa0
eba0
6860
afe0
c000
b000
9fe0
0000
ENDCHAR
STARTCHAR 0x3277
ENCODING 12919
SWIDTH 886 0
DWIDTH 12 0
BBX 12 13 0 -2
BITMAP
0300
6300
6fe0
6360
a360
a360
bfe0
a300
a300
6680
6cc0
7860
0000
ENDCHAR
STARTCHAR 0x3278
ENCODING 12920
SWIDTH 886 0
DWIDTH 12 0
BBX 12 13 0 -2
BITMAP
0000
6fe0
6060
66c0
a380
aee0
a300
a300
afe0
6300
6300
6fe0
0000
ENDCHAR
STARTCHAR 0x3279
ENCODING 12921
SWIDTH 886 0
DWIDTH 12 0
BBX 12 13 0 -2
BITMAP
0c00
6c00
6fe0
6800
afc0
ad40
ad40
bfe0
aac0
6ac0
6fe0
6180
0000
ENDCHAR
STARTCHAR 0x327A
ENCODING 12922
SWIDTH 886 0
DWIDTH 12 0
BBX 12 13 0 -2
BITMAP
0000
6fe0
6980
6980
aaa0
aaa0
aaa0
a980
ab40
6340
6660
6c60
0000
ENDCHAR
STARTCHAR 0x327B
ENCODING 12923
SWIDTH 886 0
DWIDTH 12 0
BBX 12 13 0 -2
BITMAP
0300
6300
7fe0
6aa0
aaa0
afe0
a600
bfe0
ad60
7b40
6980
6ee0
0000
ENDCHAR
STARTCHAR 0x327C
ENCODING 12924
SWIDTH 886 0
DWIDTH 12 0
BBX 12 13 0 -2
BITMAP
0300
0360
ffe0
0300
6b60
6b60
fd40
6b40
6980
c380
cec0
3860
0000
ENDCHAR
STARTCHAR 0x327D
ENCODING 12925
SWIDTH 886 0
DWIDTH 12 0
BBX 12 13 0 -2
BITMAP
0000
cfc0
ccc0
f4c0
cfc0
c000
c000
efe0
c660
c660
cc60
d9c0
0000
ENDCHAR
STARTCHAR 0x327E
ENCODING 12926
SWIDTH 886 0
DWIDTH 12 0
BBX 12 13 0 -2
BITMAP
0600
0600
f7e0
36c0
34c0
f4c0
8340
8340
b180
b180
f740
1c60
0000
ENDCHAR
STARTCHAR 0x3321
ENCODING 13089
SWIDTH 886 0
DWIDTH 12 0
BBX 12 13 0 -2
BITMAP
3000
6360
fda0
ac60
fd60
ada0
ac60
fde0
d460
d700
b060
bfe0
0000
ENDCHAR
STARTCHAR 0x3322
ENCODING 13090
SWIDTH 886 0
DWIDTH 12 0
BBX 12 13 0 -2
BITMAP
0c00
0c00
efe0
a800
afc0
ad40
ed40
bfe0
aac0
aac0
efe0
0180
0000
ENDCHAR
STARTCHAR 0x3323
ENCODING 13091
SWIDTH 886 0
DWIDTH 12 0
BBX 12 13 0 -2
BITMAP
0180
61a0
6fe0
f180
6a80
6aa0
ffa0
eaa0
aac0
aac0
61a0
6760
0000
ENDCHAR
STARTCHAR 0x3324
ENCODING 13092
SWIDTH 886 0
DWIDTH 12 0
BBX 12 13 0 -2
BITMAP
1800
1800
9fe0
d000
3fc0
9b40
db40
3fe0
d6c0
d6c0
bfe0
8180
0000
ENDCHAR
STARTCHAR 0x3325
ENCODING 13093
SWIDTH 886 0
DWIDTH 12 0
BBX 12 13 0 -2
BITMAP
0000
ffe0
c000
c300
db60
db60
db60
c300
c680
8680
8cc0
3860
0000
ENDCHAR
STARTCHAR 0x3326
ENCODING 13094
SWIDTH 886 0
DWIDTH 12 0
BBX 12 13 0 -2
BITMAP
0000
ffc0
ccc0
ffc0
ccc0
ccc0
ffc0
3300
7380
d340
3360
e300
0000
ENDCHAR
STARTCHAR 0x3327
ENCODING 13095
SWIDTH 886 0
DWIDTH 12 0
BBX 12 13 0 -2
BITMAP
0600
c600
fbe0
c600
c660
fbe0
0c00
7fc0
60c0
7fc0
60c0
7fc0
0000
ENDCHAR
STARTCHAR 0x3328
ENCODING 13096
SWIDTH 886 0
DWIDTH 12 0
BBX 12 13 0 -2
BITMAP
0000
67c0
cc60
b000
f7e0
6000
c000
f7e0
6300
b660
ac60
6fe0
0000
ENDCHAR
STARTCHAR 0x3329
ENCODING 13097
SWIDTH 886 0
DWIDTH 12 0
BBX 12 13 0 -2
BITMAP
3300
3300
ffe0
3300
0000
1e00
7380
d360
3300
3300
6300
6300
0000
ENDCHAR
STARTCHAR 0x332A
ENCODING 13098
SWIDTH 886 0
DWIDTH 12 0
BBX 12 13 0 -2
BITMAP
0000
fbe0
b360
fbe0
aa80
ffe0
9980
7f80
6d80
7f80
0c60
ffe0
0000
ENDCHAR
STARTCHAR 0x332B
ENCODING 13099
SWIDTH 886 0
DWIDTH 12 0
BBX 12 13 0 -2
BITMAP
0000
fbe0
9a60
fbe0
9a60
fbe0
8060
bfa0
9a60
bfa0
9a60
b6e0
0000
ENDCHAR
STARTCHAR 0x332C
ENCODING 13100
SWIDTH 886 0
DWIDTH 12 0
BBX 12 13 0 -2
BITMAP
0180
e980
aee0
a980
d980
aee0
a300
afe0
a860
dfe0
9860
9fe0
0000
ENDCHAR
STARTCHAR 0x332D
ENCODING 13101
SWIDTH 886 0
DWIDTH 12 0
BBX 12 13 0 -2
BITMAP
0000
7fc0
60c0
7fc0
60c0
7fc0
60c0
60c0
7fc0
0000
3180
e0e0
0000
ENDCHAR
STARTCHAR 0x332E
ENCODING 13102
SWIDTH 886 0
DWIDTH 12 0
BBX 12 13 0 -2
BITMAP
6000
abc0
fac0
06c0
fac0
06c0
fac0
9ac0
fac0
d6c0
d4c0
f8e0
0000
ENDCHAR
STARTCHAR 0x332F
ENCODING 13103
SWIDTH 886 0
DWIDTH 12 0
BBX 12 13 0 -2
BITMAP
6300
6300
fb00
cfe0
9b60
d360
6660
da60
b460
6c60
d0c0
9b80
0000
ENDCHAR
STARTCHAR 0x3330
ENCODING 13104
SWIDTH 886 0
DWIDTH 12 0
BBX 12 13 0 -2
BITMAP
0300
c300
fb00
db00
dd00
ab00
bb80
1b40
3360
3300
6300
c300
0000
ENDCHAR
STARTCHAR 0x3331
ENCODING 13105
SWIDTH 886 0
DWIDTH 12 0
BBX 12 13 0 -2
BITMAP
0300
0300
ffe0
b300
b660
b4c0
b680
b360
b6c0
b180
f740
1c60
0000
ENDCHAR
STARTCHAR 0x3332
ENCODING 13106
SWIDTH 886 0
DWIDTH 12 0
BBX 12 13 0 -2
BITMAP
0c00
0c00
ffe0
8c60
bfa0
0c00
7f80
0c00
ffe0
6180
6180
7f80
0000
ENDCHAR
STARTCHAR 0x3333
ENCODING 13107
SWIDTH 886 0
DWIDTH 12 0
BBX 12 13 0 -2
BITMAP
0c00
cc60
ffe0
0000
ffe0
c600
dfc0
c600
dfc0
8600
8600
7fe0
0000
ENDCHAR
STARTCHAR 0x3334
ENCODING 13108
SWIDTH 886 0
DWIDTH 12 0
BBX 12 13 0 -2
BITMAP
0000
6fe0
6b40
6f40
ab40
bbe0
af40
a8c0
ab40
6dc0
6340
6ee0
0000
ENDCHAR
STARTCHAR 0x3335
ENCODING 13109
SWIDTH 886 0
DWIDTH 12 0
BBX 12 13 0 -2
BITMAP
0000
6fe0
6b40
ff40
6b40
6be0
ef40
e8c0
ab40
adc0
6340
6ee0
0000
ENDCHAR
STARTCHAR 0x3336
ENCODING 13110
SWIDTH 886 0
DWIDTH 12 0
BBX 12 13 0 -2
BITMAP
0000
1fe0
9980
dbe0
1980
9980
dfe0
1980
dbe0
d180
b180
8fe0
0000
ENDCHAR
STARTCHAR 0x3337
ENCODING 13111
SWIDTH 886 0
DWIDTH 12 0
BBX 12 13 0 -2
BITMAP
0000
0fe0
f460
6fe0
6c60
6fe0
f0c0
dfe0
d0c0
d4c0
d6c0
f1c0
0000
ENDCHAR
STARTCHAR 0x3338
ENCODING 13112
SWIDTH 886 0
DWIDTH 12 0
BBX 12 13 0 -2
BITMAP
3300
3300
ffe0
3300
0c00
ffe0
3180
ffc0
0060
ffc0
dac0
ffe0
0000
ENDCHAR
STARTCHAR 0x3339
ENCODING 13113
SWIDTH 886 0
DWIDTH 12 0
BBX 12 13 0 -2
BITMAP
0c00
6de0
df00
8c00
0de0
7f60
cc60
cc60
df60
cc60
cc60
df60
0000
ENDCHAR
STARTCHAR 0x333A
ENCODING 13114
SWIDTH 886 0
DWIDTH 12 0
BBX 12 13 0 -2
BITMAP
0300
e300
1fe0
e300
0660
ecc0
0680
0360
eec0
a180
a740
ec60
0000
ENDCHAR
STARTCHAR 0x333B
ENCODING 13115
SWIDTH 886 0
DWIDTH 12 0
BBX 12 13 0 -2
BITMAP
0300
7560
cfe0
8000
f7e0
6000
ffe0
6c60
b7e0
a6c0
66c0
ffe0
0000
ENDCHAR
STARTCHAR 0x333C
ENCODING 13116
SWIDTH 886 0
DWIDTH 12 0
BBX 12 13 0 -2
BITMAP
0300
fb00
dfe0
db00
da60
fd40
8d80
fb60
dec0
f980
db40
de60
0000
ENDCHAR
STARTCHAR 0x333D
ENCODING 13117
SWIDTH 886 0
DWIDTH 12 0
BBX 12 13 0 -2
BITMAP
0000
1fe0
9b60
dfe0
1b60
9b60
dfe0
0300
1fe0
6300
c300
9fe0
0000
ENDCHAR
STARTCHAR 0x333E
ENCODING 13118
SWIDTH 886 0
DWIDTH 12 0
BBX 12 13 0 -2
BITMAP
3000
ffc0
36c0
fce0
d580
fee0
8c00
ffe0
6d80
ffc0
a1a0
7f80
0000
ENDCHAR
STARTCHAR 0x333F
ENCODING 13119
SWIDTH 886 0
DWIDTH 12 0
BBX 12 13 0 -2
BITMAP
0180
6180
67e0
f980
a980
afe0
a980
f980
67e0
6980
6980
ffe0
0000
ENDCHAR
STARTCHAR 0x3340
ENCODING 13120
SWIDTH 886 0
DWIDTH 12 0
BBX 12 13 0 -2
BITMAP
0000
dfe0
c000
dfc0
e8c0
d8c0
dfc0
d8c0
d8c0
dfc0
e000
3fe0
0000
ENDCHAR
STARTCHAR 0x3341
ENCODING 13121
SWIDTH 886 0
DWIDTH 12 0
BBX 12 13 0 -2
BITMAP
0300
6300
6fe0
f300
6300
6fe0
eb60
eb60
ab60
ab60
6b60
6300
0000
ENDCHAR
STARTCHAR 0x3342
ENCODING 13122
SWIDTH 886 0
DWIDTH 12 0
BBX 12 13 0 -2
BITMAP
0000
6fe0
6c00
fc00
afe0
ad00
ad00
fde0
6660
6660
6c60
fdc0
0000
ENDCHAR
STARTCHAR 0x3343
ENCODING 13123
SWIDTH 886 0
DWIDTH 12 0
BBX 12 13 0 -2
BITMAP
0c00
7400
cfe0
9860
fa60
6660
fa60
6da0
b5a0
afa0
6060
f9c0
0000
ENDCHAR
STARTCHAR 0x3344
ENCODING 13124
SWIDTH 886 0
DWIDTH 12 0
BBX 12 13 0 -2
BITMAP
0000
fc60
6d60
fd60
6d60
fd60
6360
ff60
ad60
fc60
ac60
fee0
0000
ENDCHAR
STARTCHAR 0x3345
ENCODING 13125
SWIDTH 886 0
DWIDTH 12 0
BBX 12 13 0 -2
BITMAP
0d80
0d80
efe0
ad80
ad80
bfe0
ad40
ad40
b560
ad40
eb40
1b40
0000
ENDCHAR
STARTCHAR 0x3346
ENCODING 13126
SWIDTH 886 0
DWIDTH 12 0
BBX 12 13 0 -2
BITMAP
3000
3000
3f80
6180
db00
0e00
3b80
e0e0
7f80
6180
6180
7f80
0000
ENDCHAR
STARTCHAR 0x3347
ENCODING 13127
SWIDTH 886 0
DWIDTH 12 0
BBX 12 13 0 -2
BITMAP
0c00
0c00
ffe0
b000
fde0
ad60
bd40
9b40
b360
ff60
9bc0
bb00
0000
ENDCHAR
STARTCHAR 0x3348
ENCODING 13128
SWIDTH 886 0
DWIDTH 12 0
BBX 12 13 0 -2
BITMAP
0300
c300
dfe0
f800
db00
db00
db00
eac0
dac0
d6c0
d5a0
cf60
0000
ENDCHAR
STARTCHAR 0x3349
ENCODING 13129
SWIDTH 886 0
DWIDTH 12 0
BBX 12 13 0 -2
BITMAP
0600
db40
cd80
ffe0
d860
dfc0
d8c0
e8c0
dfc0
c680
cda0
d9e0
0000
ENDCHAR
STARTCHAR 0x334A
ENCODING 13130
SWIDTH 886 0
DWIDTH 12 0
BBX 12 13 0 -2
BITMAP
0600
6600
67e0
f460
6ac0
6380
e6c0
f460
afe0
ac60
6c60
6fe0
0000
ENDCHAR
STARTCHAR 0x334B
ENCODING 13131
SWIDTH 886 0
DWIDTH 12 0
BBX 12 13 0 -2
BITMAP
0300
6300
6fe0
f300
6660
6cc0
e680
e360
b6c0
a180
6740
6c60
0000
ENDCHAR
STARTCHAR 0x334C
ENCODING 13132
SWIDTH 886 0
DWIDTH 12 0
BBX 12 13 0 -2
BITMAP
6000
67c0
fac0
66c0
fac0
0ce0
f800
9fe0
f660
d6c0
b380
bee0
0000
ENDCHAR
STARTCHAR 0x334D
ENCODING 13133
SWIDTH 886 0
DWIDTH 12 0
BBX 12 13 0 -2
BITMAP
06c0
66c0
afe0
c6c0
cfe0
ad80
6fe0
ed80
afe0
6cc0
6780
dce0
0000
ENDCHAR
STARTCHAR 0x334E
ENCODING 13134
SWIDTH 886 0
DWIDTH 12 0
BBX 12 13 0 -2
BITMAP
0300
0300
ffe0
6a60
6680
6fe0
fd80
d580
d7e0
d580
d580
f7e0
0000
ENDCHAR
STARTCHAR 0x334F
ENCODING 13135
SWIDTH 886 0
DWIDTH 12 0
BBX 12 13 0 -2
BITMAP
06c0
3ac0
efe0
66c0
6fe0
fd80
6fe0
ed80
efe0
acc0
a780
6ce0
0000
ENDCHAR
STARTCHAR 0x3350
ENCODING 13136
SWIDTH 886 0
DWIDTH 12 0
BBX 12 13 0 -2
BITMAP
18c0
cd80
6300
ffe0
a1a0
bfa0
6180
6180
7f80
3660
6660
c7e0
0000
ENDCHAR
STARTCHAR 0x3351
ENCODING 13137
SWIDTH 886 0
DWIDTH 12 0
BBX 12 13 0 -2
BITMAP
0000
3f80
6300
ffc0
ccc0
ffc0
ccc0
ccc0
ffc0
c0c0
80c0
83c0
0000
ENDCHAR
STARTCHAR 0x3352
ENCODING 13138
SWIDTH 886 0
DWIDTH 12 0
BBX 12 13 0 -2
BITMAP
3300
3300
ffe0
3300
3300
ffe0
6a80
aaa0
aaa0
aaa0
d980
db80
0000
ENDCHAR
STARTCHAR 0x3353
ENCODING 13139
SWIDTH 886 0
DWIDTH 12 0
BBX 12 13 0 -2
BITMAP
0300
6300
ffe0
6000
fac0
ac60
f800
aac0
fb40
6180
fb40
6e60
0000
ENDCHAR
STARTCHAR 0x3354
ENCODING 13140
SWIDTH 886 0
DWIDTH 12 0
BBX 12 13 0 -2
BITMAP
3000
33e0
ff60
0360
fd40
cd80
fd40
1b60
3360
ff60
33c0
f300
0000
ENDCHAR
STARTCHAR 0x3355
ENCODING 13141
SWIDTH 886 0
DWIDTH 12 0
BBX 12 13 0 -2
BITMAP
0000
fbe0
9a60
fbe0
9a60
ffe0
b360
ae60
b360
bfa0
b360
bf60
0000
ENDCHAR
STARTCHAR 0x3356
ENCODING 13142
SWIDTH 886 0
DWIDTH 12 0
BBX 12 13 0 -2
BITMAP
0000
efe0
a000
afc0
ccc0
afc0
a000
afe0
aaa0
dce0
9ba0
9b60
0000
ENDCHAR
STARTCHAR 0x3357
ENCODING 13143
SWIDTH 886 0
DWIDTH 12 0
BBX 12 13 0 -2
BITMAP
3300
3300
ffe0
3300
3f00
0c00
ffc0
ccc0
ffc0
0c00
ffe0
0c00
0000
ENDCHAR
STARTCHAR 0x3358
ENCODING 13144
SWIDTH 886 0
DWIDTH 12 0
BBX 12 13 0 -2
BITMAP
18c0
cd80
6300
ffe0
8060
bf60
0600
0c00
ffe0
0c00
0c00
3c00
0000
ENDCHAR
STARTCHAR 0x3359
ENCODING 13145
SWIDTH 886 0
DWIDTH 12 0
BBX 12 13 0 -2
BITMAP
0000
0780
7c00
6000
7fc0
6300
6300
ffe0
0c00
ccc0
ccc0
ffc0
0000
ENDCHAR
STARTCHAR 0x335A
ENCODING 13146
SWIDTH 886 0
DWIDTH 12 0
BBX 12 13 0 -2
BITMAP
0c00
1800
bf60
d340
3f00
d340
bf60
0c00
ffe0
1d00
7580
cce0
0000
ENDCHAR
STARTCHAR 0x335B
ENCODING 13147
SWIDTH 886 0
DWIDTH 12 0
BBX 12 13 0 -2
BITMAP
3000
37e0
fd80
abe0
aa60
d7e0
6a60
cfe0
fa60
dbe0
dac0
fc60
0000
ENDCHAR
STARTCHAR 0x335C
ENCODING 13148
SWIDTH 886 0
DWIDTH 12 0
BBX 12 13 0 -2
BITMAP
0000
fbe0
a980
fbe0
0660
fbe0
0660
fbe0
c660
fbe0
9b40
7660
0000
ENDCHAR
STARTCHAR 0x335D
ENCODING 13149
SWIDTH 886 0
DWIDTH 12 0
BBX 12 13 0 -2
BITMAP
0c00
ccc0
df40
ecc0
ccc0
df40
cce0
ecd0
df40
ccc0
ccc0
df40
0000
ENDCHAR
STARTCHAR 0x335E
ENCODING 13150
SWIDTH 886 0
DWIDTH 12 0
BBX 12 13 0 -2
BITMAP
0600
c600
fbe0
ad80
6d80
0c00
ffc0
3300
3300
3600
0600
ffe0
0000
ENDCHAR
STARTCHAR 0x335F
ENCODING 13151
SWIDTH 886 0
DWIDTH 12 0
BBX 12 13 0 -2
BITMAP
0000
6fe0
6a60
ffa0
6b40
6f40
eaa0
efa0
a300
afe0
6300
6fe0
0000
ENDCHAR
STARTCHAR 0x3360
ENCODING 13152
SWIDTH 886 0
DWIDTH 12 0
BBX 12 13 0 -2
BITMAP
0000
6fe0
6d60
f7e0
6d60
6fe0
e000
efe0
ad60
afe0
6d60
6fe0
0000
ENDCHAR
STARTCHAR 0x3361
ENCODING 13153
SWIDTH 886 0
DWIDTH 12 0
BBX 12 13 0 -2
BITMAP
0000
6fe0
6c60
f7e0
6c00
6fe0
ed80
f7e0
ad80
abe0
6980
61e0
0000
ENDCHAR
STARTCHAR 0x3362
ENCODING 13154
SWIDTH 886 0
DWIDTH 12 0
BBX 12 13 0 -2
BITMAP
0180
f780
bd80
6da0
f5a0
afa0
f580
adc0
fd40
0d40
aa60
aa60
0000
ENDCHAR
STARTCHAR 0x3363
ENCODING 13155
SWIDTH 886 0
DWIDTH 12 0
BBX 12 13 0 -2
BITMAP
0600
1dc0
98c0
ddc0
18c0
9fc0
cc00
1fe0
d060
daa0
9a60
81c0
0000
ENDCHAR
STARTCHAR 0x3364
ENCODING 13156
SWIDTH 886 0
DWIDTH 12 0
BBX 12 13 0 -2
BITMAP
3000
3060
ff60
b360
fd60
3360
fd60
3360
fd60
cc60
cc60
fce0
0000
ENDCHAR
STARTCHAR 0x3365
ENCODING 13157
SWIDTH 886 0
DWIDTH 12 0
BBX 12 13 0 -2
BITMAP
0000
1fc0
e8c0
afc0
a8c0
afc0
ac00
afe0
b860
ab60
ef60
01c0
0000
ENDCHAR
STARTCHAR 0x3366
ENCODING 13158
SWIDTH 886 0
DWIDTH 12 0
BBX 12 13 0 -2
BITMAP
0000
67c0
6c60
6800
a000
afe0
a000
a000
afe0
6c60
6c60
6fe0
0000
ENDCHAR
STARTCHAR 0x3367
ENCODING 13159
SWIDTH 886 0
DWIDTH 12 0
BBX 12 13 0 -2
BITMAP
0000
60e0
6f80
f180
6180
6fe0
6180
7180
efe0
6c60
6c60
efe0
0000
ENDCHAR
STARTCHAR 0x3368
ENCODING 13160
SWIDTH 886 0
DWIDTH 12 0
BBX 12 13 0 -2
BITMAP
0000
01e0
9f00
c300
0300
9fe0
c300
0300
1fe0
6860
d860
9fe0
0000
ENDCHAR
STARTCHAR 0x3369
ENCODING 13161
SWIDTH 886 0
DWIDTH 12 0
BBX 12 13 0 -2
BITMAP
0000
1fc0
98c0
dfc0
18c0
9fc0
cc00
1fe0
d860
db60
9f60
81c0
0000
ENDCHAR
STARTCHAR 0x336A
ENCODING 13162
SWIDTH 886 0
DWIDTH 12 0
BBX 12 13 0 -2
BITMAP
0000
1fc0
98c0
dbc0
1ac0
bfe0
d060
1fc0
18c0
6fc0
d8c0
99c0
0000
ENDCHAR
STARTCHAR 0x336B
ENCODING 13163
SWIDTH 886 0
DWIDTH 12 0
BBX 12 13 0 -2
BITMAP
3300
3300
ffe0
6180
7f80
6180
7f80
3000
7fe0
e060
6660
7ec0
0000
ENDCHAR
STARTCHAR 0x336C
ENCODING 13164
SWIDTH 886 0
DWIDTH 12 0
BBX 12 13 0 -2
BITMAP
0000
dfc0
d8c0
efc0
68c0
6fc0
cc00
efe0
d860
db60
df60
c1c0
0000
ENDCHAR
STARTCHAR 0x336D
ENCODING 13165
SWIDTH 886 0
DWIDTH 12 0
BBX 12 13 0 -2
BITMAP
0180
6180
ffe0
6da0
fbe0
a980
fbe0
a980
ffe0
6660
fa60
67e0
0000
ENDCHAR
STARTCHAR 0x336E
ENCODING 13166
SWIDTH 886 0
DWIDTH 12 0
BBX 12 13 0 -2
BITMAP
0000
7f80
6180
6180
7f80
6180
6180
7f80
6180
6180
6180
ffe0
0000
ENDCHAR
STARTCHAR 0x336F
ENCODING 13167
SWIDTH 886 0
DWIDTH 12 0
BBX 12 13 0 -2
BITMAP
0000
efe0
aa60
dfa0
fb40
af40
faa0
afa0
f980
07e0
a980
afe0
0000
ENDCHAR
STARTCHAR 0x3370
ENCODING 13168
SWIDTH 886 0
DWIDTH 12 0
BBX 12 13 0 -2
BITMAP
0180
0180
f180
b180
bfe0
b180
b180
b180
b180
b180
f180
0180
0000
ENDCHAR
STARTCHAR 0x3371
ENCODING 13169
SWIDTH 886 0
DWIDTH 12 0
BBX 12 13 0 -2
BITMAP
0d80
6d80
7fe0
ed80
6d00
6d60
eb40
eb80
bb00
ab00
6b60
6be0
0000
ENDCHAR
STARTCHAR 0x3372
ENCODING 13170
SWIDTH 886 0
DWIDTH 12 0
BBX 12 13 0 -2
BITMAP
06c0
66c0
6fe0
f6c0
6fe0
6da0
ffe0
eda0
afe0
a180
6fe0
6180
0000
ENDCHAR
STARTCHAR 0x3373
ENCODING 13171
SWIDTH 886 0
DWIDTH 12 0
BBX 12 13 0 -2
BITMAP
0600
d600
fbe0
d460
f7a0
6da0
f9a0
aba0
fae0
6600
fa60
67e0
0000
ENDCHAR
STARTCHAR 0x3374
ENCODING 13172
SWIDTH 886 0
DWIDTH 12 0
BBX 12 13 0 -2
BITMAP
0300
6b00
6b00
efe0
7300
6300
efe0
f300
a780
ad40
7b60
6300
0000
ENDCHAR
STARTCHAR 0x3375
ENCODING 13173
SWIDTH 886 0
DWIDTH 12 0
BBX 12 13 0 -2
BITMAP
0c00
1800
df60
b360
bf60
b360
b360
df60
0600
3600
3660
e7e0
0000
ENDCHAR
STARTCHAR 0x3376
ENCODING 13174
SWIDTH 886 0
DWIDTH 12 0
BBX 12 13 0 -2
BITMAP
0c00
0c00
ffe0
9a60
3600
ffc0
6d80
ffc0
ccc0
ffc0
cc60
0fe0
0000
ENDCHAR
STARTCHAR 0x3377
ENCODING 13175
SWIDTH 886 0
DWIDTH 12 0
BBX 12 13 0 -2
BITMAP
3300
3300
ffe0
3360
dfe0
6300
9fe0
db60
1fe0
6b60
dfe0
9b60
0000
ENDCHAR
STARTCHAR 0x3378
ENCODING 13176
SWIDTH 886 0
DWIDTH 12 0
BBX 12 13 0 -2
BITMAP
0000
7380
dae0
1e00
7380
c0e0
7f80
0c00
ffc0
6d80
3500
ffe0
0000
ENDCHAR
STARTCHAR 0x3379
ENCODING 13177
SWIDTH 886 0
DWIDTH 12 0
BBX 12 13 0 -2
BITMAP
06c0
7680
dfe0
8680
f7e0
66a0
ffe0
66a0
b7e0
a680
6ec0
faa0
0000
ENDCHAR
STARTCHAR 0x337A
ENCODING 13178
SWIDTH 886 0
DWIDTH 12 0
BBX 12 13 0 -2
BITMAP
0600
1bc0
ea00
bfe0
a6c0
aaa0
a660
bfe0
aaa0
b6e0
e660
7fe0
0000
ENDCHAR
STARTCHAR 0x337B
ENCODING 13179
SWIDTH 886 0
DWIDTH 12 0
BBX 12 13 0 -2
BITMAP
0180
0300
fbc0
aac0
abc0
fac0
abe0
aa00
fbe0
6060
6aa0
6ae0
0000
ENDCHAR
STARTCHAR 0x337C
ENCODING 13180
SWIDTH 886 0
DWIDTH 12 0
BBX 12 13 0 -2
BITMAP
0000
6fe0
6300
f600
6fe0
6c60
ec60
efe0
b460
ac60
6c60
6fe0
0000
ENDCHAR
STARTCHAR 0x337D
ENCODING 13181
SWIDTH 886 0
DWIDTH 12 0
BBX 12 13 0 -2
BITMAP
3300
3300
ffe0
3300
7f80
0300
ffe0
0e60
1ac0
7600
c600
1e00
0000
ENDCHAR
STARTCHAR 0x337E
ENCODING 13182
SWIDTH 886 0
DWIDTH 12 0
BBX 12 13 0 -2
BITMAP
3300
3300
ffe0
3300
0c00
ffe0
8060
bfa0
3300
3f00
3300
ffe0
0000
ENDCHAR
STARTCHAR 0x3421
ENCODING 13345
SWIDTH 886 0
DWIDTH 12 0
BBX 12 13 0 -2
BITMAP
0000
ede0
7560
6e60
ede0
bf80
8d80
ede0
6e60
7560
6c60
cdc0
0000
ENDCHAR
STARTCHAR 0x3422
ENCODING 13346
SWIDTH 886 0
DWIDTH 12 0
BBX 12 13 0 -2
BITMAP
0000
1860
1b60
9b60
db60
7360
3360
3360
6b60
6c60
c060
c0e0
0000
ENDCHAR
STARTCHAR 0x3423
ENCODING 13347
SWIDTH 886 0
DWIDTH 12 0
BBX 12 13 0 -2
BITMAP
3300
3300
ffe0
3300
3060
d360
7360
3360
6b60
6d60
c060
c0e0
0000
ENDCHAR
STARTCHAR 0x3424
ENCODING 13348
SWIDTH 886 0
DWIDTH 12 0
BBX 12 13 0 -2
BITMAP
0000
ffe0
3000
3000
3f00
3300
3300
6b00
6d00
6360
7f60
c3e0
0000
ENDCHAR
STARTCHAR 0x3425
ENCODING 13349
SWIDTH 886 0
DWIDTH 12 0
BBX 12 13 0 -2
BITMAP
0600
6600
fbe0
6600
fc00
9be0
f8c0
9980
fb00
6660
fc60
67e0
0000
ENDCHAR
STARTCHAR 0x3426
ENCODING 13350
SWIDTH 886 0
DWIDTH 12 0
BBX 12 13 0 -2
BITMAP
0000
6fe0
6860
d860
d860
dfe0
c000
cd40
cd40
cd40
db40
d360
0000
ENDCHAR
STARTCHAR 0x3427
ENCODING 13351
SWIDTH 886 0
DWIDTH 12 0
BBX 12 13 0 -2
BITMAP
0000
ffe0
8060
00c0
f0c0
0fe0
00c0
fac0
d340
d0c0
b060
9fe0
0000
ENDCHAR
STARTCHAR 0x3428
ENCODING 13352
SWIDTH 886 0
DWIDTH 12 0
BBX 12 13 0 -2
BITMAP
0c00
0c00
ffe0
b360
bfa0
3300
ffe0
3300
6d80
c760
3800
0f00
0000
ENDCHAR
STARTCHAR 0x3429
ENCODING 13353
SWIDTH 886 0
DWIDTH 12 0
BBX 12 13 0 -2
BITMAP
0000
fc60
6360
6360
6360
6360
fd60
6360
6360
6060
6060
60e0
0000
ENDCHAR
STARTCHAR 0x342A
ENCODING 13354
SWIDTH 886 0
DWIDTH 12 0
BBX 12 13 0 -2
BITMAP
0300
db00
fb00
dfe0
fb60
db60
db60
fd60
aa60
de60
80c0
fd80
0000
ENDCHAR
STARTCHAR 0x342B
ENCODING 13355
SWIDTH 886 0
DWIDTH 12 0
BBX 12 13 0 -2
BITMAP
c300
c300
fd00
a7e0
fd60
d360
fd60
d360
fe60
d660
d0c0
fd80
0000
ENDCHAR
STARTCHAR 0x342C
ENCODING 13356
SWIDTH 886 0
DWIDTH 12 0
BBX 12 13 0 -2
BITMAP
18c0
cd80
6300
ffc0
1b00
ffe0
3180
7fc0
c1a0
7f80
60c0
7fc0
0000
ENDCHAR
STARTCHAR 0x342D
ENCODING 13357
SWIDTH 886 0
DWIDTH 12 0
BBX 12 13 0 -2
BITMAP
0000
0fc0
e980
bfe0
aaa0
aaa0
ade0
ab60
bfe0
a680
ecc0
3860
0000
ENDCHAR
STARTCHAR 0x342E
ENCODING 13358
SWIDTH 886 0
DWIDTH 12 0
BBX 12 13 0 -2
BITMAP
0cc0
ccc0
dfe0
ccc0
efc0
ccc0
ccc0
dfe0
da80
dde0
f800
1fe0
0000
ENDCHAR
STARTCHAR 0x342F
ENCODING 13359
SWIDTH 886 0
DWIDTH 12 0
BBX 12 13 0 -2
BITMAP
1800
1800
ffc0
3300
7300
3f00
6180
ffe0
dac0
dac0
7bc0
ce60
0000
ENDCHAR
STARTCHAR 0x3430
ENCODING 13360
SWIDTH 886 0
DWIDTH 12 0
BBX 12 13 0 -2
BITMAP
0c00
0c00
ffe0
8060
bfa0
0000
0000
ffc0
3600
3600
6660
c7e0
0000
ENDCHAR
STARTCHAR 0x3431
ENCODING 13361
SWIDTH 886 0
DWIDTH 12 0
BBX 12 13 0 -2
BITMAP
0c00
0c00
ffe0
8060
bf60
a360
7f00
6000
7f80
6180
6180
7f80
0000
ENDCHAR
STARTCHAR 0x3432
ENCODING 13362
SWIDTH 886 0
DWIDTH 12 0
BBX 12 13 0 -2
BITMAP
0c00
0c00
ffe0
b360
ffc0
6180
7f80
6180
7f80
1a00
7660
c7e0
0000
ENDCHAR
STARTCHAR 0x3433
ENCODING 13363
SWIDTH 886 0
DWIDTH 12 0
BBX 12 13 0 -2
BITMAP
0000
ffc0
0c00
0c00
0c00
0c00
ffe0
0c00
0c00
0c00
0c00
0c00
0000
ENDCHAR
STARTCHAR 0x3434
ENCODING 13364
SWIDTH 886 0
DWIDTH 12 0
BBX 12 13 0 -2
BITMAP
0000
63c0
fa60
6c00
fbe0
9980
f980
9980
fbe0
6180
f980
6180
0000
ENDCHAR
STARTCHAR 0x3435
ENCODING 13365
SWIDTH 886 0
DWIDTH 12 0
BBX 12 13 0 -2
BITMAP
0c00
0c00
ffc0
ccc0
ffc0
0c00
ffc0
ccc0
ffc0
3600
d0c0
9fa0
0000
ENDCHAR
STARTCHAR 0x3436
ENCODING 13366
SWIDTH 886 0
DWIDTH 12 0
BBX 12 13 0 -2
BITMAP
0300
0360
ffe0
c300
dd40
d580
bd40
8660
0c00
36c0
d060
9f80
0000
ENDCHAR
STARTCHAR 0x3437
ENCODING 13367
SWIDTH 886 0
DWIDTH 12 0
BBX 12 13 0 -2
BITMAP
0000
6fe0
6b60
7fe0
ab60
afe0
a860
afe0
a860
6fe0
66c0
6c60
0000
ENDCHAR
STARTCHAR 0x3438
ENCODING 13368
SWIDTH 886 0
DWIDTH 12 0
BBX 12 13 0 -2
BITMAP
0180
61a0
6fe0
6980
aea0
aac0
aea0
ab60
6600
1b40
6860
cf80
0000
ENDCHAR
STARTCHAR 0x3439
ENCODING 13369
SWIDTH 886 0
DWIDTH 12 0
BBX 12 13 0 -2
BITMAP
0000
cfc0
d980
ffe0
daa0
daa0
dde0
eb60
dfe0
c680
ccc0
d860
0000
ENDCHAR
STARTCHAR 0x343A
ENCODING 13370
SWIDTH 886 0
DWIDTH 12 0
BBX 12 13 0 -2
BITMAP
0300
fd00
33e0
fd60
ce60
fc60
cda0
fda0
ccc0
fcc0
cda0
0f60
0000
ENDCHAR
STARTCHAR 0x343B
ENCODING 13371
SWIDTH 886 0
DWIDTH 12 0
BBX 12 13 0 -2
BITMAP
0c00
6c60
6c60
ffe0
6c60
6c60
efe0
ec60
b460
ac60
6c60
6fe0
0000
ENDCHAR
STARTCHAR 0x343C
ENCODING 13372
SWIDTH 886 0
DWIDTH 12 0
BBX 12 13 0 -2
BITMAP
0000
6fe0
6000
f7e0
6c60
6c60
efe0
ec60
b460
afe0
6000
6fe0
0000
ENDCHAR
STARTCHAR 0x343D
ENCODING 13373
SWIDTH 886 0
DWIDTH 12 0
BBX 12 13 0 -2
BITMAP
0300
6300
6fe0
f860
6fc0
6cc0
efc0
ec00
b7e0
ac60
6c60
6fe0
0000
ENDCHAR
STARTCHAR 0x343E
ENCODING 13374
SWIDTH 886 0
DWIDTH 12 0
BBX 12 13 0 -2
BITMAP
0600
6600
ffe0
66a0
faa0
06a0
f980
0180
fd40
6340
aa60
ac60
0000
ENDCHAR
STARTCHAR 0x343F
ENCODING 13375
SWIDTH 886 0
DWIDTH 12 0
BBX 12 13 0 -2
BITMAP
c600
c600
ffe0
a6a0
fea0
d6a0
fd80
d180
fd40
d340
d660
fc60
0000
ENDCHAR
STARTCHAR 0x3440
ENCODING 13376
SWIDTH 886 0
DWIDTH 12 0
BBX 12 13 0 -2
BITMAP
0000
1fe0
8300
c300
0300
8300
dfe0
0300
0300
6300
c300
8300
0000
ENDCHAR
STARTCHAR 0x3441
ENCODING 13377
SWIDTH 886 0
DWIDTH 12 0
BBX 12 13 0 -2
BITMAP
0d80
0d80
bfe0
cd80
1fe0
9b60
dfe0
0300
dfe0
c680
8cc0
b860
0000
ENDCHAR
STARTCHAR 0x3442
ENCODING 13378
SWIDTH 886 0
DWIDTH 12 0
BBX 12 13 0 -2
BITMAP
0000
3ee0
b6a0
dee0
36a0
bee0
d060
37a0
d5a0
d7a0
b5a0
b7a0
0000
ENDCHAR
STARTCHAR 0x3443
ENCODING 13379
SWIDTH 886 0
DWIDTH 12 0
BBX 12 13 0 -2
BITMAP
0c00
0c00
8fe0
db00
1fe0
86c0
cfe0
1d80
0fe0
6d80
cd80
8fe0
0000
ENDCHAR
STARTCHAR 0x3444
ENCODING 13380
SWIDTH 886 0
DWIDTH 12 0
BBX 12 13 0 -2
BITMAP
0000
1fe0
faa0
6fe0
6000
6fe0
f4c0
6fc0
6360
7780
dd40
0360
0000
ENDCHAR
STARTCHAR 0x3445
ENCODING 13381
SWIDTH 886 0
DWIDTH 12 0
BBX 12 13 0 -2
BITMAP
6180
6180
6180
ffe0
6180
6180
7f80
6180
6180
6180
6180
7f80
0000
ENDCHAR
STARTCHAR 0x3446
ENCODING 13382
SWIDTH 886 0
DWIDTH 12 0
BBX 12 13 0 -2
BITMAP
0600
fa00
a7e0
fc00
9800
fbc0
a000
a000
ffc0
dac0
dac0
ffe0
0000
ENDCHAR
STARTCHAR 0x3447
ENCODING 13383
SWIDTH 886 0
DWIDTH 12 0
BBX 12 13 0 -2
BITMAP
0000
ffe0
0c00
7fc0
0c00
ffe0
1800
3fc0
70c0
dfc0
30c0
3fc0
0000
ENDCHAR
STARTCHAR 0x3448
ENCODING 13384
SWIDTH 886 0
DWIDTH 12 0
BBX 12 13 0 -2
BITMAP
0600
c600
fbe0
ad80
0000
ffc0
0c00
0c00
ffe0
0c00
0c00
0c00
0000
ENDCHAR
STARTCHAR 0x3449
ENCODING 13385
SWIDTH 886 0
DWIDTH 12 0
BBX 12 13 0 -2
BITMAP
0600
c600
fbe0
ad80
0c00
ffe0
b360
bf60
3000
3f80
3180
3f80
0000
ENDCHAR
STARTCHAR 0x344A
ENCODING 13386
SWIDTH 886 0
DWIDTH 12 0
BBX 12 13 0 -2
BITMAP
c600
c600
fbe0
ad80
fbe0
9a60
fbe0
9e60
f3e0
bf60
b360
bf60
0000
ENDCHAR
STARTCHAR 0x344B
ENCODING 13387
SWIDTH 886 0
DWIDTH 12 0
BBX 12 13 0 -2
BITMAP
0000
6fe0
cd60
8d40
efe0
6300
dfe0
f600
6fc0
aac0
a380
6ee0
0000
ENDCHAR
STARTCHAR 0x344C
ENCODING 13388
SWIDTH 886 0
DWIDTH 12 0
BBX 12 13 0 -2
BITMAP
6000
6000
7fc0
cc00
cc00
0c00
ffe0
0c00
0c00
ccc0
ccc0
ffc0
0000
ENDCHAR
STARTCHAR 0x344D
ENCODING 13389
SWIDTH 886 0
DWIDTH 12 0
BBX 12 13 0 -2
BITMAP
0000
63c0
fa60
6c00
ffe0
9b60
fda0
9b60
fb60
6da0
fb60
6760
0000
ENDCHAR
STARTCHAR 0x344E
ENCODING 13390
SWIDTH 886 0
DWIDTH 12 0
BBX 12 13 0 -2
BITMAP
0000
f7e0
b180
b180
f180
b180
b7e0
f180
b180
b180
b180
b180
0000
ENDCHAR
STARTCHAR 0x344F
ENCODING 13391
SWIDTH 886 0
DWIDTH 12 0
BBX 12 13 0 -2
BITMAP
6180
df80
ea80
afe0
eb00
af00
fae0
a600
efe0
aaa0
aaa0
bfe0
0000
ENDCHAR
STARTCHAR 0x3450
ENCODING 13392
SWIDTH 886 0
DWIDTH 12 0
BBX 12 13 0 -2
BITMAP
3300
3300
ffe0
3300
ffe0
8060
7f80
0000
ffc0
1a00
7660
c7e0
0000
ENDCHAR
STARTCHAR 0x3451
ENCODING 13393
SWIDTH 886 0
DWIDTH 12 0
BBX 12 13 0 -2
BITMAP
c000
c7e0
fe60
a7e0
fe60
d7e0
fe60
d7e0
fb40
d340
d6c0
fce0
0000
ENDCHAR
STARTCHAR 0x3452
ENCODING 13394
SWIDTH 886 0
DWIDTH 12 0
BBX 12 13 0 -2
BITMAP
0300
e300
1fe0
e300
1fe0
eb60
1fe0
1b60
efe0
a700
ad40
fb60
0000
ENDCHAR
STARTCHAR 0x3453
ENCODING 13395
SWIDTH 886 0
DWIDTH 12 0
BBX 12 13 0 -2
BITMAP
0000
ffc0
ccc0
ffe0
ccc0
ffc0
6180
7f80
6180
7f80
6180
c0e0
0000
ENDCHAR
STARTCHAR 0x3454
ENCODING 13396
SWIDTH 886 0
DWIDTH 12 0
BBX 12 13 0 -2
BITMAP
0000
1fe0
daa0
6fe0
0000
3fe0
ecc0
6fc0
6760
6d40
d360
9fe0
0000
ENDCHAR
STARTCHAR 0x3455
ENCODING 13397
SWIDTH 886 0
DWIDTH 12 0
BBX 12 13 0 -2
BITMAP
0180
7f80
da80
9fe0
fb00
6f00
fae0
6600
afe0
aaa0
6aa0
ffe0
0000
ENDCHAR
STARTCHAR 0x3456
ENCODING 13398
SWIDTH 886 0
DWIDTH 12 0
BBX 12 13 0 -2
BITMAP
0000
fbe0
9a60
fbe0
9a60
fbe0
8060
bf60
b360
bf60
b360
bf60
0000
ENDCHAR
STARTCHAR 0x3457
ENCODING 13399
SWIDTH 886 0
DWIDTH 12 0
BBX 12 13 0 -2
BITMAP
0000
fbe0
9a60
fbe0
9a60
fbe0
8c60
bfa0
8c60
9e60
b5a0
8ce0
0000
ENDCHAR
STARTCHAR 0x3458
ENCODING 13400
SWIDTH 886 0
DWIDTH 12 0
BBX 12 13 0 -2
BITMAP
0000
fbe0
9a60
fbe0
9a60
fbe0
9a60
bfa0
8c60
bfa0
9a60
b360
0000
ENDCHAR
STARTCHAR 0x3459
ENCODING 13401
SWIDTH 886 0
DWIDTH 12 0
BBX 12 13 0 -2
BITMAP
0000
e7c0
acc0
a980
c7e0
aa60
aa60
abe0
aa60
da60
9a60
9be0
0000
ENDCHAR
STARTCHAR 0x345A
ENCODING 13402
SWIDTH 886 0
DWIDTH 12 0
BBX 12 13 0 -2
BITMAP
6180
6180
f7e0
6360
ffe0
9a60
fbe0
9980
ffe0
6d80
ffe0
6180
0000
ENDCHAR
STARTCHAR 0x345B
ENCODING 13403
SWIDTH 886 0
DWIDTH 12 0
BBX 12 13 0 -2
BITMAP
0300
f300
8fe0
6c60
fbe0
9ac0
fbc0
9a00
fbe0
a660
b660
ebe0
0000
ENDCHAR
STARTCHAR 0x345C
ENCODING 13404
SWIDTH 886 0
DWIDTH 12 0
BBX 12 13 0 -2
BITMAP
0300
7300
cfe0
8c60
fbe0
66c0
fbc0
6600
fbe0
9a60
9a60
fbe0
0000
ENDCHAR
STARTCHAR 0x345D
ENCODING 13405
SWIDTH 886 0
DWIDTH 12 0
BBX 12 13 0 -2
BITMAP
3000
3000
3000
ff00
3300
3300
d300
7300
3300
6b60
cd60
81e0
0000
ENDCHAR
STARTCHAR 0x345E
ENCODING 13406
SWIDTH 886 0
DWIDTH 12 0
BBX 12 13 0 -2
BITMAP
0000
3f00
6180
df40
8060
7f80
0300
0600
7f80
6180
6180
7f80
0000
ENDCHAR
STARTCHAR 0x345F
ENCODING 13407
SWIDTH 886 0
DWIDTH 12 0
BBX 12 13 0 -2
BITMAP
0600
c660
ffe0
0000
ffe0
c000
dfc0
c600
c600
bfe0
8600
0600
0000
ENDCHAR
STARTCHAR 0x3460
ENCODING 13408
SWIDTH 886 0
DWIDTH 12 0
BBX 12 13 0 -2
BITMAP
0c00
cc60
ffe0
66c0
ffe0
db00
ffe0
d4c0
dd40
d540
bd80
8ee0
0000
ENDCHAR
STARTCHAR 0x3461
ENCODING 13409
SWIDTH 886 0
DWIDTH 12 0
BBX 12 13 0 -2
BITMAP
0000
1fe0
f000
6000
6000
ffe0
6d80
6d80
7580
cd80
19a0
71e0
0000
ENDCHAR
STARTCHAR 0x3462
ENCODING 13410
SWIDTH 886 0
DWIDTH 12 0
BBX 12 13 0 -2
BITMAP
0600
0600
ffe0
d8c0
dfc0
c000
dee0
d6a0
dee0
c300
b360
bfe0
0000
ENDCHAR
STARTCHAR 0x3463
ENCODING 13411
SWIDTH 886 0
DWIDTH 12 0
BBX 12 13 0 -2
BITMAP
0000
0fe0
f460
b7e0
f460
b460
b7e0
f500
b560
b5a0
f4c0
0f60
0000
ENDCHAR
STARTCHAR 0x3464
ENCODING 13412
SWIDTH 886 0
DWIDTH 12 0
BBX 12 13 0 -2
BITMAP
0c00
ccc0
ccc0
ffc0
0000
ffe0
1800
3000
7fc0
e0c0
60c0
7fc0
0000
ENDCHAR
STARTCHAR 0x3465
ENCODING 13413
SWIDTH 886 0
DWIDTH 12 0
BBX 12 13 0 -2
BITMAP
0000
fde0
6c00
b400
ec00
b7e0
6d40
fb40
9b40
fb40
9ac0
fae0
0000
ENDCHAR
STARTCHAR 0x3466
ENCODING 13414
SWIDTH 886 0
DWIDTH 12 0
BBX 12 13 0 -2
BITMAP
0000
ffe0
dac0
d7e0
f680
d680
dfe0
d0c0
bfc0
b0c0
3fc0
e0e0
0000
ENDCHAR
STARTCHAR 0x3467
ENCODING 13415
SWIDTH 886 0
DWIDTH 12 0
BBX 12 13 0 -2
BITMAP
0000
ffe0
db40
db40
d7e0
f6c0
d7e0
dac0
d7e0
b6c0
b6c0
37e0
0000
ENDCHAR
STARTCHAR 0x3468
ENCODING 13416
SWIDTH 886 0
DWIDTH 12 0
BBX 12 13 0 -2
BITMAP
0000
1fe0
f300
0fe0
0c60
f7e0
d460
d7e0
d460
bfe0
86c0
1c60
0000
ENDCHAR
STARTCHAR 0x3469
ENCODING 13417
SWIDTH 886 0
DWIDTH 12 0
BBX 12 13 0 -2
BITMAP
6000
6fe0
f980
dbe0
da60
ffe0
b660
e7e0
ba60
e7e0
3b40
ee60
0000
ENDCHAR
STARTCHAR 0x346A
ENCODING 13418
SWIDTH 886 0
DWIDTH 12 0
BBX 12 13 0 -2
BITMAP
0000
fbe0
b180
fbe0
9a60
fbe0
9a60
fbe0
b660
dbe0
b340
7660
0000
ENDCHAR
STARTCHAR 0x346B
ENCODING 13419
SWIDTH 886 0
DWIDTH 12 0
BBX 12 13 0 -2
BITMAP
0000
1e00
3300
6180
ccc0
8c60
0c00
6f80
6c00
6c00
6c00
ffe0
0000
ENDCHAR
STARTCHAR 0x346C
ENCODING 13420
SWIDTH 886 0
DWIDTH 12 0
BBX 12 13 0 -2
BITMAP
0300
6300
7fe0
c300
c300
dfc0
c0c0
ccc0
ccc0
c680
c780
dce0
0000
ENDCHAR
STARTCHAR 0x346D
ENCODING 13421
SWIDTH 886 0
DWIDTH 12 0
BBX 12 13 0 -2
BITMAP
0000
3f00
6300
c600
ffe0
c000
df80
d980
d980
db80
9860
9fe0
0000
ENDCHAR
STARTCHAR 0x346E
ENCODING 13422
SWIDTH 886 0
DWIDTH 12 0
BBX 12 13 0 -2
BITMAP
0c00
0c00
ffe0
0c00
ffc0
6180
7f80
3300
ffe0
6180
6180
7f80
0000
ENDCHAR
STARTCHAR 0x346F
ENCODING 13423
SWIDTH 886 0
DWIDTH 12 0
BBX 12 13 0 -2
BITMAP
0000
fbc0
dac0
dac0
fbc0
0c00
ffe0
3300
fbe0
dac0
dac0
fbc0
0000
ENDCHAR
STARTCHAR 0x3470
ENCODING 13424
SWIDTH 886 0
DWIDTH 12 0
BBX 12 13 0 -2
BITMAP
3300
3300
ffc0
3300
3f00
3300
ffe0
3300
6d80
df60
0c00
ffc0
0000
ENDCHAR
STARTCHAR 0x3471
ENCODING 13425
SWIDTH 886 0
DWIDTH 12 0
BBX 12 13 0 -2
BITMAP
0c00
0c00
ffc0
1a00
3300
6180
ffe0
0180
7d80
6d80
7d80
0380
0000
ENDCHAR
STARTCHAR 0x3472
ENCODING 13426
SWIDTH 886 0
DWIDTH 12 0
BBX 12 13 0 -2
BITMAP
0180
c180
dfe0
f180
d7e0
d460
d7e0
b6c0
efe0
7460
cc60
cfe0
0000
ENDCHAR
STARTCHAR 0x3473
ENCODING 13427
SWIDTH 886 0
DWIDTH 12 0
BBX 12 13 0 -2
BITMAP
0c00
0c00
ffe0
8c60
bfa0
1a00
3300
ffe0
0180
7d80
6d80
7d80
0000
ENDCHAR
STARTCHAR 0x3474
ENCODING 13428
SWIDTH 886 0
DWIDTH 12 0
BBX 12 13 0 -2
BITMAP
0300
6300
7fe0
6300
a300
afc0
a0c0
acc0
acc0
f680
0780
3ce0
0000
ENDCHAR
STARTCHAR 0x3475
ENCODING 13429
SWIDTH 886 0
DWIDTH 12 0
BBX 12 13 0 -2
BITMAP
0000
73c0
1e00
f380
0cc0
ffe0
3600
7fc0
d6c0
36c0
36c0
0600
0000
ENDCHAR
STARTCHAR 0x3476
ENCODING 13430
SWIDTH 886 0
DWIDTH 12 0
BBX 12 13 0 -2
BITMAP
0c00
6d80
d540
6d80
cd60
fde0
0c00
ffe0
6660
66c0
d380
dee0
0000
ENDCHAR
STARTCHAR 0x3477
ENCODING 13431
SWIDTH 886 0
DWIDTH 12 0
BBX 12 13 0 -2
BITMAP
0000
7f80
0180
0180
7f80
6000
60c0
7fc0
0c00
36c0
d060
9f80
0000
ENDCHAR
STARTCHAR 0x3478
ENCODING 13432
SWIDTH 886 0
DWIDTH 12 0
BBX 12 13 0 -2
BITMAP
0000
dfe0
d360
ffe0
db60
dfe0
db60
eb60
dfe0
c300
dfe0
c300
0000
ENDCHAR
STARTCHAR 0x3479
ENCODING 13433
SWIDTH 886 0
DWIDTH 12 0
BBX 12 13 0 -2
BITMAP
0000
6fc0
6cc0
f4c0
6cc0
6cc0
ecc0
f4c0
acc0
acc0
68c0
70e0
0000
ENDCHAR
STARTCHAR 0x347A
ENCODING 13434
SWIDTH 886 0
DWIDTH 12 0
BBX 12 13 0 -2
BITMAP
0c00
cc00
dfe0
f4c0
cfe0
ccc0
f7c0
d4c0
bfe0
b000
36c0
ec60
0000
ENDCHAR
STARTCHAR 0x347B
ENCODING 13435
SWIDTH 886 0
DWIDTH 12 0
BBX 12 13 0 -2
BITMAP
0000
f7e0
b6c0
f6c0
b6c0
bfe0
f180
8180
b380
9aa0
ada0
d9e0
0000
ENDCHAR
STARTCHAR 0x347C
ENCODING 13436
SWIDTH 886 0
DWIDTH 12 0
BBX 12 13 0 -2
BITMAP
0000
dbe0
fd60
db60
fbe0
db60
fb60
dbe0
fd60
0360
d660
9ae0
0000
ENDCHAR
STARTCHAR 0x347D
ENCODING 13437
SWIDTH 886 0
DWIDTH 12 0
BBX 12 13 0 -2
BITMAP
0cc0
6cc0
6fe0
f4c0
6fc0
6cc0
efc0
ecc0
afe0
a000
6cc0
6860
0000
ENDCHAR
STARTCHAR 0x347E
ENCODING 13438
SWIDTH 886 0
DWIDTH 12 0
BBX 12 13 0 -2
BITMAP
0c00
0c00
ffe0
3180
ffc0
6d80
ffe0
6d80
ffc0
1d00
7580
cce0
0000
ENDCHAR
STARTCHAR 0x3521
ENCODING 13601
SWIDTH 886 0
DWIDTH 12 0
BBX 12 13 0 -2
BITMAP
0300
6d60
6b40
f5a0
6b40
6fe0
e300
efe0
ad80
aea0
68c0
6ba0
0000
ENDCHAR
STARTCHAR 0x3522
ENCODING 13602
SWIDTH 886 0
DWIDTH 12 0
BBX 12 13 0 -2
BITMAP
0000
6fc0
a0c0
afc0
a0c0
bfe0
a360
afe0
6b40
6b40
dbc0
c300
0000
ENDCHAR
STARTCHAR 0x3523
ENCODING 13603
SWIDTH 886 0
DWIDTH 12 0
BBX 12 13 0 -2
BITMAP
6000
67c0
fac0
d6c0
d6c0
fce0
a800
d7e0
b660
dac0
b380
eee0
0000
ENDCHAR
STARTCHAR 0x3524
ENCODING 13604
SWIDTH 886 0
DWIDTH 12 0
BBX 12 13 0 -2
BITMAP
6000
6000
7fe0
c000
df80
0000
ffc0
00c0
76c0
1cc0
3660
e360
0000
ENDCHAR
STARTCHAR 0x3525
ENCODING 13605
SWIDTH 886 0
DWIDTH 12 0
BBX 12 13 0 -2
BITMAP
1800
1800
9fc0
d000
3780
8000
dfc0
00c0
00c0
60c0
c060
8060
0000
ENDCHAR
STARTCHAR 0x3526
ENCODING 13606
SWIDTH 886 0
DWIDTH 12 0
BBX 12 13 0 -2
BITMAP
0c00
3580
6d40
d680
6d60
ffe0
0c00
ffe0
d560
fd40
d580
fd60
0000
ENDCHAR
STARTCHAR 0x3527
ENCODING 13607
SWIDTH 886 0
DWIDTH 12 0
BBX 12 13 0 -2
BITMAP
0000
61c0
6f00
f400
3400
37e0
6cc0
ecc0
b4c0
68c0
68c0
60c0
0000
ENDCHAR
STARTCHAR 0x3528
ENCODING 13608
SWIDTH 886 0
DWIDTH 12 0
BBX 12 13 0 -2
BITMAP
0000
7f80
0c00
ffe0
3500
6d80
df40
0660
0c00
ffe0
0c00
3c00
0000
ENDCHAR
STARTCHAR 0x3529
ENCODING 13609
SWIDTH 886 0
DWIDTH 12 0
BBX 12 13 0 -2
BITMAP
0000
3ae0
e380
6ec0
6360
f7e0
6600
efe0
ed60
b560
ad60
6300
0000
ENDCHAR
STARTCHAR 0x352A
ENCODING 13610
SWIDTH 886 0
DWIDTH 12 0
BBX 12 13 0 -2
BITMAP
0000
6fe0
c060
b060
f060
6fe0
cc00
fc00
6c00
b460
ac60
6fe0
0000
ENDCHAR
STARTCHAR 0x352B
ENCODING 13611
SWIDTH 886 0
DWIDTH 12 0
BBX 12 13 0 -2
BITMAP
0d00
7500
d5e0
bf60
0c60
6aa0
d5a0
daa0
df40
ccc0
d5a0
ef60
0000
ENDCHAR
STARTCHAR 0x352C
ENCODING 13612
SWIDTH 886 0
DWIDTH 12 0
BBX 12 13 0 -2
BITMAP
0000
6fe0
6c60
f7e0
6c60
6fe0
fc60
6fe0
d680
d680
8da0
b9e0
0000
ENDCHAR
STARTCHAR 0x352D
ENCODING 13613
SWIDTH 886 0
DWIDTH 12 0
BBX 12 13 0 -2
BITMAP
0000
f7e0
0060
f060
0060
f7e0
0c00
0c00
f400
b460
b460
f7e0
0000
ENDCHAR
STARTCHAR 0x352E
ENCODING 13614
SWIDTH 886 0
DWIDTH 12 0
BBX 12 13 0 -2
BITMAP
0c00
0c00
ffc0
ccc0
ffc0
0c00
ffe0
6180
7f80
6180
7f80
c0e0
0000
ENDCHAR
STARTCHAR 0x352F
ENCODING 13615
SWIDTH 886 0
DWIDTH 12 0
BBX 12 13 0 -2
BITMAP
6000
67e0
f860
6060
67e0
fa00
6600
7a60
a7e0
a000
f000
9fe0
0000
ENDCHAR
STARTCHAR 0x3530
ENCODING 13616
SWIDTH 886 0
DWIDTH 12 0
BBX 12 13 0 -2
BITMAP
0300
6300
fb00
6fc0
fb40
ab40
fb40
ab40
fac0
66c0
fcc0
6ce0
0000
ENDCHAR
STARTCHAR 0x3531
ENCODING 13617
SWIDTH 886 0
DWIDTH 12 0
BBX 12 13 0 -2
BITMAP
0000
6fe0
6b60
afe0
ad60
6fe0
fd60
d560
d7e0
d300
bfe0
8300
0000
ENDCHAR
STARTCHAR 0x3532
ENCODING 13618
SWIDTH 886 0
DWIDTH 12 0
BBX 12 13 0 -2
BITMAP
0000
f7c0
9ac0
66c0
fac0
9ac0
fac0
9ac0
fac0
b6c0
9ac0
f4e0
0000
ENDCHAR
STARTCHAR 0x3533
ENCODING 13619
SWIDTH 886 0
DWIDTH 12 0
BBX 12 13 0 -2
BITMAP
0300
f300
afe0
f680
acc0
f860
afe0
f060
3760
d560
3760
e0e0
0000
ENDCHAR
STARTCHAR 0x3534
ENCODING 13620
SWIDTH 886 0
DWIDTH 12 0
BBX 12 13 0 -2
BITMAP
0c00
1800
ff80
d980
ff80
d980
d980
ff80
3540
35c0
6c60
c7e0
0000
ENDCHAR
STARTCHAR 0x3535
ENCODING 13621
SWIDTH 886 0
DWIDTH 12 0
BBX 12 13 0 -2
BITMAP
0000
7f00
c600
ff80
d980
ffc0
d8c0
ffc0
98c0
ffc0
9860
0fe0
0000
ENDCHAR
STARTCHAR 0x3536
ENCODING 13622
SWIDTH 886 0
DWIDTH 12 0
BBX 12 13 0 -2
BITMAP
1980
6d80
6300
df80
cd80
dfc0
d0c0
ffe0
c060
d560
d560
c1c0
0000
ENDCHAR
STARTCHAR 0x3537
ENCODING 13623
SWIDTH 886 0
DWIDTH 12 0
BBX 12 13 0 -2
BITMAP
0cc0
6d80
7fe0
c300
dfe0
c300
dfe0
db00
ffe0
db60
ddc0
db60
0000
ENDCHAR
STARTCHAR 0x3538
ENCODING 13624
SWIDTH 886 0
DWIDTH 12 0
BBX 12 13 0 -2
BITMAP
0300
c300
dfe0
f300
d300
dfc0
d0c0
b4c0
ecc0
7680
c780
dce0
0000
ENDCHAR
STARTCHAR 0x3539
ENCODING 13625
SWIDTH 886 0
DWIDTH 12 0
BBX 12 13 0 -2
BITMAP
0c00
0c00
ffe0
8060
bfa0
6180
7f80
6180
7f80
6180
6180
ffe0
0000
ENDCHAR
STARTCHAR 0x353A
ENCODING 13626
SWIDTH 886 0
DWIDTH 12 0
BBX 12 13 0 -2
BITMAP
3180
3ea0
31a0
fe80
d7e0
fe80
d1a0
dea0
b540
b6c0
35a0
ff60
0000
ENDCHAR
STARTCHAR 0x353B
ENCODING 13627
SWIDTH 886 0
DWIDTH 12 0
BBX 12 13 0 -2
BITMAP
0300
c300
dfe0
e300
c300
dfc0
c0c0
ecc0
ccc0
c680
c780
dce0
0000
ENDCHAR
STARTCHAR 0x353C
ENCODING 13628
SWIDTH 886 0
DWIDTH 12 0
BBX 12 13 0 -2
BITMAP
0000
d7e0
dcc0
f180
dfe0
d1a0
de80
e980
dee0
da80
d680
e7e0
0000
ENDCHAR
STARTCHAR 0x353D
ENCODING 13629
SWIDTH 886 0
DWIDTH 12 0
BBX 12 13 0 -2
BITMAP
0600
da00
fbe0
daa0
faa0
daa0
f980
d980
fd40
0340
d660
9c60
0000
ENDCHAR
STARTCHAR 0x353E
ENCODING 13630
SWIDTH 886 0
DWIDTH 12 0
BBX 12 13 0 -2
BITMAP
0cc0
ad80
afe0
f300
afe0
a300
6fe0
7500
efe0
6da0
6ec0
6da0
0000
ENDCHAR
STARTCHAR 0x353F
ENCODING 13631
SWIDTH 886 0
DWIDTH 12 0
BBX 12 13 0 -2
BITMAP
0000
bbe0
e0c0
9980
fbe0
c1a0
fa80
b680
fee0
3680
6a80
cfe0
0000
ENDCHAR
STARTCHAR 0x3540
ENCODING 13632
SWIDTH 886 0
DWIDTH 12 0
BBX 12 13 0 -2
BITMAP
0000
c0e0
cf80
f580
3580
3580
6fe0
ccc0
ecc0
d4c0
cda0
de60
0000
ENDCHAR
STARTCHAR 0x3541
ENCODING 13633
SWIDTH 886 0
DWIDTH 12 0
BBX 12 13 0 -2
BITMAP
3180
3300
ffe0
0c00
ffc0
0c00
ffe0
6c60
ffe0
66c0
fb80
6ee0
0000
ENDCHAR
STARTCHAR 0x3542
ENCODING 13634
SWIDTH 886 0
DWIDTH 12 0
BBX 12 13 0 -2
BITMAP
06c0
6680
6fe0
f980
abe0
a980
afe0
f580
6fe0
6da0
6ec0
f5a0
0000
ENDCHAR
STARTCHAR 0x3543
ENCODING 13635
SWIDTH 886 0
DWIDTH 12 0
BBX 12 13 0 -2
BITMAP
0300
e300
1fe0
e860
0fc0
ecc0
0fc0
0cc0
efc0
acc0
acc0
efe0
0000
ENDCHAR
STARTCHAR 0x3544
ENCODING 13636
SWIDTH 886 0
DWIDTH 12 0
BBX 12 13 0 -2
BITMAP
0cc0
ed80
3fe0
e300
1fe0
e300
3fe0
1b00
ffe0
ab60
bdc0
eb60
0000
ENDCHAR
STARTCHAR 0x3545
ENCODING 13637
SWIDTH 886 0
DWIDTH 12 0
BBX 12 13 0 -2
BITMAP
1800
d800
dfe0
f060
d6a0
db60
c660
dfe0
e760
daa0
d660
c1c0
0000
ENDCHAR
STARTCHAR 0x3546
ENCODING 13638
SWIDTH 886 0
DWIDTH 12 0
BBX 12 13 0 -2
BITMAP
3300
3300
ffe0
3300
7fe0
db60
aa60
1860
ffa0
3a60
6b60
d9c0
0000
ENDCHAR
STARTCHAR 0x3547
ENCODING 13639
SWIDTH 886 0
DWIDTH 12 0
BBX 12 13 0 -2
BITMAP
0c00
d400
ffe0
d460
faa0
66a0
fa60
afe0
fb60
6ea0
fa60
61c0
0000
ENDCHAR
STARTCHAR 0x3548
ENCODING 13640
SWIDTH 886 0
DWIDTH 12 0
BBX 12 13 0 -2
BITMAP
0c00
0c00
ffe0
0c00
0c00
ffc0
0000
0000
7f80
6180
6180
7f80
0000
ENDCHAR
STARTCHAR 0x3549
ENCODING 13641
SWIDTH 886 0
DWIDTH 12 0
BBX 12 13 0 -2
BITMAP
0c00
0c00
f7e0
b800
b000
b7c0
b180
b300
b600
b460
f460
07e0
0000
ENDCHAR
STARTCHAR 0x354A
ENCODING 13642
SWIDTH 886 0
DWIDTH 12 0
BBX 12 13 0 -2
BITMAP
0c00
0c00
efe0
ada0
aea0
ad60
aee0
a300
bfe0
a300
ee80
38e0
0000
ENDCHAR
STARTCHAR 0x354B
ENCODING 13643
SWIDTH 886 0
DWIDTH 12 0
BBX 12 13 0 -2
BITMAP
0180
6180
6fe0
f180
6180
6fe0
e000
e000
b7e0
ac60
6c60
6fe0
0000
ENDCHAR
STARTCHAR 0x354C
ENCODING 13644
SWIDTH 886 0
DWIDTH 12 0
BBX 12 13 0 -2
BITMAP
0000
6fc0
6180
ffe0
6d60
6b40
efe0
eaa0
ade0
aba0
6aa0
6ba0
0000
ENDCHAR
STARTCHAR 0x354D
ENCODING 13645
SWIDTH 886 0
DWIDTH 12 0
BBX 12 13 0 -2
BITMAP
0180
f180
0fe0
f180
0180
f7e0
0000
0000
f7e0
b660
b660
f7e0
0000
ENDCHAR
STARTCHAR 0x354E
ENCODING 13646
SWIDTH 886 0
DWIDTH 12 0
BBX 12 13 0 -2
BITMAP
0300
fb00
6300
63e0
6300
6300
f300
d7e0
d460
d460
d460
f7e0
0000
ENDCHAR
STARTCHAR 0x354F
ENCODING 13647
SWIDTH 886 0
DWIDTH 12 0
BBX 12 13 0 -2
BITMAP
0c00
6c00
6fe0
f980
6980
6180
e180
efe0
a180
a180
6180
6180
0000
ENDCHAR
STARTCHAR 0x3550
ENCODING 13648
SWIDTH 886 0
DWIDTH 12 0
BBX 12 13 0 -2
BITMAP
0000
07c0
fc00
0c00
ffe0
6d80
dac0
7380
cce0
3500
6d80
dce0
0000
ENDCHAR
STARTCHAR 0x3551
ENCODING 13649
SWIDTH 886 0
DWIDTH 12 0
BBX 12 13 0 -2
BITMAP
6000
67e0
fa60
6660
6660
6660
fe60
c660
c660
9a60
fae0
1a00
0000
ENDCHAR
STARTCHAR 0x3552
ENCODING 13650
SWIDTH 886 0
DWIDTH 12 0
BBX 12 13 0 -2
BITMAP
0c00
0c00
ffe0
b1a0
ab60
ce00
3b80
e0e0
7f80
6180
6180
7f80
0000
ENDCHAR
STARTCHAR 0x3553
ENCODING 13651
SWIDTH 886 0
DWIDTH 12 0
BBX 12 13 0 -2
BITMAP
0c00
ede0
ada0
bfa0
eda0
ada0
bfa0
eda0
a9a0
aae0
ae80
a180
0000
ENDCHAR
STARTCHAR 0x3554
ENCODING 13652
SWIDTH 886 0
DWIDTH 12 0
BBX 12 13 0 -2
BITMAP
0c00
0fc0
0c00
ffe0
cc60
df80
cc60
dfe0
d000
bfe0
b000
3fe0
0000
ENDCHAR
STARTCHAR 0x3555
ENCODING 13653
SWIDTH 886 0
DWIDTH 12 0
BBX 12 13 0 -2
BITMAP
0cc0
06c0
8180
dfe0
0300
1b60
eb60
6fe0
6300
6300
d000
9fe0
0000
ENDCHAR
STARTCHAR 0x3556
ENCODING 13654
SWIDTH 886 0
DWIDTH 12 0
BBX 12 13 0 -2
BITMAP
0000
0380
7e00
6000
6000
7fc0
6300
6300
6300
6300
6300
ffe0
0000
ENDCHAR
STARTCHAR 0x3557
ENCODING 13655
SWIDTH 886 0
DWIDTH 12 0
BBX 12 13 0 -2
BITMAP
3000
3000
3f80
3180
6180
6300
0300
0600
0d00
1980
70c0
c060
0000
ENDCHAR
STARTCHAR 0x3558
ENCODING 13656
SWIDTH 886 0
DWIDTH 12 0
BBX 12 13 0 -2
BITMAP
0600
6600
6600
dfc0
c6c0
c6c0
c6c0
c6c0
ccc0
ccc0
d860
f060
0000
ENDCHAR
STARTCHAR 0x3559
ENCODING 13657
SWIDTH 886 0
DWIDTH 12 0
BBX 12 13 0 -2
BITMAP
0300
6300
6300
dfe0
c300
c300
c700
cd80
db40
d360
c300
c300
0000
ENDCHAR
STARTCHAR 0x355A
ENCODING 13658
SWIDTH 886 0
DWIDTH 12 0
BBX 12 13 0 -2
BITMAP
0000
ff80
3180
3300
3600
37c0
60c0
6cc0
c680
c380
0ec0
7860
0000
ENDCHAR
STARTCHAR 0x355B
ENCODING 13659
SWIDTH 886 0
DWIDTH 12 0
BBX 12 13 0 -2
BITMAP
0000
3fc0
ecc0
ad80
ad00
adc0
a8c0
aac0
b340
a180
e740
1c60
0000
ENDCHAR
STARTCHAR 0x355C
ENCODING 13660
SWIDTH 886 0
DWIDTH 12 0
BBX 12 13 0 -2
BITMAP
0c00
0c00
ffe0
8060
bf60
b360
3f00
1800
7f80
6180
6180
7f80
0000
ENDCHAR
STARTCHAR 0x355D
ENCODING 13661
SWIDTH 886 0
DWIDTH 12 0
BBX 12 13 0 -2
BITMAP
0000
7fc0
00c0
00c0
7fc0
6000
6000
7fe0
c060
c060
00c0
0780
0000
ENDCHAR
STARTCHAR 0x355E
ENCODING 13662
SWIDTH 886 0
DWIDTH 12 0
BBX 12 13 0 -2
BITMAP
0000
3f00
6600
ffc0
00c0
7fc0
00c0
7fc0
0c00
36c0
d060
9f80
0000
ENDCHAR
STARTCHAR 0x355F
ENCODING 13663
SWIDTH 886 0
DWIDTH 12 0
BBX 12 13 0 -2
BITMAP
6600
6600
6be0
fac0
60c0
acc0
eb40
6340
e980
ad80
6340
ee60
0000
ENDCHAR
STARTCHAR 0x3560
ENCODING 13664
SWIDTH 886 0
DWIDTH 12 0
BBX 12 13 0 -2
BITMAP
0000
6fe0
6600
f600
6600
67e0
e660
ec60
b460
a060
60c0
6780
0000
ENDCHAR
STARTCHAR 0x3561
ENCODING 13665
SWIDTH 886 0
DWIDTH 12 0
BBX 12 13 0 -2
BITMAP
0c00
0cc0
0c60
ffc0
0c00
ccc0
6e80
0d00
1d80
74c0
cc60
1c00
0000
ENDCHAR
STARTCHAR 0x3562
ENCODING 13666
SWIDTH 886 0
DWIDTH 12 0
BBX 12 13 0 -2
BITMAP
0000
3fc0
8cc0
cd80
0d00
8dc0
d8c0
1ac0
d340
d180
8740
9c60
0000
ENDCHAR
STARTCHAR 0x3563
ENCODING 13667
SWIDTH 886 0
DWIDTH 12 0
BBX 12 13 0 -2
BITMAP
0600
0600
8600
dfe0
0000
8cc0
ccc0
0cc0
0d80
6d80
c180
bfe0
0000
ENDCHAR
STARTCHAR 0x3564
ENCODING 13668
SWIDTH 886 0
DWIDTH 12 0
BBX 12 13 0 -2
BITMAP
0000
3f80
e300
0e00
3b80
e0e0
0c00
6cc0
cd80
1a00
7380
c0e0
0000
ENDCHAR
STARTCHAR 0x3565
ENCODING 13669
SWIDTH 886 0
DWIDTH 12 0
BBX 12 13 0 -2
BITMAP
0300
0340
e360
dfc0
c300
db60
ed40
c300
cd80
db40
f360
0700
0000
ENDCHAR
STARTCHAR 0x3566
ENCODING 13670
SWIDTH 886 0
DWIDTH 12 0
BBX 12 13 0 -2
BITMAP
0c00
0c00
ffe0
9a60
3600
e3c0
1800
ff00
1b00
1b60
7360
c1e0
0000
ENDCHAR
STARTCHAR 0x3567
ENCODING 13671
SWIDTH 886 0
DWIDTH 12 0
BBX 12 13 0 -2
BITMAP
0c00
0c00
ffe0
9a60
fbe0
d860
fbe0
da00
ffe0
6a60
d860
bbc0
0000
ENDCHAR
STARTCHAR 0x3568
ENCODING 13672
SWIDTH 886 0
DWIDTH 12 0
BBX 12 13 0 -2
BITMAP
0600
c600
fbe0
ad80
0000
ffc0
6300
67c0
d8c0
cd80
8780
bce0
0000
ENDCHAR
STARTCHAR 0x3569
ENCODING 13673
SWIDTH 886 0
DWIDTH 12 0
BBX 12 13 0 -2
BITMAP
0000
6fc0
ccc0
b580
f500
6dc0
d8c0
eac0
7340
a180
a740
6c60
0000
ENDCHAR
STARTCHAR 0x356A
ENCODING 13674
SWIDTH 886 0
DWIDTH 12 0
BBX 12 13 0 -2
BITMAP
0000
60c0
c6c0
b6c0
f6c0
66c0
dac0
fae0
67c0
acc0
a0c0
60c0
0000
ENDCHAR
STARTCHAR 0x356B
ENCODING 13675
SWIDTH 886 0
DWIDTH 12 0
BBX 12 13 0 -2
BITMAP
0000
63c0
c660
b400
f000
67e0
d800
f800
67e0
aa60
aa60
67e0
0000
ENDCHAR
STARTCHAR 0x356C
ENCODING 13676
SWIDTH 886 0
DWIDTH 12 0
BBX 12 13 0 -2
BITMAP
0000
dfe0
d860
d860
d860
d860
dfe0
d860
d860
d860
d860
dfe0
0000
ENDCHAR
STARTCHAR 0x356D
ENCODING 13677
SWIDTH 886 0
DWIDTH 12 0
BBX 12 13 0 -2
BITMAP
0c00
cc00
cc00
ffc0
8c00
8c00
0c00
ffe0
0c00
0c00
0c00
0c00
0000
ENDCHAR
STARTCHAR 0x356E
ENCODING 13678
SWIDTH 886 0
DWIDTH 12 0
BBX 12 13 0 -2
BITMAP
0c00
0c00
ffc0
0c00
0c00
0c00
ffe0
1800
1980
3180
6740
7cc0
0000
ENDCHAR
STARTCHAR 0x356F
ENCODING 13679
SWIDTH 886 0
DWIDTH 12 0
BBX 12 13 0 -2
BITMAP
0000
ffc0
c0c0
ffc0
c600
ffe0
c600
c600
dfc0
b0c0
b0c0
3fc0
0000
ENDCHAR
STARTCHAR 0x3570
ENCODING 13680
SWIDTH 886 0
DWIDTH 12 0
BBX 12 13 0 -2
BITMAP
0000
ffe0
c000
c000
ff80
c180
c180
ff80
c000
c000
c000
ffe0
0000
ENDCHAR
STARTCHAR 0x3571
ENCODING 13681
SWIDTH 886 0
DWIDTH 12 0
BBX 12 13 0 -2
BITMAP
0000
dfe0
d800
e800
dfc0
d8c0
d8c0
efc0
d800
d800
d800
dfe0
0000
ENDCHAR
STARTCHAR 0x3572
ENCODING 13682
SWIDTH 886 0
DWIDTH 12 0
BBX 12 13 0 -2
BITMAP
3000
d3c0
dd40
f540
d540
d540
d540
eac0
dac0
d8e0
d400
e7e0
0000
ENDCHAR
STARTCHAR 0x3573
ENCODING 13683
SWIDTH 886 0
DWIDTH 12 0
BBX 12 13 0 -2
BITMAP
18c0
6d80
3300
ffe0
6180
df40
8c60
7f80
0c00
ffe0
0c00
3c00
0000
ENDCHAR
STARTCHAR 0x3574
ENCODING 13684
SWIDTH 886 0
DWIDTH 12 0
BBX 12 13 0 -2
BITMAP
0000
cfe0
6c00
8fc0
ccc0
37c0
6c00
ffe0
1d00
7580
cce0
0c00
0000
ENDCHAR
STARTCHAR 0x3575
ENCODING 13685
SWIDTH 886 0
DWIDTH 12 0
BBX 12 13 0 -2
BITMAP
0c00
0fc0
0c00
ffe0
d860
dfc0
d800
dfc0
ed60
b540
8d00
7fe0
0000
ENDCHAR
STARTCHAR 0x3576
ENCODING 13686
SWIDTH 886 0
DWIDTH 12 0
BBX 12 13 0 -2
BITMAP
0600
f600
07e0
f580
0d80
f180
0180
0fe0
f180
b180
b180
f180
0000
ENDCHAR
STARTCHAR 0x3577
ENCODING 13687
SWIDTH 886 0
DWIDTH 12 0
BBX 12 13 0 -2
BITMAP
0000
fbe0
9a00
9a00
fbe0
6660
6660
bbe0
a600
a600
a600
fbe0
0000
ENDCHAR
STARTCHAR 0x3578
ENCODING 13688
SWIDTH 886 0
DWIDTH 12 0
BBX 12 13 0 -2
BITMAP
0000
77e0
dc60
8fe0
f580
6fe0
fd80
6d80
abe0
aa60
6660
fbe0
0000
ENDCHAR
STARTCHAR 0x3579
ENCODING 13689
SWIDTH 886 0
DWIDTH 12 0
BBX 12 13 0 -2
BITMAP
0000
0fc0
9980
dfe0
1b60
9fe0
db60
1b60
dfe0
c000
9aa0
b6a0
0000
ENDCHAR
STARTCHAR 0x357A
ENCODING 13690
SWIDTH 886 0
DWIDTH 12 0
BBX 12 13 0 -2
BITMAP
3000
dfe0
b5a0
7fa0
cda0
d5e0
df80
0000
ffe0
0c00
ccc0
9c60
0000
ENDCHAR
STARTCHAR 0x357B
ENCODING 13691
SWIDTH 886 0
DWIDTH 12 0
BBX 12 13 0 -2
BITMAP
0000
3f80
6300
ffc0
ccc0
ffc0
ccc0
ccc0
ffc0
0000
d6c0
9b60
0000
ENDCHAR
STARTCHAR 0x357C
ENCODING 13692
SWIDTH 886 0
DWIDTH 12 0
BBX 12 13 0 -2
BITMAP
0c00
0c00
ffe0
3300
3300
3f00
0000
ffe0
0600
0c00
0c00
3c00
0000
ENDCHAR
STARTCHAR 0x357D
ENCODING 13693
SWIDTH 886 0
DWIDTH 12 0
BBX 12 13 0 -2
BITMAP
0c00
0c00
ffe0
3300
3300
7f80
0300
0600
ffe0
0c00
0c00
3c00
0000
ENDCHAR
STARTCHAR 0x357E
ENCODING 13694
SWIDTH 886 0
DWIDTH 12 0
BBX 12 13 0 -2
BITMAP
0c00
0c00
ffe0
0000
7f80
6180
6180
7f80
0c00
ccc0
8c60
3c00
0000
ENDCHAR
STARTCHAR 0x3621
ENCODING 13857
SWIDTH 886 0
DWIDTH 12 0
BBX 12 13 0 -2
BITMAP
0d80
6d80
6d80
dfe0
cd80
cd80
cd80
dfe0
c000
cd80
d8c0
d060
0000
ENDCHAR
STARTCHAR 0x3622
ENCODING 13858
SWIDTH 886 0
DWIDTH 12 0
BBX 12 13 0 -2
BITMAP
0300
6300
6fe0
c300
db60
cd40
c300
dfe0
c300
c680
ccc0
d860
0000
ENDCHAR
STARTCHAR 0x3623
ENCODING 13859
SWIDTH 886 0
DWIDTH 12 0
BBX 12 13 0 -2
BITMAP
0000
6fe0
6600
dfe0
cd80
ddc0
d7a0
e000
dfe0
d5a0
d7a0
d0e0
0000
ENDCHAR
STARTCHAR 0x3624
ENCODING 13860
SWIDTH 886 0
DWIDTH 12 0
BBX 12 13 0 -2
BITMAP
0000
d340
dac0
ccc0
dac0
d340
c0c0
ffc0
3600
3660
6660
c3e0
0000
ENDCHAR
STARTCHAR 0x3625
ENCODING 13861
SWIDTH 886 0
DWIDTH 12 0
BBX 12 13 0 -2
BITMAP
6180
6180
fbe0
d340
ffe0
0000
fbe0
9a60
fbe0
d340
b6c0
bce0
0000
ENDCHAR
STARTCHAR 0x3626
ENCODING 13862
SWIDTH 886 0
DWIDTH 12 0
BBX 12 13 0 -2
BITMAP
3300
3300
3300
ffc0
3300
3300
3300
ffe0
0000
3300
6180
c0c0
0000
ENDCHAR
STARTCHAR 0x3627
ENCODING 13863
SWIDTH 886 0
DWIDTH 12 0
BBX 12 13 0 -2
BITMAP
0000
8060
a1a0
b360
9a60
8c60
9a60
b360
a1a0
8060
8060
ffe0
0000
ENDCHAR
STARTCHAR 0x3628
ENCODING 13864
SWIDTH 886 0
DWIDTH 12 0
BBX 12 13 0 -2
BITMAP
0600
c600
dfc0
c6c0
f6c0
ccc0
d980
dfe0
daa0
daa0
d760
d6e0
0000
ENDCHAR
STARTCHAR 0x3629
ENCODING 13865
SWIDTH 886 0
DWIDTH 12 0
BBX 12 13 0 -2
BITMAP
0000
ffe0
8000
bfe0
8600
8600
bfc0
8600
8600
bfe0
8000
ffe0
0000
ENDCHAR
STARTCHAR 0x362A
ENCODING 13866
SWIDTH 886 0
DWIDTH 12 0
BBX 12 13 0 -2
BITMAP
0000
7ee0
daa0
9ea0
aaa0
aaa0
aea0
a9a0
eaa0
6ae0
de80
c680
0000
ENDCHAR
STARTCHAR 0x362B
ENCODING 13867
SWIDTH 886 0
DWIDTH 12 0
BBX 12 13 0 -2
BITMAP
0000
00c0
f6c0
b6c0
b6c0
b6c0
b6c0
b6e0
b7c0
bcc0
f0c0
00c0
0000
ENDCHAR
STARTCHAR 0x362C
ENCODING 13868
SWIDTH 886 0
DWIDTH 12 0
BBX 12 13 0 -2
BITMAP
0000
ffc0
0c00
ffe0
3380
7340
df60
0000
ffc0
d340
df40
c1c0
0000
ENDCHAR
STARTCHAR 0x362D
ENCODING 13869
SWIDTH 886 0
DWIDTH 12 0
BBX 12 13 0 -2
BITMAP
0600
c600
dfe0
cd80
ed80
dfe0
d8c0
dfc0
d8c0
dfc0
ed80
39e0
0000
ENDCHAR
STARTCHAR 0x362E
ENCODING 13870
SWIDTH 886 0
DWIDTH 12 0
BBX 12 13 0 -2
BITMAP
0300
6300
7fe0
6300
ab60
ad40
a300
bfe0
a300
a680
ecc0
3860
0000
ENDCHAR
STARTCHAR 0x362F
ENCODING 13871
SWIDTH 886 0
DWIDTH 12 0
BBX 12 13 0 -2
BITMAP
0600
ec00
6860
6fe0
e300
9fe0
9b60
eb60
6fe0
6300
6360
dfe0
0000
ENDCHAR
STARTCHAR 0x3630
ENCODING 13872
SWIDTH 886 0
DWIDTH 12 0
BBX 12 13 0 -2
BITMAP
0000
efe0
6d60
6fe0
ed60
8fe0
8000
efe0
6d60
6fe0
6d60
dfe0
0000
ENDCHAR
STARTCHAR 0x3631
ENCODING 13873
SWIDTH 886 0
DWIDTH 12 0
BBX 12 13 0 -2
BITMAP
0300
6300
6fe0
6300
a300
a300
afe0
a600
a6c0
6cc0
69a0
6f60
0000
ENDCHAR
STARTCHAR 0x3632
ENCODING 13874
SWIDTH 886 0
DWIDTH 12 0
BBX 12 13 0 -2
BITMAP
0000
f7c0
6cc0
6ec0
6d40
74c0
c0e0
0c00
3600
30c0
d060
9f80
0000
ENDCHAR
STARTCHAR 0x3633
ENCODING 13875
SWIDTH 886 0
DWIDTH 12 0
BBX 12 13 0 -2
BITMAP
3300
3300
ffc0
3300
3300
ffe0
6180
ccc0
b460
6d40
cd40
1c00
0000
ENDCHAR
STARTCHAR 0x3634
ENCODING 13876
SWIDTH 886 0
DWIDTH 12 0
BBX 12 13 0 -2
BITMAP
0300
c300
dfe0
e300
db60
cd40
c300
efe0
c300
c680
ccc0
d860
0000
ENDCHAR
STARTCHAR 0x3635
ENCODING 13877
SWIDTH 886 0
DWIDTH 12 0
BBX 12 13 0 -2
BITMAP
6300
6d00
fde0
6ac0
6ac0
fcc0
c340
bb40
1980
fd80
3340
7660
0000
ENDCHAR
STARTCHAR 0x3636
ENCODING 13878
SWIDTH 886 0
DWIDTH 12 0
BBX 12 13 0 -2
BITMAP
0000
6fe0
6300
ffe0
6d80
6dc0
f7a0
e000
afe0
aaa0
6ba0
68e0
0000
ENDCHAR
STARTCHAR 0x3637
ENCODING 13879
SWIDTH 886 0
DWIDTH 12 0
BBX 12 13 0 -2
BITMAP
0000
1fe0
9860
d860
1860
9fe0
c680
0680
c680
c6a0
8da0
b9e0
0000
ENDCHAR
STARTCHAR 0x3638
ENCODING 13880
SWIDTH 886 0
DWIDTH 12 0
BBX 12 13 0 -2
BITMAP
0000
6fe0
a300
c300
c300
a300
6fe0
e300
a300
6300
6300
dfe0
0000
ENDCHAR
STARTCHAR 0x3639
ENCODING 13881
SWIDTH 886 0
DWIDTH 12 0
BBX 12 13 0 -2
BITMAP
0300
6300
afe0
c300
db60
ad40
6300
efe0
a300
6680
6cc0
d860
0000
ENDCHAR
STARTCHAR 0x363A
ENCODING 13882
SWIDTH 886 0
DWIDTH 12 0
BBX 12 13 0 -2
BITMAP
0000
9fe0
f300
afe0
6d80
edc0
77a0
6000
dfe0
d5a0
b7a0
b0e0
0000
ENDCHAR
STARTCHAR 0x363B
ENCODING 13883
SWIDTH 886 0
DWIDTH 12 0
BBX 12 13 0 -2
BITMAP
1800
e800
afe0
b360
ea60
ada0
aaa0
f3a0
a1a0
bfa0
a060
a1c0
0000
ENDCHAR
STARTCHAR 0x363C
ENCODING 13884
SWIDTH 886 0
DWIDTH 12 0
BBX 12 13 0 -2
BITMAP
0c00
7f80
1980
3180
fbe0
6b60
dae0
bfc0
60c0
7fc0
60c0
61c0
0000
ENDCHAR
STARTCHAR 0x363D
ENCODING 13885
SWIDTH 886 0
DWIDTH 12 0
BBX 12 13 0 -2
BITMAP
0000
df60
b360
ffe0
b360
f7e0
b560
b560
ffe0
0000
c0c0
8060
0000
ENDCHAR
STARTCHAR 0x363E
ENCODING 13886
SWIDTH 886 0
DWIDTH 12 0
BBX 12 13 0 -2
BITMAP
3300
3300
ffe0
0c00
ffe0
3300
7f40
c060
ffc0
d340
df40
c1c0
0000
ENDCHAR
STARTCHAR 0x363F
ENCODING 13887
SWIDTH 886 0
DWIDTH 12 0
BBX 12 13 0 -2
BITMAP
0000
6ee0
daa0
9ea0
eaa0
6ac0
dea0
99a0
eaa0
6ac0
de80
c680
0000
ENDCHAR
STARTCHAR 0x3640
ENCODING 13888
SWIDTH 886 0
DWIDTH 12 0
BBX 12 13 0 -2
BITMAP
0300
7300
dfe0
86c0
f6c0
6fe0
fcc0
6fc0
b4c0
afc0
6680
fde0
0000
ENDCHAR
STARTCHAR 0x3641
ENCODING 13889
SWIDTH 886 0
DWIDTH 12 0
BBX 12 13 0 -2
BITMAP
0000
dee0
aaa0
dec0
aaa0
ede0
6d80
ffc0
3300
ffe0
6180
7f80
0000
ENDCHAR
STARTCHAR 0x3642
ENCODING 13890
SWIDTH 886 0
DWIDTH 12 0
BBX 12 13 0 -2
BITMAP
0000
dee0
aaa0
dec0
aaa0
ede0
6d80
ffc0
a1a0
7f80
66c0
fbe0
0000
ENDCHAR
STARTCHAR 0x3643
ENCODING 13891
SWIDTH 886 0
DWIDTH 12 0
BBX 12 13 0 -2
BITMAP
0600
d600
ffe0
d540
f580
1ae0
ffc0
cc00
ffe0
0060
d560
b560
0000
ENDCHAR
STARTCHAR 0x3644
ENCODING 13892
SWIDTH 886 0
DWIDTH 12 0
BBX 12 13 0 -2
BITMAP
0000
6700
6de0
db60
db60
db60
db60
db60
db60
db60
dd60
c300
0000
ENDCHAR
STARTCHAR 0x3645
ENCODING 13893
SWIDTH 886 0
DWIDTH 12 0
BBX 12 13 0 -2
BITMAP
0000
37e0
bcc0
d180
1fe0
31a0
3e80
1980
dee0
da80
b680
a7e0
0000
ENDCHAR
STARTCHAR 0x3646
ENCODING 13894
SWIDTH 886 0
DWIDTH 12 0
BBX 12 13 0 -2
BITMAP
0c00
0c00
ffc0
0c00
3500
ffe0
3300
3300
ffc0
1a00
7660
c3e0
0000
ENDCHAR
STARTCHAR 0x3647
ENCODING 13895
SWIDTH 886 0
DWIDTH 12 0
BBX 12 13 0 -2
BITMAP
0300
0300
efe0
a300
ad40
bfe0
ecc0
acc0
afe0
a680
eda0
39e0
0000
ENDCHAR
STARTCHAR 0x3648
ENCODING 13896
SWIDTH 886 0
DWIDTH 12 0
BBX 12 13 0 -2
BITMAP
1a00
6ac0
6a80
ffe0
3300
3300
ffc0
0c00
ffe0
1d00
7580
cce0
0000
ENDCHAR
STARTCHAR 0x3649
ENCODING 13897
SWIDTH 886 0
DWIDTH 12 0
BBX 12 13 0 -2
BITMAP
0000
ffc0
c0c0
ffc0
c000
ffe0
c060
df60
d360
d360
bf60
81c0
0000
ENDCHAR
STARTCHAR 0x364A
ENCODING 13898
SWIDTH 886 0
DWIDTH 12 0
BBX 12 13 0 -2
BITMAP
1b00
1b00
1b00
ffe0
db60
db60
db60
ffe0
db60
db60
db60
ffe0
0000
ENDCHAR
STARTCHAR 0x364B
ENCODING 13899
SWIDTH 886 0
DWIDTH 12 0
BBX 12 13 0 -2
BITMAP
0000
6fe0
6c00
f6e0
6660
6ea0
eaa0
eac0
aec0
a760
6c00
6fe0
0000
ENDCHAR
STARTCHAR 0x364C
ENCODING 13900
SWIDTH 886 0
DWIDTH 12 0
BBX 12 13 0 -2
BITMAP
0000
ffe0
0c00
0c00
0c00
0c00
ffc0
0c00
0cc0
0c60
0c00
ffe0
0000
ENDCHAR
STARTCHAR 0x364D
ENCODING 13901
SWIDTH 886 0
DWIDTH 12 0
BBX 12 13 0 -2
BITMAP
0000
6fe0
6860
f860
6ba0
6860
eba0
eaa0
aaa0
aba0
6860
68e0
0000
ENDCHAR
STARTCHAR 0x364E
ENCODING 13902
SWIDTH 886 0
DWIDTH 12 0
BBX 12 13 0 -2
BITMAP
0000
61c0
af00
a300
6300
f300
6fe0
e300
f300
a300
a300
6300
0000
ENDCHAR
STARTCHAR 0x364F
ENCODING 13903
SWIDTH 886 0
DWIDTH 12 0
BBX 12 13 0 -2
BITMAP
0d80
6d80
7fe0
cd80
dfe0
db60
db60
dfe0
c300
dfe0
c300
dfe0
0000
ENDCHAR
STARTCHAR 0x3650
ENCODING 13904
SWIDTH 886 0
DWIDTH 12 0
BBX 12 13 0 -2
BITMAP
0300
d300
fb00
d7e0
fb60
ab60
ab60
fb60
6660
fa60
60c0
fb80
0000
ENDCHAR
STARTCHAR 0x3651
ENCODING 13905
SWIDTH 886 0
DWIDTH 12 0
BBX 12 13 0 -2
BITMAP
0c00
cc00
cfe0
d860
e860
cf60
c060
c3a0
de60
c060
e0c0
0380
0000
ENDCHAR
STARTCHAR 0x3652
ENCODING 13906
SWIDTH 886 0
DWIDTH 12 0
BBX 12 13 0 -2
BITMAP
0c00
0c00
0c00
ffe0
8c60
8c60
8c60
8c60
8c60
8de0
0c00
0c00
0000
ENDCHAR
STARTCHAR 0x3653
ENCODING 13907
SWIDTH 886 0
DWIDTH 12 0
BBX 12 13 0 -2
BITMAP
0180
7300
cfe0
8c60
f7e0
6c60
f7e0
6300
b7e0
ad60
6d60
fd60
0000
ENDCHAR
STARTCHAR 0x3654
ENCODING 13908
SWIDTH 886 0
DWIDTH 12 0
BBX 12 13 0 -2
BITMAP
0000
03c0
fe00
c000
c000
ffe0
c300
c300
c300
8300
8300
0300
0000
ENDCHAR
STARTCHAR 0x3655
ENCODING 13909
SWIDTH 886 0
DWIDTH 12 0
BBX 12 13 0 -2
BITMAP
0600
3a00
e7e0
c6a0
c6a0
fea0
d980
d980
db40
9b40
9a60
1c60
0000
ENDCHAR
STARTCHAR 0x3656
ENCODING 13910
SWIDTH 886 0
DWIDTH 12 0
BBX 12 13 0 -2
BITMAP
0600
7600
dbe0
86a0
faa0
66a0
f980
6180
ab40
ab40
6660
fc60
0000
ENDCHAR
STARTCHAR 0x3657
ENCODING 13911
SWIDTH 886 0
DWIDTH 12 0
BBX 12 13 0 -2
BITMAP
0000
fbe0
6180
fbc0
6180
ffe0
3300
6e80
c0e0
bf80
0180
0300
0000
ENDCHAR
STARTCHAR 0x3658
ENCODING 13912
SWIDTH 886 0
DWIDTH 12 0
BBX 12 13 0 -2
BITMAP
6180
6180
fbe0
6380
f6c0
ada0
7f80
0000
ffe0
0c00
ccc0
9c60
0000
ENDCHAR
STARTCHAR 0x3659
ENCODING 13913
SWIDTH 886 0
DWIDTH 12 0
BBX 12 13 0 -2
BITMAP
0000
3f00
6d80
ffc0
9a60
6d80
6a80
6980
ffe0
9b60
bf60
80e0
0000
ENDCHAR
STARTCHAR 0x365A
ENCODING 13914
SWIDTH 886 0
DWIDTH 12 0
BBX 12 13 0 -2
BITMAP
0600
c600
fbe0
ad00
fb00
dfe0
fb60
db60
fb60
da60
9a60
b9c0
0000
ENDCHAR
STARTCHAR 0x365B
ENCODING 13915
SWIDTH 886 0
DWIDTH 12 0
BBX 12 13 0 -2
BITMAP
0000
fbe0
a060
fb40
9b80
fee0
9b00
36c0
ffe0
0c00
6d80
cce0
0000
ENDCHAR
STARTCHAR 0x365C
ENCODING 13916
SWIDTH 886 0
DWIDTH 12 0
BBX 12 13 0 -2
BITMAP
3300
3300
ffe0
3300
07c0
fc00
c000
ffe0
c300
8300
8300
0300
0000
ENDCHAR
STARTCHAR 0x365D
ENCODING 13917
SWIDTH 886 0
DWIDTH 12 0
BBX 12 13 0 -2
BITMAP
3300
3300
ffe0
3300
ffe0
8c60
bfa0
8c60
9d60
b5a0
8c60
ffe0
0000
ENDCHAR
STARTCHAR 0x365E
ENCODING 13918
SWIDTH 886 0
DWIDTH 12 0
BBX 12 13 0 -2
BITMAP
0000
67c0
6c60
f800
37e0
3000
6000
efe0
b060
6860
60c0
6380
0000
ENDCHAR
STARTCHAR 0x365F
ENCODING 13919
SWIDTH 886 0
DWIDTH 12 0
BBX 12 13 0 -2
BITMAP
0cc0
ccc0
dfe0
edc0
6d60
6cc0
dfc0
e000
dfe0
c300
db40
d760
0000
ENDCHAR
STARTCHAR 0x3660
ENCODING 13920
SWIDTH 886 0
DWIDTH 12 0
BBX 12 13 0 -2
BITMAP
06c0
e6c0
1fe0
e6c0
1fe0
eb60
1b60
1fe0
e300
afe0
a300
efe0
0000
ENDCHAR
STARTCHAR 0x3661
ENCODING 13921
SWIDTH 886 0
DWIDTH 12 0
BBX 12 13 0 -2
BITMAP
0000
01c0
cf00
6c00
0c00
0fe0
ed80
6980
6980
6180
d000
9fe0
0000
ENDCHAR
STARTCHAR 0x3662
ENCODING 13922
SWIDTH 886 0
DWIDTH 12 0
BBX 12 13 0 -2
BITMAP
0000
1e00
3300
6180
df40
8c60
0c00
ffc0
0c00
ccc0
6d80
ffe0
0000
ENDCHAR
STARTCHAR 0x3663
ENCODING 13923
SWIDTH 886 0
DWIDTH 12 0
BBX 12 13 0 -2
BITMAP
0000
07c0
f460
b800
b7e0
b000
b000
b7e0
b060
b060
f0c0
0380
0000
ENDCHAR
STARTCHAR 0x3664
ENCODING 13924
SWIDTH 886 0
DWIDTH 12 0
BBX 12 13 0 -2
BITMAP
0000
77e0
da60
87e0
fa60
6660
fbe0
6680
aaa0
aaa0
66c0
fb60
0000
ENDCHAR
STARTCHAR 0x3665
ENCODING 13925
SWIDTH 886 0
DWIDTH 12 0
BBX 12 13 0 -2
BITMAP
1800
1800
1800
ff00
1b00
1b00
1b00
1b00
3300
3360
6360
c1e0
0000
ENDCHAR
STARTCHAR 0x3666
ENCODING 13926
SWIDTH 886 0
DWIDTH 12 0
BBX 12 13 0 -2
BITMAP
0000
6fc0
68c0
dfc0
d8c0
dfc0
d8c0
d8c0
dfe0
c000
d8c0
d060
0000
ENDCHAR
STARTCHAR 0x3667
ENCODING 13927
SWIDTH 886 0
DWIDTH 12 0
BBX 12 13 0 -2
BITMAP
6000
6000
7fe0
c060
c060
be60
b660
3660
3660
3e60
00c0
0380
0000
ENDCHAR
STARTCHAR 0x3668
ENCODING 13928
SWIDTH 886 0
DWIDTH 12 0
BBX 12 13 0 -2
BITMAP
0000
ffe0
8000
b0c0
9980
8d00
8600
8d00
9980
b0c0
8000
ffe0
0000
ENDCHAR
STARTCHAR 0x3669
ENCODING 13929
SWIDTH 886 0
DWIDTH 12 0
BBX 12 13 0 -2
BITMAP
0c00
6c00
afe0
d860
d860
af60
6d60
ed60
af60
6060
60c0
c380
0000
ENDCHAR
STARTCHAR 0x366A
ENCODING 13930
SWIDTH 886 0
DWIDTH 12 0
BBX 12 13 0 -2
BITMAP
0c00
0c00
f7c0
ccc0
ccc0
e8c0
d980
c180
c300
e680
1cc0
7060
0000
ENDCHAR
STARTCHAR 0x366B
ENCODING 13931
SWIDTH 886 0
DWIDTH 12 0
BBX 12 13 0 -2
BITMAP
0000
8fe0
fc00
ac00
6fe0
fc60
6c60
6fe0
d400
dc00
8c00
8fe0
0000
ENDCHAR
STARTCHAR 0x366C
ENCODING 13932
SWIDTH 886 0
DWIDTH 12 0
BBX 12 13 0 -2
BITMAP
3300
3300
ffe0
3300
0c00
ffe0
0c00
0c00
ffc0
c0c0
c0c0
ffc0
0000
ENDCHAR
STARTCHAR 0x366D
ENCODING 13933
SWIDTH 886 0
DWIDTH 12 0
BBX 12 13 0 -2
BITMAP
6000
c7e0
fa00
9aa0
faa0
9ac0
fac0
9ea0
faa0
6b60
da00
bbe0
0000
ENDCHAR
STARTCHAR 0x366E
ENCODING 13934
SWIDTH 886 0
DWIDTH 12 0
BBX 12 13 0 -2
BITMAP
0000
fbe0
a600
faa0
a6a0
fac0
a6c0
faa0
1aa0
ab60
1a00
77e0
0000
ENDCHAR
STARTCHAR 0x366F
ENCODING 13935
SWIDTH 886 0
DWIDTH 12 0
BBX 12 13 0 -2
BITMAP
0000
f9c0
a700
fa00
a600
fbe0
a6c0
fac0
1ac0
aac0
1ac0
77e0
0000
ENDCHAR
STARTCHAR 0x3670
ENCODING 13936
SWIDTH 886 0
DWIDTH 12 0
BBX 12 13 0 -2
BITMAP
0600
fa00
a7e0
f460
ac60
f7a0
a6a0
faa0
1ba0
a860
18c0
7380
0000
ENDCHAR
STARTCHAR 0x3671
ENCODING 13937
SWIDTH 886 0
DWIDTH 12 0
BBX 12 13 0 -2
BITMAP
0000
7f80
6180
7f80
6180
7f80
6180
6180
ffe0
0000
7380
c0e0
0000
ENDCHAR
STARTCHAR 0x3672
ENCODING 13938
SWIDTH 886 0
DWIDTH 12 0
BBX 12 13 0 -2
BITMAP
0000
7f80
6d80
7f80
6d80
ffe0
8c60
bf60
0c00
36c0
d060
9f80
0000
ENDCHAR
STARTCHAR 0x3673
ENCODING 13939
SWIDTH 886 0
DWIDTH 12 0
BBX 12 13 0 -2
BITMAP
0f80
0c00
ffe0
cc60
dfc0
cd80
d580
dfe0
c060
bfe0
9980
70e0
0000
ENDCHAR
STARTCHAR 0x3674
ENCODING 13940
SWIDTH 886 0
DWIDTH 12 0
BBX 12 13 0 -2
BITMAP
0000
0f80
e8c0
b360
afc0
a8c0
afc0
a8c0
afc0
ab60
e980
1ee0
0000
ENDCHAR
STARTCHAR 0x3675
ENCODING 13941
SWIDTH 886 0
DWIDTH 12 0
BBX 12 13 0 -2
BITMAP
0c00
0c00
ffe0
9a60
9a60
3600
e7c0
0000
7f80
0c00
0c00
ffe0
0000
ENDCHAR
STARTCHAR 0x3676
ENCODING 13942
SWIDTH 886 0
DWIDTH 12 0
BBX 12 13 0 -2
BITMAP
0000
6fe0
6b60
dfe0
db60
dfe0
c300
dfe0
da60
daa0
dfa0
d8e0
0000
ENDCHAR
STARTCHAR 0x3677
ENCODING 13943
SWIDTH 886 0
DWIDTH 12 0
BBX 12 13 0 -2
BITMAP
0c00
0c00
ffe0
ada0
7f80
6d80
7f80
0c00
ffe0
8da0
bfa0
80e0
0000
ENDCHAR
STARTCHAR 0x3678
ENCODING 13944
SWIDTH 886 0
DWIDTH 12 0
BBX 12 13 0 -2
BITMAP
0000
1fe0
db60
6fe0
1b60
1fe0
e300
6fe0
6b60
6ba0
d000
9fe0
0000
ENDCHAR
STARTCHAR 0x3679
ENCODING 13945
SWIDTH 886 0
DWIDTH 12 0
BBX 12 13 0 -2
BITMAP
0000
efe0
ab60
afe0
db60
afe0
a300
afe0
aa60
daa0
9fa0
98e0
0000
ENDCHAR
STARTCHAR 0x367A
ENCODING 13946
SWIDTH 886 0
DWIDTH 12 0
BBX 12 13 0 -2
BITMAP
0c00
0c00
ffc0
ccc0
ccc0
ffc0
0c00
ffe0
8c60
ffe0
0c00
0c00
0000
ENDCHAR
STARTCHAR 0x367B
ENCODING 13947
SWIDTH 886 0
DWIDTH 12 0
BBX 12 13 0 -2
BITMAP
0300
6b00
6fe0
f540
6ee0
6aa0
eea0
eaa0
aea0
a9a0
6ae0
6e80
0000
ENDCHAR
STARTCHAR 0x367C
ENCODING 13948
SWIDTH 886 0
DWIDTH 12 0
BBX 12 13 0 -2
BITMAP
0000
7660
daa0
86a0
faa0
66a0
faa0
66a0
b6a0
a6a0
6c60
f460
0000
ENDCHAR
STARTCHAR 0x367D
ENCODING 13949
SWIDTH 886 0
DWIDTH 12 0
BBX 12 13 0 -2
BITMAP
0000
ffe0
c060
ffe0
d6c0
da80
dfe0
d060
dfe0
b060
bfe0
3060
0000
ENDCHAR
STARTCHAR 0x367E
ENCODING 13950
SWIDTH 886 0
DWIDTH 12 0
BBX 12 13 0 -2
BITMAP
0000
ffe0
c060
ffe0
c300
db60
db60
dfe0
c300
b360
b360
3fe0
0000
ENDCHAR
STARTCHAR 0x3721
ENCODING 14113
SWIDTH 886 0
DWIDTH 12 0
BBX 12 13 0 -2
BITMAP
0000
dfe0
d860
efe0
d980
daa0
daa0
ebe0
d980
d5a0
d5a0
cfe0
0000
ENDCHAR
STARTCHAR 0x3722
ENCODING 14114
SWIDTH 886 0
DWIDTH 12 0
BBX 12 13 0 -2
BITMAP
0c00
0c00
ffe0
9a60
3600
ffe0
c060
ffe0
d6c0
bfc0
a660
7fe0
0000
ENDCHAR
STARTCHAR 0x3723
ENCODING 14115
SWIDTH 886 0
DWIDTH 12 0
BBX 12 13 0 -2
BITMAP
0c00
0c00
f660
3540
6d80
dce0
0000
ffc0
c0c0
ffc0
c0c0
ffc0
0000
ENDCHAR
STARTCHAR 0x3724
ENCODING 14116
SWIDTH 886 0
DWIDTH 12 0
BBX 12 13 0 -2
BITMAP
0180
d680
fa80
d680
f6a0
66c0
fa80
aa80
fa80
66a0
faa0
66e0
0000
ENDCHAR
STARTCHAR 0x3725
ENCODING 14117
SWIDTH 886 0
DWIDTH 12 0
BBX 12 13 0 -2
BITMAP
0c00
ccc0
bfa0
d540
ffe0
d540
ffe0
ccc0
7f80
6180
6180
7f80
0000
ENDCHAR
STARTCHAR 0x3726
ENCODING 14118
SWIDTH 886 0
DWIDTH 12 0
BBX 12 13 0 -2
BITMAP
0c00
0c00
ffe0
9a60
3600
63c0
b300
dfe0
0300
6fc0
c300
bfe0
0000
ENDCHAR
STARTCHAR 0x3727
ENCODING 14119
SWIDTH 886 0
DWIDTH 12 0
BBX 12 13 0 -2
BITMAP
6600
c6e0
9b80
fa60
9be0
fa00
9be0
fa00
9be0
0000
d6c0
9b60
0000
ENDCHAR
STARTCHAR 0x3728
ENCODING 14120
SWIDTH 886 0
DWIDTH 12 0
BBX 12 13 0 -2
BITMAP
0000
efe0
ab60
afe0
db60
afe0
a000
bfe0
ab60
db40
9980
bee0
0000
ENDCHAR
STARTCHAR 0x3729
ENCODING 14121
SWIDTH 886 0
DWIDTH 12 0
BBX 12 13 0 -2
BITMAP
0000
3f80
e300
0e00
3b00
ede0
6d80
0d00
ffe0
1d00
7580
cce0
0000
ENDCHAR
STARTCHAR 0x372A
ENCODING 14122
SWIDTH 886 0
DWIDTH 12 0
BBX 12 13 0 -2
BITMAP
0000
ffe0
1a00
ffc0
dac0
dac0
ffc0
0c00
ffe0
1d00
7580
cce0
0000
ENDCHAR
STARTCHAR 0x372B
ENCODING 14123
SWIDTH 886 0
DWIDTH 12 0
BBX 12 13 0 -2
BITMAP
0000
6fc0
ccc0
9fe0
eaa0
6aa0
dee0
f300
6fe0
a700
ad40
6b60
0000
ENDCHAR
STARTCHAR 0x372C
ENCODING 14124
SWIDTH 886 0
DWIDTH 12 0
BBX 12 13 0 -2
BITMAP
0000
ff80
3180
3300
1e00
fbe0
db60
d340
ffe0
1d00
7580
cce0
0000
ENDCHAR
STARTCHAR 0x372D
ENCODING 14125
SWIDTH 886 0
DWIDTH 12 0
BBX 12 13 0 -2
BITMAP
0180
7780
dd80
8da0
f5a0
6fa0
f580
6dc0
ad40
b540
6e60
f460
0000
ENDCHAR
STARTCHAR 0x372E
ENCODING 14126
SWIDTH 886 0
DWIDTH 12 0
BBX 12 13 0 -2
BITMAP
0300
fb00
6fe0
fb60
ab60
fb60
aa60
fa60
61c0
f800
06c0
b360
0000
ENDCHAR
STARTCHAR 0x372F
ENCODING 14127
SWIDTH 886 0
DWIDTH 12 0
BBX 12 13 0 -2
BITMAP
0000
7fc0
0cc0
ffe0
0cc0
0cc0
ffc0
1800
7fc0
d0c0
30c0
3fc0
0000
ENDCHAR
STARTCHAR 0x3730
ENCODING 14128
SWIDTH 886 0
DWIDTH 12 0
BBX 12 13 0 -2
BITMAP
3300
3300
ffe0
0c00
ffc0
6d80
7f80
6d80
ffe0
0000
d6c0
9b60
0000
ENDCHAR
STARTCHAR 0x3731
ENCODING 14129
SWIDTH 886 0
DWIDTH 12 0
BBX 12 13 0 -2
BITMAP
0000
f660
06a0
f6a0
06a0
f6a0
06a0
06a0
f6a0
b6a0
b460
f460
0000
ENDCHAR
STARTCHAR 0x3732
ENCODING 14130
SWIDTH 886 0
DWIDTH 12 0
BBX 12 13 0 -2
BITMAP
06c0
fac0
6980
ffe0
6980
6980
fbe0
6180
f980
dfe0
d980
f980
0000
ENDCHAR
STARTCHAR 0x3733
ENCODING 14131
SWIDTH 886 0
DWIDTH 12 0
BBX 12 13 0 -2
BITMAP
0000
ffe0
8c60
ffe0
6d80
7f80
6d80
6d80
7f80
0c00
ffe0
0c00
0000
ENDCHAR
STARTCHAR 0x3734
ENCODING 14132
SWIDTH 886 0
DWIDTH 12 0
BBX 12 13 0 -2
BITMAP
0000
fde0
6d60
ff40
6d80
6d40
fd60
6360
fd60
cdc0
cd00
fd00
0000
ENDCHAR
STARTCHAR 0x3735
ENCODING 14133
SWIDTH 886 0
DWIDTH 12 0
BBX 12 13 0 -2
BITMAP
3000
3180
fd80
3180
3180
fec0
31a0
31b0
fd80
3180
3180
fe80
0000
ENDCHAR
STARTCHAR 0x3736
ENCODING 14134
SWIDTH 886 0
DWIDTH 12 0
BBX 12 13 0 -2
BITMAP
6000
63e0
fd60
6d60
cd60
bbe0
0c00
ffe0
34c0
e6c0
6380
fce0
0000
ENDCHAR
STARTCHAR 0x3737
ENCODING 14135
SWIDTH 886 0
DWIDTH 12 0
BBX 12 13 0 -2
BITMAP
6000
67e0
6660
fa60
1ac0
3680
66c0
f660
aa60
6660
66c0
6600
0000
ENDCHAR
STARTCHAR 0x3738
ENCODING 14136
SWIDTH 886 0
DWIDTH 12 0
BBX 12 13 0 -2
BITMAP
0000
6fe0
6600
ccc0
d980
cd00
c660
dfe0
c300
db40
d360
c300
0000
ENDCHAR
STARTCHAR 0x3739
ENCODING 14137
SWIDTH 886 0
DWIDTH 12 0
BBX 12 13 0 -2
BITMAP
0000
6fe0
6180
d7e0
d660
d7e0
da60
d7e0
d660
dbe0
c6c0
dc60
0000
ENDCHAR
STARTCHAR 0x373A
ENCODING 14138
SWIDTH 886 0
DWIDTH 12 0
BBX 12 13 0 -2
BITMAP
0000
fc60
db60
db60
db60
fd60
db60
db60
db60
d860
9860
98e0
0000
ENDCHAR
STARTCHAR 0x373B
ENCODING 14139
SWIDTH 886 0
DWIDTH 12 0
BBX 12 13 0 -2
BITMAP
0000
7f80
6180
6180
6180
6180
7f80
3600
3600
3660
6660
c7e0
0000
ENDCHAR
STARTCHAR 0x373C
ENCODING 14140
SWIDTH 886 0
DWIDTH 12 0
BBX 12 13 0 -2
BITMAP
0600
fa00
07e0
fec0
dac0
fb80
8ee0
8000
7f80
6180
6180
7f80
0000
ENDCHAR
STARTCHAR 0x373D
ENCODING 14141
SWIDTH 886 0
DWIDTH 12 0
BBX 12 13 0 -2
BITMAP
0c00
0c00
ffc0
0c00
0c00
ffe0
0c00
0c00
ffc0
0c00
0c00
ffe0
0000
ENDCHAR
STARTCHAR 0x373E
ENCODING 14142
SWIDTH 886 0
DWIDTH 12 0
BBX 12 13 0 -2
BITMAP
0300
0300
f7e0
c300
c300
dfe0
e300
c300
cfe0
c300
f300
1fe0
0000
ENDCHAR
STARTCHAR 0x373F
ENCODING 14143
SWIDTH 886 0
DWIDTH 12 0
BBX 12 13 0 -2
BITMAP
0000
fd60
db60
db60
fd60
db60
98e0
0c00
7f80
0c00
0c00
ffe0
0000
ENDCHAR
STARTCHAR 0x3740
ENCODING 14144
SWIDTH 886 0
DWIDTH 12 0
BBX 12 13 0 -2
BITMAP
6000
6fe0
fb60
6360
fa60
6660
f9c0
0c00
ffe0
1a00
7380
c0e0
0000
ENDCHAR
STARTCHAR 0x3741
ENCODING 14145
SWIDTH 886 0
DWIDTH 12 0
BBX 12 13 0 -2
BITMAP
0000
fe60
d8c0
d980
d800
fe60
d8c0
d980
d800
d860
98c0
9980
0000
ENDCHAR
STARTCHAR 0x3742
ENCODING 14146
SWIDTH 886 0
DWIDTH 12 0
BBX 12 13 0 -2
BITMAP
0000
6fe0
c060
86c0
0380
6ee0
c300
c300
cfe0
c300
c300
dfe0
0000
ENDCHAR
STARTCHAR 0x3743
ENCODING 14147
SWIDTH 886 0
DWIDTH 12 0
BBX 12 13 0 -2
BITMAP
0c00
0c00
ffe0
0c00
ffc0
ccc0
ffc0
ccc0
ffc0
36c0
d060
9f80
0000
ENDCHAR
STARTCHAR 0x3744
ENCODING 14148
SWIDTH 886 0
DWIDTH 12 0
BBX 12 13 0 -2
BITMAP
0600
0600
ffe0
db00
ffe0
db60
ffe0
d9a0
efc0
b4c0
8f80
78e0
0000
ENDCHAR
STARTCHAR 0x3745
ENCODING 14149
SWIDTH 886 0
DWIDTH 12 0
BBX 12 13 0 -2
BITMAP
6180
6180
fbe0
6180
fbe0
6180
ffc0
00c0
ffc0
3600
d0c0
9fa0
0000
ENDCHAR
STARTCHAR 0x3746
ENCODING 14150
SWIDTH 886 0
DWIDTH 12 0
BBX 12 13 0 -2
BITMAP
0180
fb00
67e0
fe60
67e0
fa60
9a60
fbe0
0c00
36c0
d060
9f80
0000
ENDCHAR
STARTCHAR 0x3747
ENCODING 14151
SWIDTH 886 0
DWIDTH 12 0
BBX 12 13 0 -2
BITMAP
0000
dfc0
d8c0
efc0
d8c0
dfc0
cc00
efe0
d860
db60
df60
c1c0
0000
ENDCHAR
STARTCHAR 0x3748
ENCODING 14152
SWIDTH 886 0
DWIDTH 12 0
BBX 12 13 0 -2
BITMAP
0d80
cd80
dfe0
eb00
dfe0
db00
dfe0
eb00
dfc0
c6e0
cc60
d9c0
0000
ENDCHAR
STARTCHAR 0x3749
ENCODING 14153
SWIDTH 886 0
DWIDTH 12 0
BBX 12 13 0 -2
BITMAP
0600
d600
fbe0
d6c0
c6c0
fcc0
8d40
ed40
ad80
ed80
1b40
7660
0000
ENDCHAR
STARTCHAR 0x374A
ENCODING 14154
SWIDTH 886 0
DWIDTH 12 0
BBX 12 13 0 -2
BITMAP
0000
7f80
6180
7f80
6180
7f80
0c00
ffe0
3300
3f00
ccc0
9c60
0000
ENDCHAR
STARTCHAR 0x374B
ENCODING 14155
SWIDTH 886 0
DWIDTH 12 0
BBX 12 13 0 -2
BITMAP
0300
6300
6fe0
f300
6300
6fe0
e300
e300
b7e0
a300
6300
6fe0
0000
ENDCHAR
STARTCHAR 0x374C
ENCODING 14156
SWIDTH 886 0
DWIDTH 12 0
BBX 12 13 0 -2
BITMAP
0000
3fe0
8000
d660
1b40
8300
dfe0
0300
dfe0
c680
8cc0
b860
0000
ENDCHAR
STARTCHAR 0x374D
ENCODING 14157
SWIDTH 886 0
DWIDTH 12 0
BBX 12 13 0 -2
BITMAP
0180
0180
fbe0
a980
a980
afe0
f980
a980
abe0
a980
f980
0fe0
0000
ENDCHAR
STARTCHAR 0x374E
ENCODING 14158
SWIDTH 886 0
DWIDTH 12 0
BBX 12 13 0 -2
BITMAP
0300
3b40
efe0
6680
6de0
f780
6c60
efe0
f000
afe0
ac60
6fe0
0000
ENDCHAR
STARTCHAR 0x374F
ENCODING 14159
SWIDTH 886 0
DWIDTH 12 0
BBX 12 13 0 -2
BITMAP
0000
ffc0
1800
3300
6600
3580
18c0
ffe0
0c00
6d80
ccc0
8c60
0000
ENDCHAR
STARTCHAR 0x3750
ENCODING 14160
SWIDTH 886 0
DWIDTH 12 0
BBX 12 13 0 -2
BITMAP
0000
6fe0
c060
b6c0
f380
6ee0
c300
f300
6fe0
b300
a300
6fe0
0000
ENDCHAR
ENDFONT
